SplineFontDB: 3.0
FontName: Enriqueta-Bold
FullName: Enriqueta Bold
FamilyName: Enriqueta
Weight: Bold
Copyright: Copyright (c) 2011, FontFuror (info@fontfuror.com), with Reserved Font Names "Enriqueta" and "Enriqueta Pro".
Version: 001.002
ItalicAngle: 0
UnderlinePosition: -50
UnderlineWidth: 50
Ascent: 800
Descent: 200
sfntRevision: 0x00010083
LayerCount: 2
Layer: 0 1 "Back"  1
Layer: 1 1 "Fore"  0
NeedsXUIDChange: 1
XUID: [1021 288 713564382 13179327]
FSType: 0
OS2Version: 2
OS2_WeightWidthSlopeOnly: 0
OS2_UseTypoMetrics: 1
CreationTime: 1323677336
ModificationTime: 1323706265
PfmFamily: 81
TTFWeight: 700
TTFWidth: 5
LineGap: 0
VLineGap: 0
Panose: 0 0 0 0 0 0 0 0 0 0
OS2TypoAscent: 277
OS2TypoAOffset: 1
OS2TypoDescent: -61
OS2TypoDOffset: 1
OS2TypoLinegap: 0
OS2WinAscent: 0
OS2WinAOffset: 1
OS2WinDescent: 300
OS2WinDOffset: 1
HheadAscent: 0
HheadAOffset: 1
HheadDescent: 0
HheadDOffset: 1
OS2SubXSize: 700
OS2SubYSize: 650
OS2SubXOff: 0
OS2SubYOff: 140
OS2SupXSize: 700
OS2SupYSize: 650
OS2SupXOff: 0
OS2SupYOff: 477
OS2StrikeYSize: 50
OS2StrikeYPos: 250
OS2Vendor: 'pyrs'
OS2CodePages: 00000001.00000000
OS2UnicodeRanges: 0000002f.00000000.00000000.00000000
Lookup: 258 0 0 "'kern' Horizontal Kerning lookup 0"  {"'kern' Horizontal Kerning lookup 0 subtable"  } ['kern' ('DFLT' <'dflt' > ) ]
MarkAttachClasses: 1
DEI: 91125
TtTable: prep
PUSHW_1
 511
SCANCTRL
PUSHB_1
 4
SCANTYPE
EndTTInstrs
LangName: 1033 "" "" "" "VivianaMonsalve,GustavoIbarra: Enriqueta Bold: 2010" "Enriqueta-Bold" "Version 1.002" "" "Enriqueta is a trademark of Viviana Monsalve, Gustavo Ibarra." "Viviana Monsalve, Gustavo Ibarra" "Viviana Monsalve, Gustavo Ibarra" "" "www.fontfuror.com" "www.fontfuror.com" "This Font Software is licensed under the SIL Open Font License, Version 1.1. This license is available with a FAQ at: http://scripts.sil.org/OFL" "http://scripts.sil.org/OFL" 
GaspTable: 1 65535 15
Encoding: UnicodeBmp
UnicodeInterp: none
NameList: Adobe Glyph List
DisplaySize: -36
AntiAlias: 1

StartChar: exclam
Encoding: 33 33 1
Width: 326
Flags: HMW
HStem: -10 141<137.5 186.5> 700 20G<92 231 231 231>
VStem: 85 156<31.5 78.5> 102 118
LayerCount: 2
Fore
SplineSet
113 197 m 1,0,-1
 92 720 l 1,1,-1
 231 720 l 1,2,-1
 209 197 l 1,3,-1
 113 197 l 1,0,-1
241 56 m 0,4,5
 241 -10 241 -10 162 -10 c 0,6,7
 123 -10 123 -10 104 4.5 c 128,-1,8
 85 19 85 19 85 56.5 c 0,9,10
 85 94 85 94 102.5 112.5 c 128,-1,11
 120 131 120 131 166 131 c 0,12,13
 212 131 212 131 226.5 113 c 128,-1,14
 241 95 241 95 241 56 c 0,4,5
EndSplineSet
EndChar

StartChar: quotedbl
Encoding: 34 34 2
Width: 381
Flags: HMW
HStem: 522 21G<56 134 56 56 247 247 247 325> 775 20G<73 119 267 313>
LayerCount: 2
Fore
SplineSet
153 746 m 2,0,-1
 134 522 l 1,1,-1
 56 522 l 1,2,-1
 37 746 l 1,3,-1
 36.8166778564 752.11808063 l 2,4,5
 36.8166778564 775.332440663 36.8166778564 775.332440663 50.2156765055 785.166220331 c 128,-1,6
 63.6146751546 795 63.6146751546 795 97 795 c 0,7,8
 153.184215012 795 153.184215012 795 153.184215012 751.516034326 c 0,9,10
 153.184215012 748.855332684 153.184215012 748.855332684 153 746 c 2,0,-1
344 746 m 2,11,-1
 325 522 l 1,12,-1
 247 522 l 1,13,-1
 228 746 l 2,14,15
 227.827402493 748.034833769 227.827402493 748.034833769 227.827402493 751.773568301 c 0,16,17
 227.827402493 775.205686792 227.827402493 775.205686792 242.279902738 785.102843396 c 128,-1,18
 256.732402984 795 256.732402984 795 293 795 c 0,19,20
 344.196579523 795 344.196579523 795 344.196579523 751.876902959 c 0,21,22
 344.196579523 749.046982611 344.196579523 749.046982611 344 746 c 2,11,-1
EndSplineSet
EndChar

StartChar: numbersign
Encoding: 35 35 3
Width: 592
Flags: HMW
HStem: 5 231<97 201 97 97 300 300 300 404> 139 97<28 539 28 539> 348 96<56 567 56 567> 348 226<56 300 196 300 399 503 196 567>
LayerCount: 2
Fore
SplineSet
201 5 m 1,0,-1
 97 5 l 1,1,-1
 196 574 l 1,2,-1
 300 574 l 1,3,-1
 201 5 l 1,0,-1
28 139 m 1,4,-1
 28 236 l 1,5,-1
 539 236 l 1,6,-1
 539 139 l 1,7,-1
 28 139 l 1,4,-1
56 348 m 1,8,-1
 56 444 l 1,9,-1
 567 444 l 1,10,-1
 567 348 l 1,11,-1
 56 348 l 1,8,-1
404 5 m 1,12,-1
 300 5 l 1,13,-1
 399 574 l 1,14,-1
 503 574 l 1,15,-1
 404 5 l 1,12,-1
EndSplineSet
EndChar

StartChar: dollar
Encoding: 36 36 4
Width: 567
Flags: HMW
HStem: -122 138<219 321 219 327 213 321> 4 96<254 314 254 347.5> 4 207<53 347.5> 499 187<204 484 204 387> 593 93<239 286.5> 660 138<216 318 216 216>
VStem: 46 132<494 542 494 556.5> 213 108 400 129<156.5 208>
LayerCount: 2
Fore
SplineSet
318 660 m 1,0,-1
 216 660 l 1,1,-1
 210 798 l 1,2,-1
 324 798 l 1,3,-1
 318 660 l 1,0,-1
153 211 m 1,4,-1
 53 211 l 1,5,-1
 41 45 l 1,6,7
 83 30 83 30 106.5 23.5 c 0,8,9
 177 4 177 4 259 4 c 0,10,11
 388 4 388 4 458.5 59 c 128,-1,12
 529 114 529 114 529 204.25 c 128,-1,13
 529 294.5 529 294.5 473 339.5 c 0,14,15
 426.474081056 376.886899152 426.474081056 376.886899152 350 403 c 2,16,-1
 263 432 l 2,17,18
 216 448 216 448 197 466 c 128,-1,19
 178 484 178 484 178 516 c 0,20,21
 178 593 178 593 269 593 c 0,22,23
 321 593 321 593 372 573 c 1,24,-1
 387 499 l 1,25,-1
 484 499 l 1,26,-1
 498 659 l 1,27,28
 378 686 378 686 273 686 c 128,-1,29
 168 686 168 686 107 636 c 128,-1,30
 46 586 46 586 46 510 c 128,-1,31
 46 434 46 434 83.5 387.5 c 128,-1,32
 121 341 121 341 185 319 c 2,33,-1
 302 278 l 2,34,35
 362 257 362 257 381 238.5 c 128,-1,36
 400 220 400 220 400 182 c 128,-1,37
 400 144 400 144 366.5 122 c 128,-1,38
 333 100 333 100 276 100 c 128,-1,39
 219 100 219 100 166 125 c 1,40,-1
 153 211 l 1,4,-1
219 16 m 1,41,-1
 321 16 l 1,42,-1
 327 -122 l 1,43,-1
 213 -122 l 1,44,-1
 219 16 l 1,41,-1
EndSplineSet
EndChar

StartChar: percent
Encoding: 37 37 5
Width: 713
Flags: HMW
HStem: -37 21G<217 217> -10 75<524.5 558 524.5 570.5> 184 78<513 547.5> 312 75<164.5 198 164.5 210.5> 506 78<153 187.5> 591 20G<500 500>
VStem: 33 91<429 463 429 479> 229 91<435.5 468.5> 393 91<107 141 107 157> 589 91<113.5 146.5>
LayerCount: 2
Fore
SplineSet
217 -37 m 1,0,-1
 137 13 l 1,1,-1
 500 611 l 1,2,-1
 578 560 l 1,3,-1
 217 -37 l 1,0,-1
636.5 27 m 128,-1,5
 593 -10 593 -10 530.5 -10 c 128,-1,6
 468 -10 468 -10 430.5 27.5 c 128,-1,7
 393 65 393 65 393 122 c 128,-1,8
 393 179 393 179 432.5 220.5 c 128,-1,9
 472 262 472 262 539 262 c 128,-1,10
 606 262 606 262 643 222 c 128,-1,11
 680 182 680 182 680 123 c 128,-1,4
 680 64 680 64 636.5 27 c 128,-1,5
589 132 m 0,12,13
 589 154 589 154 572.5 169 c 128,-1,14
 556 184 556 184 529 184 c 0,15,16
 484 184 484 184 484 124 c 0,17,18
 484 98 484 98 500 81.5 c 128,-1,19
 516 65 516 65 541 65 c 0,20,21
 589 65 589 65 589 132 c 0,12,13
276.5 349 m 128,-1,23
 233 312 233 312 170.5 312 c 128,-1,24
 108 312 108 312 70.5 349.5 c 128,-1,25
 33 387 33 387 33 444 c 128,-1,26
 33 501 33 501 72.5 542.5 c 128,-1,27
 112 584 112 584 179 584 c 128,-1,28
 246 584 246 584 283 544 c 128,-1,29
 320 504 320 504 320 445 c 128,-1,22
 320 386 320 386 276.5 349 c 128,-1,23
229 454 m 0,30,31
 229 476 229 476 212.5 491 c 128,-1,32
 196 506 196 506 169 506 c 0,33,34
 124 506 124 506 124 446 c 0,35,36
 124 420 124 420 140 403.5 c 128,-1,37
 156 387 156 387 181 387 c 0,38,39
 229 387 229 387 229 454 c 0,30,31
EndSplineSet
EndChar

StartChar: ampersand
Encoding: 38 38 6
Width: 737
Flags: HMW
HStem: -11 106<244.5 298> -10 21G<604.5 655> 539 191<248 513 248 413> 644 86<299.5 337>
VStem: 39 141<164.5 214 164.5 216> 126 136<565 608 565 621.5> 262 151<565 608>
LayerCount: 2
Fore
SplineSet
618 288 m 1,0,-1
 653 210 l 1,1,-1
 585 158 l 1,2,-1
 599 142 l 2,3,4
 641 93 641 93 680 93 c 0,5,6
 704 93 704 93 725 101 c 1,7,-1
 715 10 l 1,8,9
 679 -10 679 -10 642.5 -10 c 128,-1,10
 606 -10 606 -10 578.5 5 c 128,-1,11
 551 20 551 20 536 35 c 128,-1,12
 521 50 521 50 488 88 c 1,13,14
 353 -11 353 -11 241 -11 c 0,15,16
 184 -11 184 -11 142 7 c 128,-1,17
 100 25 100 25 79 54.5 c 0,18,19
 39 110.69047619 39 110.69047619 39 171.845238095 c 128,-1,20
 39 233 39 233 58.5 270 c 128,-1,21
 78 307 78 307 116 340 c 2,22,-1
 213 423 l 1,23,24
 205 434 205 434 187 457 c 128,-1,25
 169 480 169 480 161.5 491 c 128,-1,26
 154 502 154 502 144 520.5 c 0,27,28
 126 553.8 126 553.8 126 585.4 c 128,-1,29
 126 617 126 617 135.5 639 c 128,-1,30
 145 661 145 661 166 682.5 c 0,31,32
 212.395348837 730 212.395348837 730 322.697674419 730 c 128,-1,33
 433 730 433 730 531 680 c 1,34,-1
 513 539 l 1,35,-1
 413 539 l 1,36,-1
 413 620 l 1,37,38
 376 644 376 644 316 644 c 0,39,40
 291 644 291 644 276.5 630 c 128,-1,41
 262 616 262 616 262 598 c 128,-1,42
 262 580 262 580 268 563.5 c 128,-1,43
 274 547 274 547 280 535 c 128,-1,44
 286 523 286 523 301 503.5 c 128,-1,45
 316 484 316 484 322.5 476 c 128,-1,46
 329 468 329 468 347.5 447.5 c 128,-1,47
 366 427 366 427 368 424 c 2,48,-1
 528 228 l 1,49,-1
 618 288 l 1,0,-1
424 161 m 1,50,-1
 279 337 l 1,51,-1
 233 292 l 2,52,53
 214 273 214 273 205.5 263 c 128,-1,54
 197 253 197 253 188.5 232.5 c 128,-1,55
 180 212 180 212 180 180.5 c 128,-1,56
 180 149 180 149 205 122 c 128,-1,57
 230 95 230 95 272 95 c 128,-1,58
 314 95 314 95 357 118 c 128,-1,59
 400 141 400 141 424 161 c 1,50,-1
EndSplineSet
EndChar

StartChar: quotesingle
Encoding: 39 39 7
Width: 180
Flags: HMW
HStem: 527 21G<53 127 53 53> 775 20G<68 114>
LayerCount: 2
Fore
SplineSet
145 746 m 2,0,-1
 127 527 l 1,1,-1
 53 527 l 1,2,-1
 35 746 l 2,3,4
 34.7791332979 749.865167286 34.7791332979 749.865167286 34.7791332979 753.247703761 c 0,5,6
 34.7791332979 776.094706445 34.7791332979 776.094706445 47.0598702394 785.547353222 c 128,-1,7
 59.3406071808 795 59.3406071808 795 85.6330455233 795 c 128,-1,8
 111.925483866 795 111.925483866 795 123.885291387 789.851454216 c 0,9,10
 145.222389748 780.666103398 145.222389748 780.666103398 145.222389748 752.565407586 c 0,11,12
 145.222389748 749.447041095 145.222389748 749.447041095 145 746 c 2,0,-1
EndSplineSet
EndChar

StartChar: parenleft
Encoding: 40 40 8
Width: 337
Flags: HMW
HStem: -215 21G<252 252> 770 20G<252 252>
VStem: 55 128<231.5 340.5 231.5 398>
LayerCount: 2
Fore
SplineSet
315 -159 m 1,0,-1
 252 -215 l 1,1,2
 175 -135 175 -135 115 1 c 128,-1,3
 55 137 55 137 55 288 c 128,-1,4
 55 439 55 439 114.5 574 c 128,-1,5
 174 709 174 709 252 790 c 1,6,-1
 315 730 l 1,7,8
 246 631 246 631 214.5 508.5 c 128,-1,9
 183 386 183 386 183 286 c 128,-1,10
 183 186 183 186 214.5 63 c 128,-1,11
 246 -60 246 -60 315 -159 c 1,0,-1
EndSplineSet
EndChar

StartChar: parenright
Encoding: 41 41 9
Width: 337
Flags: HMW
HStem: -215 21G<85 85> 770 20G<85 85>
VStem: 154 128<231.5 340.5>
LayerCount: 2
Fore
SplineSet
85 -215 m 1,0,-1
 22 -159 l 1,1,2
 91 -60 91 -60 122.5 63 c 128,-1,3
 154 186 154 186 154 286 c 128,-1,4
 154 386 154 386 122.5 508.5 c 128,-1,5
 91 631 91 631 22 730 c 1,6,-1
 85 790 l 1,7,8
 163 709 163 709 222.5 574 c 128,-1,9
 282 439 282 439 282 288 c 128,-1,10
 282 137 282 137 222 1 c 128,-1,11
 162 -135 162 -135 85 -215 c 1,0,-1
EndSplineSet
EndChar

StartChar: asterisk
Encoding: 42 42 10
Width: 384
Flags: HMW
HStem: 459 21G<143 176 143 143> 775 20G<197 230 230 230>
LayerCount: 2
Fore
SplineSet
130 634 m 1,0,-1
 71 648 l 2,1,2
 36.9025717747 656.090915172 36.9025717747 656.090915172 36.9025717747 688.209455961 c 0,3,4
 36.9025717747 703.480857733 36.9025717747 703.480857733 46 719 c 2,5,-1
 62 747 l 1,6,-1
 163 677 l 1,7,-1
 148 737 l 1,8,-1
 146.147853328 751.879195806 l 1,9,10
 146.147853328 772.383952304 146.147853328 772.383952304 160.46255653 783.691976152 c 128,-1,11
 174.777259732 795 174.777259732 795 197 795 c 2,12,-1
 230 795 l 1,13,-1
 219 675 l 1,14,-1
 263 716 l 2,15,16
 276.942028456 729.361110604 276.942028456 729.361110604 299.451378361 729.361110604 c 128,-1,17
 321.960728267 729.361110604 321.960728267 729.361110604 338 702 c 2,18,-1
 355 674 l 1,19,-1
 245 623 l 1,20,-1
 302 605 l 2,21,22
 336.541002841 594.092314892 336.541002841 594.092314892 336.541002841 563.300435277 c 0,23,24
 336.541002841 548.371615688 336.541002841 548.371615688 327 533 c 2,25,-1
 311 506 l 1,26,-1
 210 577 l 1,27,-1
 225 516 l 2,28,29
 226.852146672 508.385619238 226.852146672 508.385619238 226.852146672 494.896901651 c 128,-1,30
 226.852146672 481.408184063 226.852146672 481.408184063 212.511427493 470.204092032 c 128,-1,31
 198.170708313 459 198.170708313 459 176 459 c 2,32,-1
 143 459 l 1,33,-1
 154 579 l 1,34,-1
 111 538 l 2,35,36
 96.3808623972 523.989993131 96.3808623972 523.989993131 74.2934332594 523.989993131 c 128,-1,37
 52.2060041216 523.989993131 52.2060041216 523.989993131 36 551 c 2,38,-1
 18 579 l 1,39,-1
 130 634 l 1,0,-1
EndSplineSet
EndChar

StartChar: plus
Encoding: 43 43 11
Width: 520
Flags: HMW
HStem: 10 21G<203 311 203 203> 190 104<39 203 39 203 311 481> 450 20G<203 311 311 311>
VStem: 203 108<10 190 294 470>
LayerCount: 2
Fore
SplineSet
311 10 m 1,0,-1
 203 10 l 1,1,-1
 203 190 l 1,2,-1
 39 190 l 1,3,-1
 39 294 l 1,4,-1
 203 294 l 1,5,-1
 203 470 l 1,6,-1
 311 470 l 1,7,-1
 311 294 l 1,8,-1
 481 294 l 1,9,-1
 481 190 l 1,10,-1
 311 190 l 1,11,-1
 311 10 l 1,0,-1
EndSplineSet
EndChar

StartChar: hyphen
Encoding: 45 45 12
Width: 392
Flags: HMW
HStem: 202 105<53 339 53 339>
LayerCount: 2
Fore
SplineSet
53 202 m 1,0,-1
 53 307 l 1,1,-1
 339 307 l 1,2,-1
 339 202 l 1,3,-1
 53 202 l 1,0,-1
EndSplineSet
EndChar

StartChar: period
Encoding: 46 46 13
Width: 251
Flags: HMW
HStem: -10 155<98 152>
VStem: 43 165<36 87>
LayerCount: 2
Fore
SplineSet
194 125.5 m 128,-1,1
 208 106 208 106 208 65 c 128,-1,2
 208 24 208 24 187.5 7 c 128,-1,3
 167 -10 167 -10 125 -10 c 128,-1,4
 83 -10 83 -10 63 5.5 c 128,-1,5
 43 21 43 21 43 63 c 128,-1,6
 43 105 43 105 61 125 c 128,-1,7
 79 145 79 145 129.5 145 c 128,-1,0
 180 145 180 145 194 125.5 c 128,-1,1
EndSplineSet
EndChar

StartChar: slash
Encoding: 47 47 14
Width: 435
Flags: HMW
HStem: -144 21G<2 118 2 2> 700 20G<306 422 422 422>
LayerCount: 2
Fore
SplineSet
306 720 m 1,0,-1
 422 720 l 1,1,-1
 118 -144 l 1,2,-1
 2 -144 l 1,3,-1
 306 720 l 1,0,-1
EndSplineSet
EndChar

StartChar: colon
Encoding: 58 58 15
Width: 251
Flags: HMW
HStem: -10 155<98 152> 340 155<98 152>
VStem: 43 165<36 87 386 437>
LayerCount: 2
Fore
SplineSet
194 125.5 m 128,-1,1
 208 106 208 106 208 65 c 128,-1,2
 208 24 208 24 187.5 7 c 128,-1,3
 167 -10 167 -10 125 -10 c 128,-1,4
 83 -10 83 -10 63 5.5 c 128,-1,5
 43 21 43 21 43 63 c 128,-1,6
 43 105 43 105 61 125 c 128,-1,7
 79 145 79 145 129.5 145 c 128,-1,0
 180 145 180 145 194 125.5 c 128,-1,1
194 475.5 m 128,-1,9
 208 456 208 456 208 415 c 128,-1,10
 208 374 208 374 187.5 357 c 128,-1,11
 167 340 167 340 125 340 c 128,-1,12
 83 340 83 340 63 355.5 c 128,-1,13
 43 371 43 371 43 413 c 128,-1,14
 43 455 43 455 61 475 c 128,-1,15
 79 495 79 495 129.5 495 c 128,-1,8
 180 495 180 495 194 475.5 c 128,-1,9
EndSplineSet
EndChar

StartChar: semicolon
Encoding: 59 59 16
Width: 247
Flags: HMW
HStem: -147 21G<83 83> -10 145<94.5 102> 340 155<97 151>
VStem: 42 164<-104 76.5 36.5 76.5 12 87> 42 165<386 437>
LayerCount: 2
Fore
SplineSet
206 48 m 0,0,1
 206 -6 206 -6 171.5 -61.5 c 128,-1,2
 137 -117 137 -117 83 -147 c 1,3,-1
 42 -104 l 1,4,5
 112 -62 112 -62 119 -6 c 1,6,7
 111 -10 111 -10 93 -10 c 128,-1,8
 75 -10 75 -10 58.5 8.5 c 128,-1,9
 42 27 42 27 42 59 c 0,10,11
 42 135 42 135 118 135 c 0,12,13
 206 135 206 135 206 48 c 0,0,1
193 475.5 m 128,-1,15
 207 456 207 456 207 415 c 128,-1,16
 207 374 207 374 186.5 357 c 128,-1,17
 166 340 166 340 124 340 c 128,-1,18
 82 340 82 340 62 355.5 c 128,-1,19
 42 371 42 371 42 413 c 128,-1,20
 42 455 42 455 60 475 c 128,-1,21
 78 495 78 495 128.5 495 c 128,-1,14
 179 495 179 495 193 475.5 c 128,-1,15
EndSplineSet
EndChar

StartChar: less
Encoding: 60 60 17
Width: 551
Flags: HMW
HStem: -20 21G<451 451> 486 20G<451 451>
LayerCount: 2
Fore
SplineSet
41 243 m 1,0,-1
 451 506 l 1,1,-1
 502 427 l 1,2,-1
 213 243 l 1,3,-1
 503 60 l 1,4,-1
 451 -20 l 1,5,-1
 41 243 l 1,0,-1
EndSplineSet
EndChar

StartChar: equal
Encoding: 61 61 18
Width: 548
Flags: HMW
HStem: 83 100<59 489 59 489> 286 100<59 489 59 489>
LayerCount: 2
Fore
SplineSet
59 286 m 1,0,-1
 59 386 l 1,1,-1
 489 386 l 1,2,-1
 489 286 l 1,3,-1
 59 286 l 1,0,-1
59 83 m 1,4,-1
 59 183 l 1,5,-1
 489 183 l 1,6,-1
 489 83 l 1,7,-1
 59 83 l 1,4,-1
EndSplineSet
EndChar

StartChar: greater
Encoding: 62 62 19
Width: 551
Flags: HMW
HStem: -20 21G<100 100> 486 20G<100 100>
LayerCount: 2
Fore
SplineSet
100 506 m 1,0,-1
 510 243 l 1,1,-1
 100 -20 l 1,2,-1
 48 60 l 1,3,-1
 338 243 l 1,4,-1
 49 427 l 1,5,-1
 100 506 l 1,0,-1
EndSplineSet
EndChar

StartChar: question
Encoding: 63 63 20
Width: 465
Flags: HMW
HStem: -10 141<167.5 216.5> 566 169<70 326.5 70 326.5> 651 84<235.5 289.5>
VStem: 115 156<31.5 78.5> 131 111<269 365> 336 122<500 595>
LayerCount: 2
Fore
SplineSet
336 577 m 0,0,1
 336 651 336 651 255 651 c 0,2,3
 211 651 211 651 164 630 c 1,4,-1
 154 566 l 1,5,-1
 70 566 l 1,6,-1
 59 703 l 1,7,8
 159 735 159 735 258.5 735 c 0,9,10
 358 735 358 735 408 691 c 128,-1,11
 458 647 458 647 458 582.5 c 0,12,13
 458 518 458 518 436.5 475 c 128,-1,14
 415 432 415 432 384 408.5 c 128,-1,15
 353 385 353 385 322 366 c 128,-1,16
 291 347 291 347 267.5 323.5 c 128,-1,17
 244 300 244 300 242 269 c 2,18,-1
 237 204 l 1,19,-1
 141 197 l 2,20,21
 141 198 141 198 136 237.5 c 128,-1,22
 131 277 131 277 131 306 c 0,23,24
 131 335 131 335 146 357 c 128,-1,25
 161 379 161 379 184 394 c 128,-1,26
 207 409 207 409 233.5 427.5 c 128,-1,27
 260 446 260 446 283 464 c 128,-1,28
 306 482 306 482 321 511.5 c 128,-1,29
 336 541 336 541 336 577 c 0,0,1
271 56 m 0,30,31
 271 -10 271 -10 192 -10 c 0,32,33
 153 -10 153 -10 134 4.5 c 128,-1,34
 115 19 115 19 115 56.5 c 0,35,36
 115 94 115 94 132.5 112.5 c 128,-1,37
 150 131 150 131 196 131 c 0,38,39
 242 131 242 131 256.5 113 c 128,-1,40
 271 95 271 95 271 56 c 0,30,31
EndSplineSet
EndChar

StartChar: at
Encoding: 64 64 21
Width: 817
Flags: HMW
HStem: -86 99<327 438 327 453.5> 103 98 384 87<410.5 422> 567 98<430 513.5>
VStem: 38 115<161 303.5> 224 108<228.5 269> 676 109<330.5 441>
LayerCount: 2
Fore
SplineSet
526 444 m 1,0,-1
 600 461 l 1,1,-1
 567 247 l 1,2,-1
 566.105117593 235.476657255 l 1,3,4
 566.105117593 218.160068633 566.105117593 218.160068633 574.030742462 209.580034317 c 128,-1,5
 581.956367331 201 581.956367331 201 592 201 c 0,6,7
 626 201 626 201 651 254 c 128,-1,8
 676 307 676 307 676 378 c 0,9,10
 676 468 676 468 612 517.5 c 128,-1,11
 548 567 548 567 445 567 c 128,-1,12
 342 567 342 567 284 530 c 1,13,14
 237 504 237 504 195 419 c 128,-1,15
 153 334 153 334 153 231.5 c 128,-1,16
 153 129 153 129 221 71 c 128,-1,17
 289 13 289 13 386 13 c 0,18,19
 530 13 530 13 685 78 c 1,20,-1
 725 17 l 1,21,22
 544 -86 544 -86 361 -86 c 0,23,24
 230 -86 230 -86 134 -1.5 c 128,-1,25
 38 83 38 83 38 218 c 0,26,27
 38 332 38 332 75 415.5 c 128,-1,28
 112 499 112 499 157 545 c 0,29,30
 273 665 273 665 465 665 c 0,31,32
 616 665 616 665 700.5 583 c 128,-1,33
 785 501 785 501 785 385 c 128,-1,34
 785 269 785 269 722.5 191 c 128,-1,35
 660 113 660 113 578 113 c 0,36,37
 530 113 530 113 496 170 c 1,38,39
 408 103 408 103 353.5 103 c 128,-1,40
 299 103 299 103 261.5 142.5 c 128,-1,41
 224 182 224 182 224 232.5 c 128,-1,42
 224 283 224 283 243 331.5 c 128,-1,43
 262 380 262 380 287 407 c 0,44,45
 346 471 346 471 430 471 c 0,46,47
 482 471 482 471 526 444 c 1,0,-1
478 252 m 1,48,-1
 493 364 l 1,49,50
 468 383 468 383 428 383.5 c 128,-1,51
 388 384 388 384 366 362 c 1,52,53
 332 323 332 323 332 250 c 0,54,55
 332 230 332 230 340.5 218.5 c 0,56,57
 352.695652174 202 352.695652174 202 372.847826087 202 c 128,-1,58
 393 202 393 202 425 218.5 c 128,-1,59
 457 235 457 235 478 252 c 1,48,-1
EndSplineSet
EndChar

StartChar: A
Encoding: 65 65 22
Width: 705
Flags: HMW
HStem: 0 21G<2 275 2 2 414 703 414 414> 218 98<264 420 264 455 231 420> 700 20G<290 409 409 409>
LayerCount: 2
Fore
SplineSet
82 132 m 2,0,-1
 290 720 l 1,1,-1
 409 720 l 1,2,-1
 621 132 l 2,3,4
 630 106 630 106 639 98 c 128,-1,5
 648 90 648 90 669 86 c 2,6,-1
 703 79 l 1,7,-1
 703 0 l 1,8,-1
 414 0 l 1,9,-1
 414 77 l 1,10,-1
 464 86 l 2,11,12
 491 90 491 90 491 107 c 0,13,14
 491 113 491 113 486 130 c 2,15,-1
 455 218 l 1,16,-1
 231 218 l 1,17,-1
 203 133 l 2,18,19
 198 118 198 118 198 110 c 0,20,21
 198 90 198 90 226 86 c 1,22,-1
 275 77 l 1,23,-1
 275 0 l 1,24,-1
 2 0 l 1,25,-1
 2 79 l 1,26,-1
 35 86 l 2,27,28
 55 90 55 90 64 98 c 128,-1,29
 73 106 73 106 82 132 c 2,0,-1
420 316 m 1,30,-1
 353 508 l 1,31,-1
 340 559 l 1,32,-1
 330 510 l 1,33,-1
 264 316 l 1,34,-1
 420 316 l 1,30,-1
EndSplineSet
EndChar

StartChar: B
Encoding: 66 66 23
Width: 650
Flags: HMW
HStem: 0 100<252 345 345 354> 320 98<252 310 252 310 310 324.5 252 340> 620 100<252 252 252 302>
VStem: 125 127<126 320 418 594 594 606.5> 426 134<508.5 567.5> 476 84 476 134<175.5 254.5>
LayerCount: 2
Fore
SplineSet
125 126 m 2,0,-1
 125 594 l 2,1,2
 125 613 125 613 119.5 620.5 c 128,-1,3
 114 628 114 628 96 632 c 2,4,-1
 48 641 l 1,5,-1
 48 720 l 1,6,-1
 320 720 l 2,7,8
 440 720 440 720 500 686 c 128,-1,9
 560 652 560 652 560 558 c 0,10,11
 560 489 560 489 524 440.5 c 128,-1,12
 488 392 488 392 447 382 c 1,13,14
 521 375 521 375 565.5 335.5 c 128,-1,15
 610 296 610 296 610 217 c 0,16,17
 610 116 610 116 541 58 c 128,-1,18
 472 0 472 0 354 0 c 2,19,-1
 48 0 l 1,20,-1
 48 79 l 1,21,-1
 96 88 l 2,22,23
 114 92 114 92 119.5 99.5 c 128,-1,24
 125 107 125 107 125 126 c 2,0,-1
252 620 m 1,25,-1
 252 418 l 1,26,-1
 310 418 l 2,27,28
 369 418 369 418 389 431 c 1,29,30
 426 452 426 452 426 529 c 0,31,32
 426 582 426 582 394 601 c 128,-1,33
 362 620 362 620 302 620 c 2,34,-1
 252 620 l 1,25,-1
252 320 m 1,35,-1
 252 100 l 1,36,-1
 345 100 l 2,37,38
 476 100 476 100 476 215 c 0,39,40
 476 320 476 320 340 320 c 2,41,-1
 252 320 l 1,35,-1
EndSplineSet
EndChar

StartChar: C
Encoding: 67 67 24
Width: 663
Flags: HMW
HStem: -10 108<307 415> 500 230<259.5 598 259.5 501> 625 105<318.5 380.5>
VStem: 39 137<279.5 393.5 279.5 457>
LayerCount: 2
Fore
SplineSet
592 140 m 1,0,-1
 619 51 l 1,1,2
 589 36 589 36 525 18 c 0,3,4
 425.444444444 -10 425.444444444 -10 354 -10 c 0,5,6
 39 -10 39 -10 39 352 c 0,7,8
 39 514.5 39 514.5 119 619.5 c 0,9,10
 159 672 159 672 225.5 701 c 128,-1,11
 292 730 292 730 366.5 730 c 128,-1,12
 441 730 441 730 493.5 719.5 c 128,-1,13
 546 709 546 709 614 673 c 1,14,-1
 598 500 l 1,15,-1
 501 500 l 1,16,-1
 480 605 l 1,17,18
 417 625 417 625 345 625 c 128,-1,19
 273 625 273 625 232 591 c 0,20,21
 207 570 207 570 191.5 495.5 c 128,-1,22
 176 421 176 421 176 359 c 0,23,24
 176 237 176 237 226 167.5 c 128,-1,25
 276 98 276 98 375 98 c 128,-1,26
 474 98 474 98 592 140 c 1,0,-1
EndSplineSet
EndChar

StartChar: D
Encoding: 68 68 25
Width: 727
Flags: HMW
HStem: 0 102<252 353 353 363> 618 102<252 353 252 252>
VStem: 125 127<129 598 598 610.5> 551 137<274 465.5>
LayerCount: 2
Fore
SplineSet
503.5 165 m 128,-1,1
 551 228 551 228 551 368.5 c 128,-1,2
 551 509 551 509 504.5 563.5 c 128,-1,3
 458 618 458 618 353 618 c 2,4,-1
 252 618 l 1,5,-1
 252 102 l 1,6,-1
 353 102 l 2,7,0
 456 102 456 102 503.5 165 c 128,-1,1
48 720 m 1,8,-1
 363 720 l 2,9,10
 534 720 534 720 611 630 c 128,-1,11
 688 540 688 540 688 372.5 c 128,-1,12
 688 205 688 205 607 102.5 c 128,-1,13
 526 0 526 0 363 0 c 2,14,-1
 48 0 l 1,15,-1
 48 80 l 1,16,-1
 96 89 l 2,17,18
 114 93 114 93 119.5 101 c 128,-1,19
 125 109 125 109 125 129 c 2,20,-1
 125 598 l 2,21,22
 125 618 125 618 119.5 627 c 128,-1,23
 114 636 114 636 96 638 c 2,24,-1
 48 644 l 1,25,-1
 48 720 l 1,8,-1
EndSplineSet
EndChar

StartChar: E
Encoding: 69 69 26
Width: 633
Flags: HMW
HStem: 0 104<252 440 440 452 252 579> 0 203<485 572 485 579> 322 104<252 463 252 463> 522 198<484 568 484 484> 616 104<252 439 252 252>
VStem: 125 127<127 322 426 598 598 610.5>
LayerCount: 2
Fore
SplineSet
579 0 m 1,0,-1
 48 0 l 1,1,-1
 48 80 l 1,2,-1
 96 89 l 2,3,4
 114 93 114 93 119.5 100.5 c 128,-1,5
 125 108 125 108 125 127 c 2,6,-1
 125 598 l 2,7,8
 125 618 125 618 119.5 627 c 128,-1,9
 114 636 114 636 96 638 c 2,10,-1
 48 644 l 1,11,-1
 48 720 l 1,12,-1
 575 720 l 1,13,-1
 568 522 l 1,14,-1
 484 522 l 1,15,-1
 477 587 l 2,16,17
 475 605 475 605 466.5 610.5 c 128,-1,18
 458 616 458 616 439 616 c 2,19,-1
 252 616 l 1,20,-1
 252 426 l 1,21,-1
 463 426 l 1,22,-1
 463 322 l 1,23,-1
 252 322 l 1,24,-1
 252 104 l 1,25,-1
 440 104 l 2,26,27
 459 104 459 104 468 109.5 c 128,-1,28
 477 115 477 115 478 133 c 2,29,-1
 485 203 l 1,30,-1
 572 203 l 1,31,-1
 579 0 l 1,0,-1
EndSplineSet
EndChar

StartChar: F
Encoding: 70 70 27
Width: 577
Flags: HMW
HStem: 0 21G<48 348 48 48> 315 104<252 443 252 443> 621 99<252 429 252 252>
VStem: 125 127<126 315 419 602 602 613.5>
LayerCount: 2
Fore
SplineSet
48 720 m 1,0,-1
 565 720 l 1,1,-1
 558 527 l 1,2,-1
 474 527 l 1,3,-1
 467 592 l 2,4,5
 465 610 465 610 456.5 615.5 c 128,-1,6
 448 621 448 621 429 621 c 2,7,-1
 252 621 l 1,8,-1
 252 419 l 1,9,-1
 443 419 l 1,10,-1
 443 315 l 1,11,-1
 252 315 l 1,12,-1
 252 126 l 2,13,14
 252 106 252 106 258 98 c 128,-1,15
 264 90 264 90 282 88 c 2,16,-1
 348 80 l 1,17,-1
 348 0 l 1,18,-1
 48 0 l 1,19,-1
 48 79 l 1,20,-1
 96 88 l 2,21,22
 114 92 114 92 119.5 99.5 c 128,-1,23
 125 107 125 107 125 126 c 2,24,-1
 125 602 l 2,25,26
 125 620 125 620 119 628 c 128,-1,27
 113 636 113 636 96 638 c 2,28,-1
 48 644 l 1,29,-1
 48 720 l 1,0,-1
EndSplineSet
EndChar

StartChar: G
Encoding: 71 71 28
Width: 722
Flags: HMW
HStem: -10 106<302 392.5 302 413> 500 230<259.5 610 259.5 513> 625 105<318.5 383>
VStem: 39 137<285.5 394.5 285.5 457> 493 124<116 212 212 214 51 224.5>
LayerCount: 2
Fore
SplineSet
176 359 m 0,0,1
 176 242 176 242 224.5 169 c 128,-1,2
 273 96 273 96 370 96 c 0,3,4
 438 96 438 96 493 116 c 1,5,-1
 493 212 l 2,6,7
 493 231 493 231 487.5 239 c 128,-1,8
 482 247 482 247 464 250 c 2,9,-1
 412 259 l 1,10,-1
 412 338 l 1,11,-1
 678 338 l 1,12,-1
 678 259 l 1,13,-1
 644 252 l 2,14,15
 625 248 625 248 621 241.5 c 128,-1,16
 617 235 617 235 617 214 c 2,17,-1
 617 51 l 1,18,19
 471 -10 471 -10 355 -10 c 0,20,21
 191 -10 191 -10 115 82 c 128,-1,22
 39 174 39 174 39 352 c 0,23,24
 39 514.5 39 514.5 119 619.5 c 0,25,26
 159 672 159 672 225.5 701 c 128,-1,27
 292 730 292 730 368 730 c 128,-1,28
 444 730 444 730 499.5 719.5 c 128,-1,29
 555 709 555 709 626 673 c 1,30,-1
 610 500 l 1,31,-1
 513 500 l 1,32,-1
 492 600 l 1,33,34
 427 625 427 625 350 625 c 128,-1,35
 273 625 273 625 232 591 c 0,36,37
 207 570 207 570 191.5 496 c 128,-1,38
 176 422 176 422 176 359 c 0,0,1
EndSplineSet
EndChar

StartChar: H
Encoding: 72 72 29
Width: 792
Flags: HMW
HStem: 0 21G<48 334 48 48 458 744 458 458> 326 102<252 540 252 540> 700 20G<48 334 334 334 458 744 744 744>
VStem: 125 127<126 326 428 594> 540 127<126 326 326 326 428 594>
LayerCount: 2
Fore
SplineSet
667 594 m 2,0,-1
 667 126 l 2,1,2
 667 107 667 107 672.5 99.5 c 128,-1,3
 678 92 678 92 696 88 c 2,4,-1
 744 79 l 1,5,-1
 744 0 l 1,6,-1
 458 0 l 1,7,-1
 458 79 l 1,8,-1
 511 88 l 2,9,10
 529 91 529 91 534.5 98.5 c 128,-1,11
 540 106 540 106 540 126 c 2,12,-1
 540 326 l 1,13,-1
 252 326 l 1,14,-1
 252 126 l 2,15,16
 252 106 252 106 257.5 98.5 c 128,-1,17
 263 91 263 91 281 88 c 2,18,-1
 334 79 l 1,19,-1
 334 0 l 1,20,-1
 48 0 l 1,21,-1
 48 79 l 1,22,-1
 96 88 l 2,23,24
 114 92 114 92 119.5 99.5 c 128,-1,25
 125 107 125 107 125 126 c 2,26,-1
 125 594 l 2,27,28
 125 613 125 613 119.5 620.5 c 128,-1,29
 114 628 114 628 96 632 c 2,30,-1
 48 641 l 1,31,-1
 48 720 l 1,32,-1
 334 720 l 1,33,-1
 334 641 l 1,34,-1
 281 632 l 2,35,36
 263 629 263 629 257.5 621.5 c 128,-1,37
 252 614 252 614 252 594 c 2,38,-1
 252 428 l 1,39,-1
 540 428 l 1,40,-1
 540 594 l 2,41,42
 540 614 540 614 534.5 621.5 c 128,-1,43
 529 629 529 629 511 632 c 2,44,-1
 458 641 l 1,45,-1
 458 720 l 1,46,-1
 744 720 l 1,47,-1
 744 641 l 1,48,-1
 696 632 l 2,49,50
 678 628 678 628 672.5 620.5 c 128,-1,51
 667 613 667 613 667 594 c 2,0,-1
EndSplineSet
EndChar

StartChar: I
Encoding: 73 73 30
Width: 377
Flags: HMW
HStem: 0 21G<48 329 48 48> 700 20G<48 329 329 329>
VStem: 125 127<126 594>
LayerCount: 2
Fore
SplineSet
329 79 m 1,0,-1
 329 0 l 1,1,-1
 48 0 l 1,2,-1
 48 79 l 1,3,-1
 96 88 l 2,4,5
 114 92 114 92 119.5 99.5 c 128,-1,6
 125 107 125 107 125 126 c 2,7,-1
 125 594 l 2,8,9
 125 613 125 613 119.5 620.5 c 128,-1,10
 114 628 114 628 96 632 c 2,11,-1
 48 641 l 1,12,-1
 48 720 l 1,13,-1
 329 720 l 1,14,-1
 329 641 l 1,15,-1
 281 632 l 2,16,17
 263 628 263 628 257.5 620.5 c 128,-1,18
 252 613 252 613 252 594 c 2,19,-1
 252 126 l 2,20,21
 252 107 252 107 257.5 99.5 c 128,-1,22
 263 92 263 92 281 88 c 2,23,-1
 329 79 l 1,0,-1
EndSplineSet
EndChar

StartChar: J
Encoding: 74 74 31
Width: 349
Flags: HMW
HStem: -156 21G<25 25> 700 20G<41 322 322 322>
VStem: 118 127<179 594>
LayerCount: 2
Fore
SplineSet
25 -156 m 1,0,-1
 -35 -75 l 1,1,2
 63 -14 63 -14 90.5 31 c 128,-1,3
 118 76 118 76 118 179 c 2,4,-1
 118 594 l 2,5,6
 118 613 118 613 112.5 620.5 c 128,-1,7
 107 628 107 628 89 632 c 2,8,-1
 41 641 l 1,9,-1
 41 720 l 1,10,-1
 322 720 l 1,11,-1
 322 641 l 1,12,-1
 274 632 l 2,13,14
 256 628 256 628 250.5 620.5 c 128,-1,15
 245 613 245 613 245 594 c 2,16,-1
 245 148 l 2,17,18
 245 101 245 101 242 69 c 128,-1,19
 239 37 239 37 227.5 9 c 128,-1,20
 216 -19 216 -19 203 -37 c 128,-1,21
 190 -55 190 -55 161 -76.5 c 0,22,23
 117.097810219 -109.048175182 117.097810219 -109.048175182 25 -156 c 1,0,-1
EndSplineSet
EndChar

StartChar: K
Encoding: 75 75 32
Width: 697
Flags: HMW
HStem: -10 21G<560 616> 0 94 700 20G<48 333 333 333 589 654 654 654>
VStem: 125 127<126 378 410 594>
LayerCount: 2
Fore
SplineSet
562 601 m 2,0,-1
 379 401 l 1,1,-1
 548 168 l 2,2,3
 580 123 580 123 600.5 108.5 c 128,-1,4
 621 94 621 94 646.5 94 c 128,-1,5
 672 94 672 94 695 104 c 1,6,-1
 687 12 l 1,7,8
 651 -10 651 -10 599 -10 c 128,-1,9
 547 -10 547 -10 512.5 16.5 c 128,-1,10
 478 43 478 43 442 97 c 2,11,-1
 252 378 l 1,12,-1
 252 126 l 2,13,14
 252 106 252 106 257.5 98.5 c 128,-1,15
 263 91 263 91 281 88 c 2,16,-1
 333 79 l 1,17,-1
 333 0 l 1,18,-1
 48 0 l 1,19,-1
 48 79 l 1,20,-1
 96 88 l 2,21,22
 114 92 114 92 119.5 99.5 c 128,-1,23
 125 107 125 107 125 126 c 2,24,-1
 125 594 l 2,25,26
 125 613 125 613 119.5 620.5 c 128,-1,27
 114 628 114 628 96 632 c 2,28,-1
 48 641 l 1,29,-1
 48 720 l 1,30,-1
 333 720 l 1,31,-1
 333 641 l 1,32,-1
 281 632 l 2,33,34
 263 629 263 629 257.5 621.5 c 128,-1,35
 252 614 252 614 252 594 c 2,36,-1
 252 410 l 1,37,-1
 490 676 l 1,38,39
 528 720 528 720 589 720 c 2,40,-1
 654 720 l 1,41,-1
 654 632 l 1,42,43
 630 632 630 632 618.5 631 c 0,44,45
 587.482649842 628.302839117 587.482649842 628.302839117 562 601 c 2,0,-1
EndSplineSet
EndChar

StartChar: L
Encoding: 76 76 33
Width: 557
Flags: HMW
HStem: 0 203<452 538 452 545> 700 20G<48 336 336 336>
VStem: 125 127<126 594 104 606.5>
LayerCount: 2
Fore
SplineSet
545 0 m 1,0,-1
 48 0 l 1,1,-1
 48 79 l 1,2,-1
 96 88 l 2,3,4
 114 92 114 92 119.5 99.5 c 128,-1,5
 125 107 125 107 125 126 c 2,6,-1
 125 594 l 2,7,8
 125 613 125 613 119.5 620.5 c 128,-1,9
 114 628 114 628 96 632 c 2,10,-1
 48 641 l 1,11,-1
 48 720 l 1,12,-1
 336 720 l 1,13,-1
 336 641 l 1,14,-1
 281 632 l 2,15,16
 263 629 263 629 257.5 621.5 c 128,-1,17
 252 614 252 614 252 594 c 2,18,-1
 252 104 l 1,19,-1
 407 104 l 2,20,21
 426 104 426 104 435 109.5 c 128,-1,22
 444 115 444 115 445 133 c 2,23,-1
 452 203 l 1,24,-1
 538 203 l 1,25,-1
 545 0 l 1,0,-1
EndSplineSet
EndChar

StartChar: M
Encoding: 77 77 34
Width: 975
Flags: HMW
HStem: 0 21G<31 298 31 31 427 427 427 543 666 666 666 952> 700 20G<71 302 302 302 668 908 908 908>
LayerCount: 2
Fore
SplineSet
263 461 m 1,0,-1
 243 525 l 1,1,-1
 243 460 l 1,2,-1
 221 119 l 2,3,4
 220 89 220 89 251 85 c 2,5,-1
 298 79 l 1,6,-1
 298 0 l 1,7,-1
 31 0 l 1,8,-1
 31 79 l 1,9,-1
 79 88 l 2,10,11
 97 92 97 92 101.5 98.5 c 128,-1,12
 106 105 106 105 108 125 c 2,13,-1
 148 605 l 2,14,15
 151 631 151 631 118 635 c 2,16,-1
 71 641 l 1,17,-1
 71 720 l 1,18,-1
 302 720 l 1,19,-1
 481 210 l 1,20,-1
 492 158 l 1,21,-1
 502 210 l 1,22,-1
 668 720 l 1,23,-1
 908 720 l 1,24,-1
 908 641 l 1,25,-1
 857 635 l 2,26,27
 832.479470736 631.801670096 832.479470736 631.801670096 827.609925443 619.541207505 c 0,28,29
 825.75057571 614.85976674 825.75057571 614.85976674 825.75057571 610.301716963 c 128,-1,30
 825.75057571 605.743667186 825.75057571 605.743667186 826 603 c 2,31,-1
 869 125 l 2,32,33
 871 105 871 105 875.5 98 c 128,-1,34
 880 91 880 91 898 88 c 2,35,-1
 952 79 l 1,36,-1
 952 0 l 1,37,-1
 666 0 l 1,38,-1
 666 79 l 1,39,-1
 715 85 l 2,40,41
 747 89 747 89 744 117 c 2,42,-1
 716 460 l 1,43,-1
 714 525 l 1,44,-1
 699 463 l 1,45,-1
 543 0 l 1,46,-1
 427 0 l 1,47,-1
 263 461 l 1,0,-1
EndSplineSet
EndChar

StartChar: N
Encoding: 78 78 35
Width: 802
Flags: HMW
HStem: 0 21G<48 329 48 48 559 691 559 559> 700 20G<49 257 257 257 489 767 767 767>
VStem: 125 127<126 491> 564 127<229 595 0 607.5>
LayerCount: 2
Fore
SplineSet
49 720 m 1,0,-1
 257 720 l 1,1,-1
 564 229 l 1,2,-1
 564 595 l 2,3,4
 564 615 564 615 559 624 c 128,-1,5
 554 633 554 633 536 635 c 2,6,-1
 489 641 l 1,7,-1
 489 720 l 1,8,-1
 767 720 l 1,9,-1
 767 641 l 1,10,-1
 720 635 l 2,11,12
 702 633 702 633 696.5 624 c 128,-1,13
 691 615 691 615 691 595 c 2,14,-1
 691 0 l 1,15,-1
 559 0 l 1,16,-1
 252 491 l 1,17,-1
 252 126 l 2,18,19
 252 106 252 106 257.5 98 c 128,-1,20
 263 90 263 90 281 88 c 1,21,-1
 329 79 l 1,22,-1
 329 0 l 1,23,-1
 48 0 l 1,24,-1
 48 79 l 1,25,-1
 96 88 l 2,26,27
 114 91 114 91 119.5 98.5 c 128,-1,28
 125 106 125 106 125 126 c 2,29,-1
 125 595 l 2,30,31
 125 615 125 615 119.5 624 c 128,-1,32
 114 633 114 633 96 635 c 2,33,-1
 49 641 l 1,34,-1
 49 720 l 1,0,-1
EndSplineSet
EndChar

StartChar: O
Encoding: 79 79 36
Width: 741
Flags: HMW
HStem: -10 104<315.5 410.5 315.5 475.5> 626 104<330.5 425.5>
VStem: 39 137<273 397 273 455> 565 137<323 447>
LayerCount: 2
Fore
SplineSet
621.5 104 m 0,0,1
 581 51 581 51 510.5 20.5 c 128,-1,2
 440 -10 440 -10 347 -10 c 0,3,4
 187 -10 187 -10 113 89 c 128,-1,5
 39 188 39 188 39 360 c 0,6,7
 39 510.654320988 39 510.654320988 119.5 616 c 0,8,9
 160 669 160 669 230.5 699.5 c 128,-1,10
 301 730 301 730 394 730 c 0,11,12
 554 730 554 730 628 631 c 128,-1,13
 702 532 702 532 702 370.672839506 c 128,-1,14
 702 209.345679012 702 209.345679012 621.5 104 c 0,0,1
511.5 557.5 m 128,-1,16
 458 626 458 626 364.5 626 c 128,-1,17
 271 626 271 626 233 591 c 0,18,19
 206 566 206 566 191 495.5 c 128,-1,20
 176 425 176 425 176 354 c 0,21,22
 176 231 176 231 229.5 162.5 c 128,-1,23
 283 94 283 94 377.5 94 c 128,-1,24
 472 94 472 94 508 129 c 0,25,26
 534 154 534 154 549.5 225 c 128,-1,27
 565 296 565 296 565 366 c 0,28,15
 565 489 565 489 511.5 557.5 c 128,-1,16
EndSplineSet
EndChar

StartChar: P
Encoding: 80 80 37
Width: 582
Flags: HMW
HStem: 0 21G<48 348 48 48> 274 100<252 306 306 309 252 306> 620 100<252 252 252 313>
VStem: 125 127<126 274 374 594 594 606.5> 433 137<485.5 559.5>
LayerCount: 2
Fore
SplineSet
252 620 m 1,0,-1
 252 374 l 1,1,-1
 306 374 l 2,2,3
 374 374 374 374 399 395 c 0,4,5
 433 424 433 424 433 519 c 0,6,7
 433 620 433 620 313 620 c 2,8,-1
 252 620 l 1,0,-1
125 126 m 2,9,-1
 125 594 l 2,10,11
 125 613 125 613 119.5 620.5 c 128,-1,12
 114 628 114 628 96 632 c 2,13,-1
 48 641 l 1,14,-1
 48 720 l 1,15,-1
 322 720 l 2,16,17
 444 720 444 720 507 679.5 c 128,-1,18
 570 639 570 639 570 527.5 c 0,19,20
 570 416 570 416 491 345 c 128,-1,21
 412 274 412 274 309 274 c 2,22,-1
 252 274 l 1,23,-1
 252 126 l 2,24,25
 252 106 252 106 258 98 c 128,-1,26
 264 90 264 90 282 88 c 2,27,-1
 348 80 l 1,28,-1
 348 0 l 1,29,-1
 48 0 l 1,30,-1
 48 79 l 1,31,-1
 96 88 l 2,32,33
 114 92 114 92 119.5 99.5 c 128,-1,34
 125 107 125 107 125 126 c 2,9,-1
EndSplineSet
EndChar

StartChar: Q
Encoding: 81 81 38
Width: 741
Flags: HMW
HStem: -210 106<580.5 619> -149 45 -149 100<311.5 363.5> -10 104<315.5 410.5 315.5 475.5> 626 104<330.5 425.5>
VStem: 39 137<273 397 273 455> 565 137<323 447>
LayerCount: 2
Fore
SplineSet
239 -162 m 1,0,-1
 209 -82 l 1,1,2
 275 -49 275 -49 338 -49 c 128,-1,3
 401 -49 401 -49 493.5 -76.5 c 128,-1,4
 586 -104 586 -104 620 -104 c 128,-1,5
 654 -104 654 -104 700 -82 c 1,6,-1
 722 -159 l 1,7,8
 669 -210 669 -210 598 -210 c 0,9,10
 548 -210 548 -210 455.5 -179.5 c 128,-1,11
 363 -149 363 -149 314 -149 c 0,12,13
 291 -149 291 -149 239 -162 c 1,0,-1
621.5 104 m 0,14,15
 581 51 581 51 510.5 20.5 c 128,-1,16
 440 -10 440 -10 347 -10 c 0,17,18
 187 -10 187 -10 113 89 c 128,-1,19
 39 188 39 188 39 360 c 0,20,21
 39 510.654320988 39 510.654320988 119.5 616 c 0,22,23
 160 669 160 669 230.5 699.5 c 128,-1,24
 301 730 301 730 394 730 c 0,25,26
 554 730 554 730 628 631 c 128,-1,27
 702 532 702 532 702 370.672839506 c 128,-1,28
 702 209.345679012 702 209.345679012 621.5 104 c 0,14,15
511.5 557.5 m 128,-1,30
 458 626 458 626 364.5 626 c 128,-1,31
 271 626 271 626 233 591 c 0,32,33
 206 566 206 566 191 495.5 c 128,-1,34
 176 425 176 425 176 354 c 0,35,36
 176 231 176 231 229.5 162.5 c 128,-1,37
 283 94 283 94 377.5 94 c 128,-1,38
 472 94 472 94 508 129 c 0,39,40
 534 154 534 154 549.5 225 c 128,-1,41
 565 296 565 296 565 366 c 0,42,29
 565 489 565 489 511.5 557.5 c 128,-1,30
EndSplineSet
EndChar

StartChar: R
Encoding: 82 82 39
Width: 671
Flags: HMW
HStem: -10 21G<537 590.5> 0 94 620 100<252 252 252 312>
VStem: 125 127<126 307 407 594 594 606.5> 429 137<501.5 563>
LayerCount: 2
Fore
SplineSet
252 620 m 1,0,-1
 252 407 l 1,1,-1
 321 407 l 2,2,3
 379 407 379 407 399 423 c 0,4,5
 429 448 429 448 429 530 c 0,6,7
 429 620 429 620 312 620 c 2,8,-1
 252 620 l 1,0,-1
252 307 m 1,9,-1
 252 126 l 2,10,11
 252 106 252 106 258 98 c 128,-1,12
 264 90 264 90 282 88 c 2,13,-1
 338 80 l 1,14,-1
 338 0 l 1,15,-1
 48 0 l 1,16,-1
 48 79 l 1,17,-1
 96 88 l 1,18,19
 114 90 114 90 119.5 98 c 128,-1,20
 125 106 125 106 125 126 c 2,21,-1
 125 594 l 2,22,23
 125 614 125 614 119.5 621.5 c 128,-1,24
 114 629 114 629 96 632 c 2,25,-1
 48 641 l 1,26,-1
 48 720 l 1,27,-1
 327 720 l 2,28,29
 443 720 443 720 504.5 679 c 128,-1,30
 566 638 566 638 566 540 c 0,31,32
 566 484 566 484 549 442.5 c 128,-1,33
 532 401 532 401 505 378.5 c 0,34,35
 457 338.5 457 338.5 406 330 c 1,36,37
 440 325 440 325 459 293 c 2,38,-1
 545 152 l 2,39,40
 580 94 580 94 623 94 c 0,41,42
 653 94 653 94 669 102 c 1,43,-1
 659 12 l 1,44,45
 619 -10 619 -10 565 -10 c 0,46,47
 493 -10 493 -10 443 74 c 2,48,-1
 324 272 l 1,49,50
 301 307 301 307 280 307 c 2,51,-1
 252 307 l 1,9,-1
EndSplineSet
EndChar

StartChar: S
Encoding: 83 83 40
Width: 580
Flags: HMW
HStem: -10 96<260 322.5 260 356> -10 217<55 356> 537 192<209.5 496 209.5 399> 636 93<244.5 294.5>
VStem: 48 132<525 580.5 525 594.5> 412 129<150.5 208>
LayerCount: 2
Fore
SplineSet
155 207 m 1,0,-1
 168 116 l 1,1,2
 223 86 223 86 282.5 86 c 128,-1,3
 342 86 342 86 377 111.5 c 128,-1,4
 412 137 412 137 412 179.5 c 128,-1,5
 412 222 412 222 391.5 245 c 128,-1,6
 371 268 371 268 309 291 c 2,7,-1
 187 337 l 2,8,9
 48 390 48 390 48 539 c 0,10,11
 48 625 48 625 110 677 c 128,-1,12
 172 729 172 729 279.5 729 c 128,-1,13
 387 729 387 729 510 702 c 1,14,-1
 496 537 l 1,15,-1
 399 537 l 1,16,-1
 384 616 l 1,17,18
 334 636 334 636 276 636 c 0,19,20
 180 636 180 636 180 551 c 0,21,22
 180 475 180 475 272 441 c 1,23,-1
 357 411 l 2,24,25
 435.745308311 382.876675603 435.745308311 382.876675603 483.5 343.5 c 0,26,27
 541 296.087719298 541 296.087719298 541 201.043859649 c 128,-1,28
 541 106 541 106 469.5 48 c 128,-1,29
 398 -10 398 -10 266 -10 c 0,30,31
 175.066666667 -10 175.066666667 -10 112 11.5 c 0,32,33
 90 19 90 19 43 36 c 1,34,-1
 55 207 l 1,35,-1
 155 207 l 1,0,-1
EndSplineSet
EndChar

StartChar: T
Encoding: 84 84 41
Width: 627
Flags: HMW
HStem: 0 21G<169 458 169 169> 523 197<19 103 19 19 524 524 524 608> 620 100<135.5 147 147 250 377 479 377 377>
VStem: 250 127<126 620>
LayerCount: 2
Fore
SplineSet
479 620 m 2,0,-1
 377 620 l 1,1,-1
 377 126 l 2,2,3
 377 106 377 106 382.5 98.5 c 128,-1,4
 388 91 388 91 406 88 c 2,5,-1
 458 79 l 1,6,-1
 458 0 l 1,7,-1
 169 0 l 1,8,-1
 169 79 l 1,9,-1
 221 88 l 2,10,11
 239 91 239 91 244.5 98.5 c 128,-1,12
 250 106 250 106 250 126 c 2,13,-1
 250 620 l 1,14,-1
 147 620 l 2,15,16
 128 620 128 620 120 614.5 c 128,-1,17
 112 609 112 609 110 591 c 2,18,-1
 103 523 l 1,19,-1
 19 523 l 1,20,-1
 12 720 l 1,21,-1
 615 720 l 1,22,-1
 608 523 l 1,23,-1
 524 523 l 1,24,-1
 517 591 l 2,25,26
 515 609 515 609 506.5 614.5 c 128,-1,27
 498 620 498 620 479 620 c 2,0,-1
EndSplineSet
EndChar

StartChar: U
Encoding: 85 85 42
Width: 725
Flags: HMW
HStem: -10 105<342.5 399 342.5 417.5> 700 20G<18 299 299 299 430 707 707 707>
VStem: 95 127<232 248 248 594> 507 123<256 594>
LayerCount: 2
Fore
SplineSet
630 594 m 2,0,-1
 630 232 l 2,1,2
 630 181 630 181 613.5 139 c 128,-1,3
 597 97 597 97 570 70 c 128,-1,4
 543 43 543 43 506.5 24.5 c 0,5,6
 438.432432432 -10 438.432432432 -10 352 -10 c 0,7,8
 226 -10 226 -10 160.5 52.5 c 128,-1,9
 95 115 95 115 95 232 c 2,10,-1
 95 594 l 2,11,12
 95 614 95 614 89.5 621.5 c 128,-1,13
 84 629 84 629 66 632 c 2,14,-1
 18 641 l 1,15,-1
 18 720 l 1,16,-1
 299 720 l 1,17,-1
 299 641 l 1,18,-1
 251 632 l 1,19,20
 233 630 233 630 227.5 622 c 128,-1,21
 222 614 222 614 222 594 c 2,22,-1
 222 248 l 2,23,24
 222 165 222 165 267.5 130 c 128,-1,25
 313 95 313 95 380 95 c 128,-1,26
 447 95 447 95 477 119 c 128,-1,27
 507 143 507 143 507 256 c 2,28,-1
 507 594 l 2,29,30
 507 614 507 614 501.5 621.5 c 128,-1,31
 496 629 496 629 478 632 c 2,32,-1
 430 641 l 1,33,-1
 430 720 l 1,34,-1
 707 720 l 1,35,-1
 707 641 l 1,36,-1
 659 632 l 1,37,38
 641 630 641 630 635.5 622 c 128,-1,39
 630 614 630 614 630 594 c 2,0,-1
EndSplineSet
EndChar

StartChar: V
Encoding: 86 86 43
Width: 701
Flags: HMW
HStem: 0 21G<305 424 305 305> 700 20G<2 303 303 303 421 699 699 699>
LayerCount: 2
Fore
SplineSet
372 159 m 1,0,-1
 379 211 l 1,1,-1
 496 594 l 2,2,3
 500 608 500 608 500 613 c 0,4,5
 500 632 500 632 469 636 c 2,6,-1
 421 642 l 1,7,-1
 421 720 l 1,8,-1
 699 720 l 1,9,-1
 699 641 l 1,10,-1
 667 637 l 2,11,12
 646 635 646 635 637 627.5 c 128,-1,13
 628 620 628 620 619 594 c 2,14,-1
 424 0 l 1,15,-1
 305 0 l 1,16,-1
 91 594 l 2,17,18
 82 618 82 618 69 626 c 128,-1,19
 56 634 56 634 32 637 c 2,20,-1
 2 641 l 1,21,-1
 2 720 l 1,22,-1
 303 720 l 1,23,-1
 303 642 l 1,24,-1
 255 636 l 2,25,26
 226 632 226 632 226 615 c 0,27,28
 226 609 226 609 231 594 c 2,29,-1
 361 212 l 1,30,-1
 372 159 l 1,0,-1
EndSplineSet
EndChar

StartChar: W
Encoding: 87 87 44
Width: 981
Flags: HMW
HStem: 0 21G<248 381 248 248 621 621 621 754> 700 20G<2 302 302 302 709 979 979 979>
LayerCount: 2
Fore
SplineSet
508 397 m 1,0,-1
 499 447 l 1,1,-1
 491 397 l 1,2,-1
 381 0 l 1,3,-1
 248 0 l 1,4,-1
 91 594 l 2,5,6
 85 618 85 618 72 626 c 128,-1,7
 59 634 59 634 36 637 c 2,8,-1
 2 641 l 1,9,-1
 2 720 l 1,10,-1
 302 720 l 1,11,-1
 302 642 l 1,12,-1
 250 636 l 2,13,14
 221 633 221 633 221 614 c 0,15,16
 221 606 221 606 224 594 c 2,17,-1
 315 238 l 1,18,-1
 324 186 l 1,19,-1
 334 237 l 1,20,-1
 443 636 l 1,21,-1
 573 636 l 1,22,-1
 685 236 l 1,23,-1
 694 186 l 1,24,-1
 703 238 l 1,25,-1
 789 594 l 2,26,27
 791 606 791 606 791 609 c 0,28,29
 791 632 791 632 757 636 c 2,30,-1
 709 642 l 1,31,-1
 709 720 l 1,32,-1
 979 720 l 1,33,-1
 979 641 l 1,34,-1
 949 637 l 2,35,36
 928 635 928 635 919 627 c 128,-1,37
 910 619 910 619 904 594 c 2,38,-1
 754 0 l 1,39,-1
 621 0 l 1,40,-1
 508 397 l 1,0,-1
EndSplineSet
EndChar

StartChar: X
Encoding: 88 88 45
Width: 727
Flags: HMW
HStem: 0 21G<4 295 4 4 409 723 409 409> 700 20G<26 320 320 320 427 701 701 701>
LayerCount: 2
Fore
SplineSet
280 380 m 1,0,-1
 122 594 l 2,1,2
 119 598 119 598 114 605 c 128,-1,3
 109 612 109 612 107 614.5 c 128,-1,4
 105 617 105 617 101.5 621.5 c 128,-1,5
 98 626 98 626 95.5 627.5 c 128,-1,6
 93 629 93 629 89.5 631.5 c 0,7,8
 83.2 636 83.2 636 73 636 c 1,9,-1
 26 641 l 1,10,-1
 26 720 l 1,11,-1
 320 720 l 1,12,-1
 320 642 l 1,13,-1
 283 636 l 2,14,15
 262 633 262 633 262 623 c 128,-1,16
 262 613 262 613 276 594 c 2,17,-1
 377 457 l 1,18,-1
 465 594 l 2,19,20
 479 615 479 615 479 624 c 128,-1,21
 479 633 479 633 460 636 c 2,22,-1
 427 642 l 1,23,-1
 427 720 l 1,24,-1
 701 720 l 1,25,-1
 701 641 l 1,26,-1
 655 636 l 2,27,28
 636 634 636 634 624.5 625.5 c 128,-1,29
 613 617 613 617 598 594 c 2,30,-1
 445 366 l 1,31,-1
 623 126 l 2,32,33
 653 86 653 86 676 84 c 2,34,-1
 723 79 l 1,35,-1
 723 0 l 1,36,-1
 409 0 l 1,37,-1
 409 78 l 1,38,-1
 451 84 l 2,39,40
 479 88 479 88 479 104 c 0,41,42
 479 113 479 113 469 126 c 2,43,-1
 347 290 l 1,44,-1
 243 126 l 2,45,46
 231 107 231 107 231 99 c 0,47,48
 231 87 231 87 252 84 c 2,49,-1
 295 78 l 1,50,-1
 295 0 l 1,51,-1
 4 0 l 1,52,-1
 4 79 l 1,53,-1
 50 84 l 2,54,55
 69 86 69 86 81 95 c 128,-1,56
 93 104 93 104 108 126 c 2,57,-1
 280 380 l 1,0,-1
EndSplineSet
EndChar

StartChar: Y
Encoding: 89 89 46
Width: 700
Flags: HMW
HStem: 0 21G<204 493 204 204> 700 20G<2 299 299 299 414 698 698 698>
VStem: 285 127<126 238 113.5 248 113.5 248>
LayerCount: 2
Fore
SplineSet
604 594 m 2,0,-1
 412 238 l 1,1,-1
 412 126 l 2,2,3
 412 106 412 106 417.5 98.5 c 128,-1,4
 423 91 423 91 441 88 c 2,5,-1
 493 79 l 1,6,-1
 493 0 l 1,7,-1
 204 0 l 1,8,-1
 204 79 l 1,9,-1
 256 88 l 2,10,11
 274 91 274 91 279.5 98.5 c 128,-1,12
 285 106 285 106 285 126 c 2,13,-1
 285 248 l 1,14,-1
 96 594 l 2,15,16
 84 616 84 616 74 625 c 128,-1,17
 64 634 64 634 46 636 c 2,18,-1
 2 641 l 1,19,-1
 2 720 l 1,20,-1
 299 720 l 1,21,-1
 299 642 l 1,22,-1
 264 636 l 2,23,24
 231 631 231 631 231 617 c 0,25,26
 231 612 231 612 240 594 c 2,27,-1
 361 360 l 1,28,-1
 477 594 l 2,29,30
 484 607 484 607 484 615.5 c 0,31,32
 484 624 484 624 476.5 628 c 128,-1,33
 469 632 469 632 449 635 c 2,34,-1
 414 641 l 1,35,-1
 414 720 l 1,36,-1
 698 720 l 1,37,-1
 698 641 l 1,38,-1
 654 636 l 1,39,40
 633 632 633 632 625 624.5 c 128,-1,41
 617 617 617 617 604 594 c 2,0,-1
EndSplineSet
EndChar

StartChar: Z
Encoding: 90 90 47
Width: 619
Flags: HMW
HStem: 0 104<202 441 441 453 202 580> 0 203<486 573 486 580> 520 200<66 153 66 66> 619 101<186 198 198 401>
LayerCount: 2
Fore
SplineSet
401 619 m 1,0,-1
 198 619 l 2,1,2
 179 619 179 619 170 613.5 c 128,-1,3
 161 608 161 608 160 590 c 2,4,-1
 153 520 l 1,5,-1
 66 520 l 1,6,-1
 59 720 l 1,7,-1
 560 720 l 1,8,-1
 560 624 l 1,9,-1
 202 104 l 1,10,-1
 441 104 l 2,11,12
 460 104 460 104 469 109.5 c 128,-1,13
 478 115 478 115 479 133 c 2,14,-1
 486 203 l 1,15,-1
 573 203 l 1,16,-1
 580 0 l 1,17,-1
 43 0 l 1,18,-1
 43 99 l 1,19,-1
 401 619 l 1,0,-1
EndSplineSet
EndChar

StartChar: bracketleft
Encoding: 91 91 48
Width: 388
Flags: HMW
HStem: -240 96<215 355 215 355> 684 96<215 355 215 215>
VStem: 100 115<-144 684 -144 780 -144 780>
LayerCount: 2
Fore
SplineSet
355 780 m 1,0,-1
 355 684 l 1,1,-1
 215 684 l 1,2,-1
 215 -144 l 1,3,-1
 355 -144 l 1,4,-1
 355 -240 l 1,5,-1
 100 -240 l 1,6,-1
 100 780 l 1,7,-1
 355 780 l 1,0,-1
EndSplineSet
EndChar

StartChar: bracketright
Encoding: 93 93 49
Width: 388
Flags: HMW
HStem: -240 96<33 173 33 288 33 173> 684 96<33 288 33 173>
VStem: 173 115<-144 684 684 684>
LayerCount: 2
Fore
SplineSet
33 684 m 1,0,-1
 33 780 l 1,1,-1
 288 780 l 1,2,-1
 288 -240 l 1,3,-1
 33 -240 l 1,4,-1
 33 -144 l 1,5,-1
 173 -144 l 1,6,-1
 173 684 l 1,7,-1
 33 684 l 1,0,-1
EndSplineSet
EndChar

StartChar: asciicircum
Encoding: 94 94 50
Width: 579
Flags: HMW
HStem: 328 21G<133 133 442 442> 700 20G<235 340 340 340>
LayerCount: 2
Fore
SplineSet
235 720 m 1,0,-1
 340 720 l 1,1,-1
 529 378 l 1,2,-1
 442 328 l 1,3,-1
 285 616 l 1,4,-1
 133 328 l 1,5,-1
 50 368 l 1,6,-1
 235 720 l 1,0,-1
EndSplineSet
EndChar

StartChar: underscore
Encoding: 95 95 51
Width: 506
Flags: HMW
HStem: -174 82<0 506 0 506>
LayerCount: 2
Fore
SplineSet
0 -174 m 1,0,-1
 0 -92 l 1,1,-1
 506 -92 l 1,2,-1
 506 -174 l 1,3,-1
 0 -174 l 1,0,-1
EndSplineSet
EndChar

StartChar: grave
Encoding: 96 96 52
Width: 293
Flags: HMW
HStem: 564 21G<207 226> 747 20G<123 123>
LayerCount: 2
Fore
SplineSet
49 690 m 1,0,-1
 123 767 l 1,1,-1
 272 597 l 1,2,3
 239 564 239 564 215.5 564 c 0,4,5
 192 564 192 564 177 578 c 2,6,-1
 49 690 l 1,0,-1
EndSplineSet
EndChar

StartChar: a
Encoding: 97 97 53
Width: 544
Flags: HMW
HStem: -10 90<201.5 217.5> 0 21G<343 522 343 343> 330 165<76 300 76 300> 412 83<229 267>
VStem: 40 123<114 148.5 114 164> 329 120<134 212 212 212 291 349 349 351>
LayerCount: 2
Fore
SplineSet
449 351 m 2,0,-1
 449 109 l 2,1,2
 449 83 449 83 471 81 c 1,3,-1
 522 74 l 1,4,-1
 522 0 l 1,5,-1
 343 0 l 1,6,-1
 335 59 l 1,7,8
 266 -10 266 -10 189 -10 c 0,9,10
 112 -10 112 -10 76 26 c 128,-1,11
 40 62 40 62 40 123.5 c 0,12,13
 40 185 40 185 78.5 224 c 128,-1,14
 117 263 117 263 190 273 c 2,15,-1
 329 291 l 1,16,-1
 329 349 l 2,17,18
 329 412 329 412 242 412 c 0,19,20
 203 412 203 412 167 396 c 1,21,-1
 155 330 l 1,22,-1
 76 330 l 1,23,-1
 67 453 l 1,24,25
 137 478 137 478 171 486.5 c 128,-1,26
 205 495 205 495 248 495 c 0,27,28
 334 495 334 495 391.5 459.5 c 128,-1,29
 449 424 449 424 449 351 c 2,0,-1
329 212 m 1,30,-1
 219 194 l 2,31,32
 163 184 163 184 163 130 c 0,33,34
 163 80 163 80 219 80 c 0,35,36
 247 80 247 80 282 99.5 c 128,-1,37
 317 119 317 119 329 134 c 1,38,-1
 329 212 l 1,30,-1
EndSplineSet
EndChar

StartChar: b
Encoding: 98 98 54
Width: 563
Flags: HMW
VStem: 64 143 384 149
LayerCount: 2
Fore
SplineSet
197 367 m 1,0,-1
 197 111 l 1,1,2
 239 79 239 79 293.5 79 c 0,3,4
 348 79 348 79 370 107 c 0,5,6
 401 146 401 146 401 236 c 0,7,8
 401 326 401 326 371 365.5 c 128,-1,9
 341 405 341 405 286 405 c 0,10,11
 231 405 231 405 197 367 c 1,0,-1
77 36 m 1,12,-1
 77 672 l 2,13,14
 77 698 77 698 55 700 c 2,15,-1
 -2 706 l 1,16,-1
 -2 780 l 1,17,-1
 197 780 l 1,18,-1
 197 445 l 1,19,20
 219 465 219 465 254.5 480 c 128,-1,21
 290 495 290 495 325 495 c 0,22,23
 413 495 413 495 471 431.5 c 128,-1,24
 529 368 529 368 529 255 c 0,25,26
 529 142 529 142 462.5 66 c 128,-1,27
 396 -10 396 -10 281 -10 c 0,28,29
 166 -10 166 -10 77 36 c 1,12,-1
EndSplineSet
EndChar

StartChar: c
Encoding: 99 99 55
Width: 489
Flags: HMW
VStem: 18 156
LayerCount: 2
Fore
SplineSet
434 109 m 1,0,-1
 450 35 l 1,1,2
 361.451612903 -0.41935483871 361.451612903 -0.41935483871 324.725806452 -5.20967741935 c 128,-1,3
 288 -10 288 -10 264 -10 c 0,4,5
 151 -10 151 -10 92.5 50.5 c 128,-1,6
 34 111 34 111 34 229 c 128,-1,7
 34 347 34 347 99.5 421 c 128,-1,8
 165 495 165 495 277 495 c 0,9,10
 325 495 325 495 371 482.5 c 128,-1,11
 417 470 417 470 443 453 c 1,12,-1
 434 320 l 1,13,-1
 355 320 l 1,14,-1
 338 393 l 1,15,16
 312 406 312 406 260 406 c 128,-1,17
 208 406 208 406 191 382 c 0,18,19
 162 340 162 340 162 233 c 0,20,21
 162 164 162 164 191.5 121.5 c 128,-1,22
 221 79 221 79 273.5 79 c 128,-1,23
 326 79 326 79 434 109 c 1,0,-1
EndSplineSet
EndChar

StartChar: d
Encoding: 100 100 56
Width: 586
Flags: HMW
VStem: 13 155 346 142
LayerCount: 2
Fore
SplineSet
359 137 m 1,0,-1
 359 378 l 1,1,2
 326 406 326 406 272 406 c 0,3,4
 218 406 218 406 189 382 c 0,5,6
 173 370 173 370 164.5 324.5 c 128,-1,7
 156 279 156 279 156 241 c 0,8,9
 156 79 156 79 259 79 c 0,10,11
 289 79 289 79 316 97.5 c 128,-1,12
 343 116 343 116 359 137 c 1,0,-1
275 780 m 1,13,-1
 479 780 l 1,14,-1
 479 109 l 2,15,16
 479 83 479 83 501 81 c 1,17,-1
 552 74 l 1,18,-1
 552 0 l 1,19,-1
 373 0 l 1,20,-1
 365 59 l 1,21,22
 296 -10 296 -10 230 -10 c 0,23,24
 136 -10 136 -10 82 53 c 128,-1,25
 28 116 28 116 28 226.5 c 0,26,27
 28 337 28 337 96 416 c 128,-1,28
 164 495 164 495 281 495 c 0,29,30
 304 495 304 495 359 482 c 1,31,-1
 359 672 l 2,32,33
 359 698 359 698 337 700 c 2,34,-1
 275 706 l 1,35,-1
 275 780 l 1,13,-1
EndSplineSet
EndChar

StartChar: e
Encoding: 101 101 57
Width: 507
Flags: HMW
VStem: 16 157 336 151
LayerCount: 2
Fore
SplineSet
470 234 m 1,0,-1
 162 212 l 1,1,2
 170 79 170 79 284 79 c 0,3,4
 348 79 348 79 449 108 c 1,5,-1
 468 36 l 1,6,7
 350 -10 350 -10 247 -10 c 0,8,9
 144 -10 144 -10 89 56 c 128,-1,10
 34 122 34 122 34 237 c 128,-1,11
 34 352 34 352 97 423.5 c 128,-1,12
 160 495 160 495 274 495 c 128,-1,13
 388 495 388 495 429 430.5 c 128,-1,14
 470 366 470 366 470 234 c 1,0,-1
160 291 m 1,15,-1
 353 307 l 1,16,17
 351 406 351 406 268 406 c 0,18,19
 208 406 208 406 188.5 383.5 c 128,-1,20
 169 361 169 361 160 291 c 1,15,-1
EndSplineSet
EndChar

StartChar: f
Encoding: 102 102 58
Width: 364
Flags: HMW
VStem: 87 143
LayerCount: 2
Fore
SplineSet
223 487 m 1,0,-1
 342 497 l 1,1,-1
 342 404 l 1,2,-1
 223 404 l 1,3,-1
 223 109 l 2,4,5
 223 83 223 83 245 81 c 2,6,-1
 314 74 l 1,7,-1
 314 0 l 1,8,-1
 30 0 l 1,9,-1
 30 74 l 1,10,-1
 81 81 l 1,11,12
 103 83 103 83 103 109 c 2,13,-1
 103 404 l 1,14,-1
 35 404 l 1,15,-1
 35 475 l 1,16,-1
 103 483 l 1,17,-1
 103 586 l 2,18,19
 103 685 103 685 158.5 737.5 c 128,-1,20
 214 790 214 790 309 790 c 0,21,22
 358 790 358 790 426 766 c 1,23,-1
 385 668 l 1,24,25
 323 699 323 699 278 699 c 0,26,27
 223 699 223 699 223 635 c 2,28,-1
 223 487 l 1,0,-1
EndSplineSet
EndChar

StartChar: g
Encoding: 103 103 59
Width: 534
Flags: HMW
HStem: 119 86
VStem: 27 154 332 154
LayerCount: 2
Fore
SplineSet
506 517 m 1,0,-1
 506 444 l 1,1,2
 480 423 480 423 444 417 c 1,3,4
 473 374 473 374 473 313 c 0,5,6
 473 231 473 231 408.5 177.5 c 128,-1,7
 344 124 344 124 246 124 c 0,8,9
 232 124 232 124 221 125 c 1,10,-1
 210 95 l 2,11,12
 208 91 208 91 208 86 c 0,13,14
 208 76 208 76 234 72 c 128,-1,15
 260 68 260 68 312 61 c 128,-1,16
 364 54 364 54 391 50 c 0,17,18
 450 40 450 40 477 12 c 128,-1,19
 504 -16 504 -16 504 -68 c 0,20,21
 504 -143 504 -143 434 -196.5 c 128,-1,22
 364 -250 364 -250 253 -250 c 0,23,24
 109 -250 109 -250 35 -191 c 1,25,-1
 58 -62 l 1,26,-1
 136 -62 l 1,27,-1
 136 -130 l 1,28,29
 192 -158 192 -158 262.5 -158 c 128,-1,30
 333 -158 333 -158 365.5 -145 c 128,-1,31
 398 -132 398 -132 398 -93 c 0,32,33
 398 -59 398 -59 333 -52 c 0,34,35
 232 -41 232 -41 174 -30 c 0,36,37
 98 -16 98 -16 98 61 c 1,38,-1
 150 139 l 1,39,40
 39 191 39 191 39 307 c 0,41,42
 39 382 39 382 96 438.5 c 128,-1,43
 153 495 153 495 270 495 c 2,44,-1
 310 495 l 2,45,46
 388 495 388 495 417.5 498 c 128,-1,47
 447 501 447 501 506 517 c 1,0,-1
188.5 233.5 m 128,-1,49
 212 205 212 205 261 205 c 128,-1,50
 310 205 310 205 328.5 233 c 128,-1,51
 347 261 347 261 347 322 c 0,52,53
 347 417 347 417 249 417 c 0,54,55
 199 417 199 417 179 389 c 0,56,57
 165 371 165 371 165 316.5 c 128,-1,48
 165 262 165 262 188.5 233.5 c 128,-1,49
EndSplineSet
EndChar

StartChar: h
Encoding: 104 104 60
Width: 627
Flags: HMW
VStem: 95 143 400 142
LayerCount: 2
Fore
SplineSet
103 109 m 2,0,-1
 103 672 l 2,1,2
 103 698 103 698 81 700 c 2,3,-1
 30 706 l 1,4,-1
 30 780 l 1,5,-1
 223 780 l 1,6,-1
 223 434 l 1,7,8
 288 495 288 495 369 495 c 0,9,10
 450 495 450 495 491 452 c 128,-1,11
 532 409 532 409 532 346 c 2,12,-1
 532 109 l 2,13,14
 532 83 532 83 554 81 c 1,15,-1
 605 74 l 1,16,-1
 605 0 l 1,17,-1
 412 0 l 1,18,-1
 412 318 l 2,19,20
 412 357 412 357 390.5 377.5 c 128,-1,21
 369 398 369 398 331 398 c 0,22,23
 270 398 270 398 223 351 c 1,24,-1
 223 109 l 2,25,26
 223 83 223 83 245 81 c 1,27,-1
 296 74 l 1,28,-1
 296 0 l 1,29,-1
 30 0 l 1,30,-1
 30 74 l 1,31,-1
 81 81 l 1,32,33
 103 83 103 83 103 109 c 2,0,-1
EndSplineSet
EndChar

StartChar: i
Encoding: 105 105 61
Width: 321
Flags: HMW
HStem: 572 142
VStem: 90 141
LayerCount: 2
Fore
SplineSet
228 645 m 0,0,1
 228 579 228 579 149 579 c 0,2,3
 110 579 110 579 91 593.5 c 128,-1,4
 72 608 72 608 72 645.5 c 0,5,6
 72 683 72 683 89.5 701.5 c 128,-1,7
 107 720 107 720 153 720 c 0,8,9
 199 720 199 720 213.5 702 c 128,-1,10
 228 684 228 684 228 645 c 0,0,1
223 485 m 1,11,-1
 223 109 l 2,12,13
 223 83 223 83 245 81 c 1,14,-1
 296 74 l 1,15,-1
 296 0 l 1,16,-1
 30 0 l 1,17,-1
 30 74 l 1,18,-1
 81 81 l 1,19,20
 103 83 103 83 103 109 c 2,21,-1
 103 377 l 2,22,23
 103 403 103 403 81 405 c 2,24,-1
 30 411 l 1,25,-1
 30 485 l 1,26,-1
 223 485 l 1,11,-1
EndSplineSet
EndChar

StartChar: j
Encoding: 106 106 62
Width: 295
Flags: HMW
HStem: 572 142
VStem: 69 143
LayerCount: 2
Fore
SplineSet
218 485 m 1,0,-1
 218 7 l 2,1,2
 218 -97 218 -97 183.5 -143 c 128,-1,3
 149 -189 149 -189 25 -250 c 1,4,-1
 -29 -195 l 1,5,6
 32 -156 32 -156 56 -131.5 c 128,-1,7
 80 -107 80 -107 89 -72 c 128,-1,8
 98 -37 98 -37 98 34 c 2,9,-1
 98 377 l 2,10,11
 98 403 98 403 76 405 c 2,12,-1
 25 411 l 1,13,-1
 25 485 l 1,14,-1
 218 485 l 1,0,-1
223 645 m 0,15,16
 223 579 223 579 144 579 c 0,17,18
 105 579 105 579 86 593.5 c 128,-1,19
 67 608 67 608 67 645.5 c 0,20,21
 67 683 67 683 84.5 701.5 c 128,-1,22
 102 720 102 720 148 720 c 0,23,24
 194 720 194 720 208.5 702 c 128,-1,25
 223 684 223 684 223 645 c 0,15,16
EndSplineSet
EndChar

StartChar: k
Encoding: 107 107 63
Width: 588
Flags: HMW
VStem: 93 143
LayerCount: 2
Fore
SplineSet
223 780 m 1,0,-1
 223 295 l 1,1,-1
 357 432 l 2,2,3
 389 464 389 464 412 474.5 c 128,-1,4
 435 485 435 485 471 485 c 2,5,-1
 528 485 l 1,6,-1
 528 404 l 1,7,-1
 504 404 l 2,8,9
 471.2 404 471.2 404 452 388 c 0,10,11
 446 383 446 383 428 367 c 2,12,-1
 345 293 l 1,13,-1
 345 286 l 1,14,-1
 451 141 l 2,15,16
 491 87 491 87 536 87 c 0,17,18
 564 87 564 87 581 94 c 1,19,-1
 565 6 l 1,20,21
 526 -10 526 -10 481 -10 c 0,22,23
 419 -10 419 -10 370 59 c 2,24,-1
 223 268 l 1,25,-1
 223 109 l 2,26,27
 223 95 223 95 227.5 89 c 128,-1,28
 232 83 232 83 245 81 c 2,29,-1
 288 74 l 1,30,-1
 288 0 l 1,31,-1
 30 0 l 1,32,-1
 30 74 l 1,33,-1
 81 81 l 1,34,35
 103 83 103 83 103 109 c 2,36,-1
 103 672 l 2,37,38
 103 698 103 698 81 700 c 2,39,-1
 30 706 l 1,40,-1
 30 780 l 1,41,-1
 223 780 l 1,0,-1
EndSplineSet
EndChar

StartChar: l
Encoding: 108 108 64
Width: 321
Flags: HMW
VStem: 89 143
LayerCount: 2
Fore
SplineSet
223 780 m 1,0,-1
 223 109 l 2,1,2
 223 83 223 83 245 81 c 1,3,-1
 296 74 l 1,4,-1
 296 0 l 1,5,-1
 30 0 l 1,6,-1
 30 74 l 1,7,-1
 81 81 l 1,8,9
 103 83 103 83 103 109 c 2,10,-1
 103 672 l 2,11,12
 103 698 103 698 81 700 c 2,13,-1
 30 706 l 1,14,-1
 30 780 l 1,15,-1
 223 780 l 1,0,-1
EndSplineSet
EndChar

StartChar: m
Encoding: 109 109 65
Width: 914
Flags: HMW
VStem: 95 142 386 143 675 143
LayerCount: 2
Fore
SplineSet
518 344 m 1,0,-1
 518 109 l 2,1,2
 518 83 518 83 540 81 c 1,3,-1
 591 74 l 1,4,-1
 591 0 l 1,5,-1
 398 0 l 1,6,-1
 398 318 l 2,7,8
 398 398 398 398 331 398 c 0,9,10
 270 398 270 398 223 351 c 1,11,-1
 223 109 l 2,12,13
 223 83 223 83 245 81 c 1,14,-1
 296 74 l 1,15,-1
 296 0 l 1,16,-1
 30 0 l 1,17,-1
 30 74 l 1,18,-1
 81 81 l 1,19,20
 103 83 103 83 103 109 c 2,21,-1
 103 376 l 2,22,23
 103 402 103 402 81 404 c 1,24,-1
 30 411 l 1,25,-1
 30 485 l 1,26,-1
 199 485 l 1,27,-1
 207 418 l 1,28,29
 236 450 236 450 277 472.5 c 128,-1,30
 318 495 318 495 362 495 c 0,31,32
 473 495 473 495 505 415 c 1,33,34
 575 495 575 495 656.5 495 c 0,35,36
 738 495 738 495 778.5 456.5 c 128,-1,37
 819 418 819 418 819 346 c 2,38,-1
 819 109 l 2,39,40
 819 83 819 83 841 81 c 1,41,-1
 892 74 l 1,42,-1
 892 0 l 1,43,-1
 699 0 l 1,44,-1
 699 318 l 2,45,46
 699 398 699 398 631.5 398 c 0,47,48
 564 398 564 398 518 344 c 1,0,-1
EndSplineSet
EndChar

StartChar: n
Encoding: 110 110 66
Width: 627
Flags: HMW
HStem: 0 21G<30 296 30 30 412 605 412 412> 398 97<330.5 356> 465 20G<30 199 199 199>
VStem: 103 120<109 351> 412 120<100 109 109 318 318 344> 412 193<0 74 0 318>
LayerCount: 2
Fore
SplineSet
605 0 m 1,0,-1
 412 0 l 1,1,-1
 412 318 l 2,2,3
 412 357 412 357 390.5 377.5 c 128,-1,4
 369 398 369 398 331 398 c 0,5,6
 270 398 270 398 223 351 c 1,7,-1
 223 109 l 2,8,9
 223 83 223 83 245 81 c 1,10,-1
 296 74 l 1,11,-1
 296 0 l 1,12,-1
 30 0 l 1,13,-1
 30 74 l 1,14,-1
 81 81 l 1,15,16
 103 83 103 83 103 109 c 2,17,-1
 103 376 l 2,18,19
 103 402 103 402 81 404 c 1,20,-1
 30 411 l 1,21,-1
 30 485 l 1,22,-1
 199 485 l 1,23,-1
 207 418 l 1,24,25
 236 450 236 450 277 472.5 c 128,-1,26
 318 495 318 495 362 495 c 0,27,28
 450 495 450 495 491 452 c 128,-1,29
 532 409 532 409 532 346 c 2,30,-1
 532 109 l 2,31,32
 532 83 532 83 554 81 c 1,33,-1
 605 74 l 1,34,-1
 605 0 l 1,0,-1
EndSplineSet
EndChar

StartChar: o
Encoding: 111 111 67
Width: 563
Flags: HMW
HStem: -10 89<248 307 248 360.5> 406 89<255.5 314>
VStem: 34 128<188.5 263 188.5 300.5> 401 128<222 296>
LayerCount: 2
Fore
SplineSet
529 242 m 0,0,1
 529 147.5 529 147.5 469 72.5 c 0,2,3
 439 35 439 35 386 12.5 c 128,-1,4
 333 -10 333 -10 265 -10 c 0,5,6
 146 -10 146 -10 90 58 c 128,-1,7
 34 126 34 126 34 242 c 0,8,9
 34 336 34 336 94 412 c 0,10,11
 124 450 124 450 176.5 472.5 c 128,-1,12
 229 495 229 495 297 495 c 0,13,14
 417 495 417 495 473 427 c 128,-1,15
 529 359 529 359 529 242 c 0,0,1
367.5 363.5 m 128,-1,17
 334 406 334 406 277 406 c 128,-1,18
 220 406 220 406 196 382 c 0,19,20
 179 366 179 366 170.5 323.5 c 128,-1,21
 162 281 162 281 162 238 c 0,22,23
 162 163 162 163 195 121 c 128,-1,24
 228 79 228 79 285 79 c 128,-1,25
 342 79 342 79 366 103 c 0,26,27
 383 119 383 119 392 161.5 c 128,-1,28
 401 204 401 204 401 247 c 0,29,16
 401 321 401 321 367.5 363.5 c 128,-1,17
EndSplineSet
EndChar

StartChar: p
Encoding: 112 112 68
Width: 584
Flags: HMW
VStem: 85 141 404 155
LayerCount: 2
Fore
SplineSet
218 348 m 1,0,-1
 218 111 l 1,1,2
 263 79 263 79 313.5 79 c 0,3,4
 364 79 364 79 389 105 c 0,5,6
 422 140 422 140 422 249 c 0,7,8
 422 406 422 406 318 406 c 0,9,10
 293 406 293 406 261 386 c 128,-1,11
 229 366 229 366 218 348 c 1,0,-1
204 485 m 1,12,-1
 212 426 l 1,13,14
 281 495 281 495 347 495 c 0,15,16
 442 495 442 495 496 429 c 128,-1,17
 550 363 550 363 550 250 c 0,18,19
 550 137 550 137 478.5 63.5 c 128,-1,20
 407 -10 407 -10 298 -10 c 0,21,22
 256 -10 256 -10 218 7 c 1,23,-1
 218 -131 l 2,24,25
 218 -157 218 -157 240 -159 c 2,26,-1
 302 -166 l 1,27,-1
 302 -240 l 1,28,-1
 25 -240 l 1,29,-1
 25 -166 l 1,30,-1
 76 -159 l 1,31,32
 98 -157 98 -157 98 -131 c 2,33,-1
 98 376 l 2,34,35
 98 402 98 402 76 404 c 1,36,-1
 25 411 l 1,37,-1
 25 485 l 1,38,-1
 204 485 l 1,12,-1
EndSplineSet
EndChar

StartChar: q
Encoding: 113 113 69
Width: 564
Flags: HMW
VStem: 22 151 351 144
LayerCount: 2
Fore
SplineSet
367 133 m 1,0,-1
 367 389 l 1,1,2
 318 406 318 406 274.5 406 c 0,3,4
 231 406 231 406 207.5 388 c 0,5,6
 184 370 184 370 173 328.5 c 128,-1,7
 162 287 162 287 162 241 c 0,8,9
 162 159 162 159 191.5 119 c 128,-1,10
 221 79 221 79 274 79 c 0,11,12
 308 79 308 79 334 97.5 c 128,-1,13
 360 116 360 116 367 133 c 1,0,-1
367 -131 m 2,14,-1
 367 29 l 1,15,16
 307 -10 307 -10 236 -10 c 0,17,18
 147 -10 147 -10 90.5 53.5 c 128,-1,19
 34 117 34 117 34 231.5 c 0,20,21
 34 346 34 346 100 420.5 c 128,-1,22
 166 495 166 495 284 495 c 0,23,24
 320 495 320 495 391 468 c 1,25,-1
 487 485 l 1,26,-1
 487 -131 l 2,27,28
 487 -157 487 -157 509 -159 c 1,29,-1
 560 -166 l 1,30,-1
 560 -240 l 1,31,-1
 283 -240 l 1,32,-1
 283 -166 l 1,33,-1
 345 -159 l 2,34,35
 367 -157 367 -157 367 -131 c 2,14,-1
EndSplineSet
EndChar

StartChar: r
Encoding: 114 114 70
Width: 446
Flags: HMW
VStem: 87 143
LayerCount: 2
Fore
SplineSet
199 485 m 1,0,-1
 209 409 l 1,1,2
 227 440 227 440 267.5 467.5 c 128,-1,3
 308 495 308 495 352.5 495 c 0,4,5
 397 495 397 495 437 471 c 1,6,-1
 429 333 l 1,7,-1
 350 333 l 1,8,-1
 339 395 l 1,9,10
 333 399 333 399 313 399 c 0,11,12
 280 399 280 399 251.5 363.5 c 128,-1,13
 223 328 223 328 223 298 c 2,14,-1
 223 109 l 2,15,16
 223 83 223 83 245 81 c 2,17,-1
 309 74 l 1,18,-1
 309 0 l 1,19,-1
 30 0 l 1,20,-1
 30 74 l 1,21,-1
 81 81 l 1,22,23
 103 83 103 83 103 109 c 2,24,-1
 103 376 l 2,25,26
 103 402 103 402 81 404 c 1,27,-1
 30 411 l 1,28,-1
 30 485 l 1,29,-1
 199 485 l 1,0,-1
EndSplineSet
EndChar

StartChar: s
Encoding: 115 115 71
Width: 456
Flags: HMW
VStem: 22 148 287 151
LayerCount: 2
Fore
SplineSet
230 495 m 0,0,1
 283 495 283 495 402 463 c 1,2,-1
 396 341 l 1,3,-1
 317 341 l 1,4,-1
 305 401 l 1,5,6
 272 415 272 415 223 415 c 0,7,8
 159 415 159 415 159 368 c 0,9,10
 159 342 159 342 184 325.5 c 128,-1,11
 209 309 209 309 277 286.5 c 0,12,13
 345 264 345 264 383 232.5 c 128,-1,14
 421 201 421 201 421 145 c 0,15,16
 421 74 421 74 362 32 c 128,-1,17
 303 -10 303 -10 214.5 -10 c 0,18,19
 126 -10 126 -10 38 26 c 1,20,-1
 47 151 l 1,21,-1
 128 151 l 1,22,-1
 137 85 l 1,23,24
 174 71 174 71 212 71 c 0,25,26
 250 71 250 71 275 86 c 128,-1,27
 300 101 300 101 300 128.5 c 0,28,29
 300 156 300 156 276 170.5 c 128,-1,30
 252 185 252 185 198 204 c 1,31,32
 109 233 109 233 74.5 267 c 128,-1,33
 40 301 40 301 40 364 c 0,34,35
 40 427 40 427 94 461 c 128,-1,36
 148 495 148 495 230 495 c 0,0,1
EndSplineSet
EndChar

StartChar: t
Encoding: 116 116 72
Width: 356
Flags: HMW
VStem: 70 143
LayerCount: 2
Fore
SplineSet
202 487 m 1,0,-1
 323 498 l 1,1,-1
 323 405 l 1,2,-1
 202 405 l 1,3,-1
 202 200 l 2,4,5
 202 136 202 136 214.5 106 c 128,-1,6
 227 76 227 76 264 76 c 128,-1,7
 301 76 301 76 344 86 c 1,8,-1
 333 11 l 1,9,10
 294 -10 294 -10 219 -10 c 0,11,12
 149.642857143 -10 149.642857143 -10 116.5 22 c 0,13,14
 89.0568421053 48.4968421053 89.0568421053 48.4968421053 84 115.5 c 0,15,16
 82 142 82 142 82 185 c 2,17,-1
 82 405 l 1,18,-1
 23 405 l 1,19,-1
 23 475 l 1,20,-1
 82 483 l 1,21,-1
 82 562 l 1,22,-1
 202 589 l 1,23,-1
 202 487 l 1,0,-1
EndSplineSet
EndChar

StartChar: u
Encoding: 117 117 73
Width: 607
Flags: HMW
VStem: 73 143 373 143
LayerCount: 2
Fore
SplineSet
389 143 m 1,0,-1
 389 376 l 2,1,2
 389 402 389 402 367 404 c 1,3,-1
 316 411 l 1,4,-1
 316 485 l 1,5,-1
 509 485 l 1,6,-1
 509 109 l 2,7,8
 509 83 509 83 531 81 c 1,9,-1
 582 74 l 1,10,-1
 582 0 l 1,11,-1
 413 0 l 1,12,-1
 405 67 l 1,13,14
 380 38 380 38 340 14 c 128,-1,15
 300 -10 300 -10 256 -10 c 0,16,17
 174 -10 174 -10 130 28.5 c 128,-1,18
 86 67 86 67 86 138 c 2,19,-1
 86 376 l 2,20,21
 86 402 86 402 64 404 c 1,22,-1
 13 411 l 1,23,-1
 13 485 l 1,24,-1
 206 485 l 1,25,-1
 206 168 l 2,26,27
 206 84 206 84 279 84 c 0,28,29
 316 84 316 84 350 107 c 128,-1,30
 384 130 384 130 389 143 c 1,0,-1
EndSplineSet
EndChar

StartChar: v
Encoding: 118 118 74
Width: 554
Flags: HMW
HStem: 0 21G<223 337 223 223> 465 20G<1 244 244 244 316 551 551 551>
LayerCount: 2
Fore
SplineSet
292 157 m 1,0,-1
 367 368 l 2,1,2
 373 384 373 384 373 391 c 0,3,4
 373 404 373 404 359 406 c 2,5,-1
 316 412 l 1,6,-1
 316 485 l 1,7,-1
 551 485 l 1,8,-1
 551 412 l 1,9,-1
 510 406 l 2,10,11
 494.07079646 404.407079646 494.07079646 404.407079646 484.5 388 c 0,12,13
 481 382 481 382 476 368 c 2,14,-1
 337 0 l 1,15,-1
 223 0 l 1,16,-1
 76 368 l 2,17,18
 68.0353982301 390.300884956 68.0353982301 390.300884956 60.017699115 397.650442478 c 128,-1,19
 52 405 52 405 42 406 c 2,20,-1
 1 412 l 1,21,-1
 1 485 l 1,22,-1
 244 485 l 1,23,-1
 244 412 l 1,24,-1
 201 406 l 2,25,26
 187 404 187 404 187 391 c 0,27,28
 187 384 187 384 193 368 c 2,29,-1
 274 157 l 1,30,-1
 283 112 l 1,31,-1
 292 157 l 1,0,-1
EndSplineSet
EndChar

StartChar: w
Encoding: 119 119 75
Width: 774
Flags: HMW
HStem: 0 21G<192 304 192 192 463 579 463 463> 465 20G<1 245 245 245 539 771 771 771>
LayerCount: 2
Fore
SplineSet
538 178 m 1,0,-1
 590 368 l 2,1,2
 595 386 595 386 595 393 c 0,3,4
 595 403 595 403 582 406 c 1,5,-1
 539 412 l 1,6,-1
 539 485 l 1,7,-1
 771 485 l 1,8,-1
 771 412 l 1,9,-1
 730 406 l 2,10,11
 716 404 716 404 709 395.5 c 128,-1,12
 702 387 702 387 696 368 c 2,13,-1
 579 0 l 1,14,-1
 463 0 l 1,15,-1
 394 225 l 1,16,-1
 385 267 l 1,17,-1
 376 225 l 1,18,-1
 304 0 l 1,19,-1
 192 0 l 1,20,-1
 76 368 l 2,21,22
 70 387 70 387 63 395.5 c 128,-1,23
 56 404 56 404 42 406 c 2,24,-1
 1 412 l 1,25,-1
 1 485 l 1,26,-1
 245 485 l 1,27,-1
 245 412 l 1,28,-1
 202 406 l 1,29,30
 188 403 188 403 188 394.5 c 0,31,32
 188 386 188 386 194 368 c 2,33,-1
 247 178 l 1,34,-1
 256 133 l 1,35,-1
 265 178 l 1,36,-1
 338 429 l 1,37,-1
 447 429 l 1,38,-1
 520 178 l 1,39,-1
 529 133 l 1,40,-1
 538 178 l 1,0,-1
EndSplineSet
EndChar

StartChar: x
Encoding: 120 120 76
Width: 566
Flags: HMW
HStem: 0 21G<16 225 16 16 313 550 313 313> 465 20G<24 255 255 255 328 542 542 542>
VStem: 16 209<0 73 0 74 0 74> 16 239 313 237<0 73 73 73> 328 222
LayerCount: 2
Fore
SplineSet
329 214 m 1,0,-1
 462 376 l 2,1,2
 476 393 476 393 485 398 c 128,-1,3
 494 403 494 403 514 407 c 2,4,-1
 542 412 l 1,5,-1
 542 485 l 1,6,-1
 328 485 l 1,7,-1
 328 413 l 1,8,-1
 351 408 l 2,9,10
 364 405 364 405 364 399.5 c 128,-1,11
 364 394 364 394 348 376 c 2,12,-1
 243 252 l 1,13,-1
 329 214 l 1,0,-1
237 376 m 2,14,-1
 471 117 l 2,15,16
 491 94 491 94 499 87.5 c 128,-1,17
 507 81 507 81 520 79 c 2,18,-1
 550 74 l 1,19,-1
 550 0 l 1,20,-1
 313 0 l 1,21,-1
 313 73 l 1,22,-1
 336 78 l 2,23,24
 347 81 347 81 347 88.5 c 128,-1,25
 347 96 347 96 329 118 c 1,26,-1
 97 376 l 2,27,28
 80 395 80 395 73.5 399.5 c 128,-1,29
 67 404 67 404 52 407 c 2,30,-1
 24 412 l 1,31,-1
 24 485 l 1,32,-1
 255 485 l 1,33,-1
 255 413 l 1,34,-1
 232 408 l 2,35,36
 220 405 220 405 220 400 c 128,-1,37
 220 395 220 395 237 376 c 2,14,-1
212 260 m 1,38,-1
 292 217 l 1,39,-1
 211 118 l 2,40,41
 193 95 193 95 193 88 c 128,-1,42
 193 81 193 81 202 78 c 1,43,-1
 225 73 l 1,44,-1
 225 0 l 1,45,-1
 16 0 l 1,46,-1
 16 74 l 1,47,-1
 46 80 l 2,48,49
 62 84 62 84 70.5 90.5 c 128,-1,50
 79 97 79 97 95 117 c 2,51,-1
 212 260 l 1,38,-1
EndSplineSet
EndChar

StartChar: y
Encoding: 121 121 77
Width: 564
Flags: HMW
HStem: -250 93<115.5 130.5 88.5 172> 465 20G<2 249 249 249 328 562 562 562>
LayerCount: 2
Fore
SplineSet
486 368 m 2,0,-1
 299 -120 l 2,1,2
 249 -250 249 -250 133 -250 c 0,3,4
 71 -250 71 -250 28 -234 c 1,5,-1
 15 -146 l 1,6,7
 62 -157 62 -157 106 -157 c 0,8,9
 177 -157 177 -157 209 -70 c 1,10,-1
 226 -21 l 1,11,-1
 77 368 l 2,12,13
 69.0353982301 390.300884956 69.0353982301 390.300884956 61.017699115 397.650442478 c 128,-1,14
 53 405 53 405 43 406 c 2,15,-1
 2 412 l 1,16,-1
 2 485 l 1,17,-1
 249 485 l 1,18,-1
 249 412 l 1,19,-1
 205 406 l 1,20,21
 191 403 191 403 191 393 c 0,22,23
 191 386 191 386 198 368 c 2,24,-1
 290 115 l 1,25,-1
 378 368 l 2,26,27
 385 387 385 387 385 396 c 128,-1,28
 385 405 385 405 372 406 c 2,29,-1
 328 412 l 1,30,-1
 328 485 l 1,31,-1
 562 485 l 1,32,-1
 562 412 l 1,33,-1
 521 406 l 2,34,35
 507 404 507 404 500.5 395.5 c 128,-1,36
 494 387 494 387 486 368 c 2,0,-1
EndSplineSet
EndChar

StartChar: z
Encoding: 122 122 78
Width: 513
Flags: HMW
HStem: 0 90 401 89
LayerCount: 2
Fore
SplineSet
316 401 m 1,0,-1
 152 401 l 2,1,2
 126 401 126 401 124 379 c 1,3,-1
 116 321 l 1,4,-1
 42 321 l 1,5,-1
 35 485 l 1,6,-1
 469 485 l 1,7,-1
 469 419 l 1,8,-1
 181 86 l 1,9,-1
 364 86 l 2,10,11
 390 86 390 86 392 108 c 2,12,-1
 400 170 l 1,13,-1
 474 170 l 1,14,-1
 481 0 l 1,15,-1
 28 0 l 1,16,-1
 28 68 l 1,17,-1
 316 401 l 1,0,-1
EndSplineSet
EndChar

StartChar: braceleft
Encoding: 123 123 79
Width: 392
Flags: HMW
HStem: -242 79<200.5 339 302 339 302 339> 232 74<52 79.5> 701 79<277.5 302 302 339>
VStem: 125 119<-109 -84 -84 91 91 108 447 622> 125 214<-242 91>
CounterMasks: 1 e0
LayerCount: 2
Fore
SplineSet
52 232 m 1,0,-1
 52 306 l 1,1,2
 125 306 125 306 125 447 c 2,3,-1
 125 668 l 2,4,5
 125 715 125 715 155 747.5 c 128,-1,6
 185 780 185 780 236 780 c 2,7,-1
 339 780 l 1,8,-1
 339 701 l 1,9,-1
 302 701 l 2,10,11
 267 701 267 701 255.5 682 c 128,-1,12
 244 663 244 663 244 622 c 2,13,-1
 244 430 l 2,14,15
 244 369 244 369 215.5 319 c 128,-1,16
 187 269 187 269 147 269 c 1,17,18
 187 269 187 269 215.5 219 c 128,-1,19
 244 169 244 169 244 108 c 2,20,-1
 244 -84 l 2,21,22
 244 -125 244 -125 255.5 -144 c 128,-1,23
 267 -163 267 -163 302 -163 c 2,24,-1
 339 -163 l 1,25,-1
 339 -242 l 1,26,-1
 236 -242 l 2,27,28
 185 -242 185 -242 155 -209.5 c 128,-1,29
 125 -177 125 -177 125 -130 c 2,30,-1
 125 91 l 2,31,32
 125 232 125 232 52 232 c 1,0,-1
EndSplineSet
EndChar

StartChar: bar
Encoding: 124 124 80
Width: 305
Flags: HMW
HStem: -240 21G<100 205 100 100> 772 20G<100 205 205 205>
VStem: 100 105<-240 792 -240 792>
LayerCount: 2
Fore
SplineSet
100 792 m 1,0,-1
 205 792 l 1,1,-1
 205 -240 l 1,2,-1
 100 -240 l 1,3,-1
 100 792 l 1,0,-1
EndSplineSet
EndChar

StartChar: braceright
Encoding: 125 125 81
Width: 392
Flags: HMW
HStem: -242 79<53 90 90 114.5 53 156 53 90> 232 74<312.5 340> 701 79<53 90 53 156>
VStem: 53 214<-242 -130 -163 -130> 148 119<-84 91 430 447 447 622 622 647>
CounterMasks: 1 e0
LayerCount: 2
Fore
SplineSet
340 306 m 1,0,-1
 340 232 l 1,1,2
 267 232 267 232 267 91 c 2,3,-1
 267 -130 l 2,4,5
 267 -177 267 -177 237 -209.5 c 128,-1,6
 207 -242 207 -242 156 -242 c 2,7,-1
 53 -242 l 1,8,-1
 53 -163 l 1,9,-1
 90 -163 l 2,10,11
 125 -163 125 -163 136.5 -144 c 128,-1,12
 148 -125 148 -125 148 -84 c 2,13,-1
 148 108 l 2,14,15
 148 169 148 169 176.5 219 c 128,-1,16
 205 269 205 269 245 269 c 1,17,18
 205 269 205 269 176.5 319 c 128,-1,19
 148 369 148 369 148 430 c 2,20,-1
 148 622 l 2,21,22
 148 663 148 663 136.5 682 c 128,-1,23
 125 701 125 701 90 701 c 2,24,-1
 53 701 l 1,25,-1
 53 780 l 1,26,-1
 156 780 l 2,27,28
 207 780 207 780 237 747.5 c 128,-1,29
 267 715 267 715 267 668 c 2,30,-1
 267 447 l 2,31,32
 267 306 267 306 340 306 c 1,0,-1
EndSplineSet
EndChar

StartChar: asciitilde
Encoding: 126 126 82
Width: 570
Flags: HMW
HStem: 175 102<355 394.5> 231 46
LayerCount: 2
Fore
SplineSet
103 196.5 m 0,0,1
 88 188 88 188 84 186 c 1,2,-1
 66 255 l 1,3,4
 153 333 153 333 208 333 c 0,5,6
 242 333 242 333 299.5 305 c 128,-1,7
 357 277 357 277 387 277 c 128,-1,8
 417 277 417 277 486 315 c 1,9,-1
 503 246 l 1,10,11
 476 218 476 218 440 196.5 c 128,-1,12
 404 175 404 175 372 175 c 128,-1,13
 340 175 340 175 281 203 c 128,-1,14
 222 231 222 231 192.941176471 231 c 128,-1,15
 163.882352941 231 163.882352941 231 103 196.5 c 0,0,1
EndSplineSet
EndChar

StartChar: itilde
Encoding: 297 297 84
Width: 306
Flags: HMW
HStem: 572 142
VStem: 86 141
LayerCount: 2
Fore
SplineSet
219 485 m 1,0,-1
 219 109 l 2,1,2
 219 83 219 83 241 81 c 1,3,-1
 292 74 l 1,4,-1
 292 0 l 1,5,-1
 26 0 l 1,6,-1
 26 74 l 1,7,-1
 77 81 l 1,8,9
 99 83 99 83 99 109 c 2,10,-1
 99 377 l 2,11,12
 99 403 99 403 77 405 c 2,13,-1
 26 411 l 1,14,-1
 26 485 l 1,15,-1
 219 485 l 1,0,-1
128.5 588.5 m 128,-1,17
 84 607 84 607 57 607 c 128,-1,18
 30 607 30 607 -11 580 c 1,19,-1
 -35 640 l 1,20,21
 11 709 11 709 69 709 c 0,22,23
 99 709 99 709 143 691.5 c 128,-1,24
 187 674 187 674 213 674 c 128,-1,25
 239 674 239 674 273 698 c 1,26,-1
 297 638 l 1,27,28
 254 570 254 570 200 570 c 0,29,16
 173 570 173 570 128.5 588.5 c 128,-1,17
EndSplineSet
EndChar

StartChar: quotesinglbase
Encoding: 8218 8218 85
Width: 243
Flags: HMW
HStem: -145 21G<84 84> 113 20G<94 151>
VStem: 42 161<-104 62 39.5 62 -7 89>
LayerCount: 2
Fore
SplineSet
203 36 m 0,0,1
 203 -23 203 -23 167.5 -71 c 128,-1,2
 132 -119 132 -119 84 -145 c 1,3,-1
 42 -104 l 1,4,5
 114 -59 114 -59 114 -11 c 1,6,7
 75 -7 75 -7 58.5 10 c 128,-1,8
 42 27 42 27 42 63 c 0,9,10
 42 133 42 133 116 133 c 0,11,12
 203 133 203 133 203 36 c 0,0,1
EndSplineSet
EndChar

StartChar: dotlessi
Encoding: 305 305 86
Width: 306
Flags: HMW
HStem: 572 142
VStem: 86 141
LayerCount: 2
Fore
SplineSet
219 485 m 1,0,-1
 219 109 l 2,1,2
 219 83 219 83 241 81 c 1,3,-1
 292 74 l 1,4,-1
 292 0 l 1,5,-1
 26 0 l 1,6,-1
 26 74 l 1,7,-1
 77 81 l 1,8,9
 99 83 99 83 99 109 c 2,10,-1
 99 377 l 2,11,12
 99 403 99 403 77 405 c 2,13,-1
 26 411 l 1,14,-1
 26 485 l 1,15,-1
 219 485 l 1,0,-1
EndSplineSet
EndChar

StartChar: quotedblbase
Encoding: 8222 8222 87
Width: 462
Flags: HMW
HStem: -145 21G<84 84 302 302> 113 20G<94 151 312 369>
VStem: 42 161<-104 62 39.5 62 -7 89> 260 161<-104 62 39.5 62 -7 89>
LayerCount: 2
Fore
SplineSet
203 36 m 0,0,1
 203 -23 203 -23 167.5 -71 c 128,-1,2
 132 -119 132 -119 84 -145 c 1,3,-1
 42 -104 l 1,4,5
 114 -59 114 -59 114 -11 c 1,6,7
 75 -7 75 -7 58.5 10 c 128,-1,8
 42 27 42 27 42 63 c 0,9,10
 42 133 42 133 116 133 c 0,11,12
 203 133 203 133 203 36 c 0,0,1
421 36 m 0,13,14
 421 -23 421 -23 385.5 -71 c 128,-1,15
 350 -119 350 -119 302 -145 c 1,16,-1
 260 -104 l 1,17,18
 332 -59 332 -59 332 -11 c 1,19,20
 293 -7 293 -7 276.5 10 c 128,-1,21
 260 27 260 27 260 63 c 0,22,23
 260 133 260 133 334 133 c 0,24,25
 421 133 421 133 421 36 c 0,13,14
EndSplineSet
EndChar

StartChar: circumflex
Encoding: 710 710 88
Width: 353
Flags: HMW
HStem: 549 21G<78 78 276 276> 723 20G<123 232 232 232>
LayerCount: 2
Fore
SplineSet
123 743 m 1,0,-1
 232 743 l 1,1,-1
 335 597 l 1,2,-1
 276 549 l 1,3,-1
 177 667 l 1,4,-1
 78 549 l 1,5,-1
 19 597 l 1,6,-1
 123 743 l 1,0,-1
EndSplineSet
EndChar

StartChar: guilsinglleft
Encoding: 8249 8249 89
Width: 318
Flags: HMW
HStem: 39 21G<209 209> 425 20G<209 209>
LayerCount: 2
Fore
SplineSet
209 39 m 1,0,-1
 39 242 l 1,1,-1
 209 445 l 1,2,3
 215 438 215 438 228 426.5 c 0,4,5
 254 403.5 254 403.5 254 388.25 c 128,-1,6
 254 373 254 373 246 360 c 2,7,-1
 172 242 l 1,8,-1
 246 124 l 2,9,10
 254 113 254 113 254 99.5 c 128,-1,11
 254 86 254 86 248.5 77.5 c 128,-1,12
 243 69 243 69 227 55 c 128,-1,13
 211 41 211 41 209 39 c 1,0,-1
EndSplineSet
EndChar

StartChar: quoteleft
Encoding: 8216 8216 90
Width: 257
Flags: HMW
HStem: 499 21G<102 161> 775 20G<175 175>
VStem: 43 171<570 594 543 641>
LayerCount: 2
Fore
SplineSet
43 596 m 0,0,1
 43 658 43 658 84 713 c 128,-1,2
 125 768 125 768 175 795 c 1,3,-1
 222 746 l 1,4,5
 193 730 193 730 167 702.5 c 128,-1,6
 141 675 141 675 141 648 c 1,7,8
 179 644 179 644 196.5 625.5 c 128,-1,9
 214 607 214 607 214 569 c 0,10,11
 214 499 214 499 139 499 c 0,12,13
 43 499 43 499 43 596 c 0,0,1
EndSplineSet
EndChar

StartChar: quoteright
Encoding: 8217 8217 91
Width: 257
Flags: HMW
HStem: 499 21G<82 82> 775 20G<96 155>
VStem: 43 171<700 724 653 751>
LayerCount: 2
Fore
SplineSet
214 698 m 0,0,1
 214 636 214 636 173 581 c 128,-1,2
 132 526 132 526 82 499 c 1,3,-1
 35 548 l 1,4,5
 64 564 64 564 90 591.5 c 128,-1,6
 116 619 116 619 116 646 c 1,7,8
 78 650 78 650 60.5 668.5 c 128,-1,9
 43 687 43 687 43 725 c 0,10,11
 43 795 43 795 118 795 c 0,12,13
 214 795 214 795 214 698 c 0,0,1
EndSplineSet
EndChar

StartChar: quotedblleft
Encoding: 8220 8220 92
Width: 489
Flags: HMW
HStem: 499 21G<103 162 334 393> 775 20G<176 176 407 407>
VStem: 44 171<570 594 543 641> 275 171<570 594 543 641>
LayerCount: 2
Fore
SplineSet
275 596 m 0,0,1
 275 658 275 658 316 713 c 128,-1,2
 357 768 357 768 407 795 c 1,3,-1
 454 746 l 1,4,5
 425 730 425 730 399 702.5 c 128,-1,6
 373 675 373 675 373 648 c 1,7,8
 411 644 411 644 428.5 625.5 c 128,-1,9
 446 607 446 607 446 569 c 0,10,11
 446 499 446 499 371 499 c 0,12,13
 275 499 275 499 275 596 c 0,0,1
44 596 m 0,14,15
 44 658 44 658 85 713 c 128,-1,16
 126 768 126 768 176 795 c 1,17,-1
 223 746 l 1,18,19
 194 730 194 730 168 702.5 c 128,-1,20
 142 675 142 675 142 648 c 1,21,22
 180 644 180 644 197.5 625.5 c 128,-1,23
 215 607 215 607 215 569 c 0,24,25
 215 499 215 499 140 499 c 0,26,27
 44 499 44 499 44 596 c 0,14,15
EndSplineSet
EndChar

StartChar: quotedblright
Encoding: 8221 8221 93
Width: 489
Flags: HMW
HStem: 499 21G<82 82 313 313> 775 20G<96 155 327 386>
VStem: 43 171<700 724 653 751> 274 171<700 724 653 751>
LayerCount: 2
Fore
SplineSet
214 698 m 0,0,1
 214 636 214 636 173 581 c 128,-1,2
 132 526 132 526 82 499 c 1,3,-1
 35 548 l 1,4,5
 64 564 64 564 90 591.5 c 128,-1,6
 116 619 116 619 116 646 c 1,7,8
 78 650 78 650 60.5 668.5 c 128,-1,9
 43 687 43 687 43 725 c 0,10,11
 43 795 43 795 118 795 c 0,12,13
 214 795 214 795 214 698 c 0,0,1
445 698 m 0,14,15
 445 636 445 636 404 581 c 128,-1,16
 363 526 363 526 313 499 c 1,17,-1
 266 548 l 1,18,19
 295 564 295 564 321 591.5 c 128,-1,20
 347 619 347 619 347 646 c 1,21,22
 309 650 309 650 291.5 668.5 c 128,-1,23
 274 687 274 687 274 725 c 0,24,25
 274 795 274 795 349 795 c 0,26,27
 445 795 445 795 445 698 c 0,14,15
EndSplineSet
EndChar

StartChar: emdash
Encoding: 8212 8212 94
Width: 910
Flags: HMW
HStem: 210 92<0 910 0 910>
LayerCount: 2
Fore
SplineSet
0 210 m 1,0,-1
 0 302 l 1,1,-1
 910 302 l 1,2,-1
 910 210 l 1,3,-1
 0 210 l 1,0,-1
EndSplineSet
EndChar

StartChar: tilde
Encoding: 732 732 95
Width: 404
Flags: HMW
HStem: 570 104<253.5 286 253.5 288> 607 67
LayerCount: 2
Fore
SplineSet
196.5 588.5 m 128,-1,1
 152 607 152 607 125 607 c 128,-1,2
 98 607 98 607 57 580 c 1,3,-1
 33 640 l 1,4,5
 79 709 79 709 137 709 c 0,6,7
 167 709 167 709 211 691.5 c 128,-1,8
 255 674 255 674 281 674 c 128,-1,9
 307 674 307 674 341 698 c 1,10,-1
 365 638 l 1,11,12
 322 570 322 570 268 570 c 0,13,0
 241 570 241 570 196.5 588.5 c 128,-1,1
EndSplineSet
EndChar

StartChar: oe
Encoding: 339 339 96
Width: 874
Flags: HMW
HStem: -10 89<248 307 248 310 612 668.5> 406 89<255.5 314 600 669.5>
VStem: 34 128<188.5 263 188.5 300.5> 401 128<212 296> 720 117<307 307>
LayerCount: 2
Fore
SplineSet
837 234 m 1,0,-1
 529 212 l 1,1,2
 537 79 537 79 651 79 c 0,3,4
 714 79 714 79 816 108 c 1,5,-1
 835 36 l 1,6,7
 717 -10 717 -10 623 -10 c 0,8,9
 502 -10 502 -10 449 73 c 1,10,11
 388 -10 388 -10 267 -10 c 128,-1,12
 146 -10 146 -10 90 58 c 128,-1,13
 34 126 34 126 34 242 c 0,14,15
 34 336 34 336 94 412 c 0,16,17
 124 450 124 450 176.5 472.5 c 128,-1,18
 229 495 229 495 297 495 c 0,19,20
 414 495 414 495 462 414 c 1,21,22
 524 495 524 495 639.5 495 c 128,-1,23
 755 495 755 495 796 430.5 c 128,-1,24
 837 366 837 366 837 234 c 1,0,-1
367.5 363.5 m 128,-1,26
 334 406 334 406 277 406 c 128,-1,27
 220 406 220 406 196 382 c 0,28,29
 179 366 179 366 170.5 323.5 c 128,-1,30
 162 281 162 281 162 238 c 0,31,32
 162 163 162 163 195 121 c 128,-1,33
 228 79 228 79 285 79 c 128,-1,34
 342 79 342 79 366 103 c 0,35,36
 383 119 383 119 392 161.5 c 128,-1,37
 401 204 401 204 401 247 c 0,38,25
 401 321 401 321 367.5 363.5 c 128,-1,26
527 291 m 1,39,-1
 720 307 l 1,40,41
 718 406 718 406 635 406 c 0,42,43
 574 406 574 406 554.5 383.5 c 128,-1,44
 535 361 535 361 527 291 c 1,39,-1
EndSplineSet
EndChar

StartChar: guilsinglright
Encoding: 8250 8250 97
Width: 318
Flags: HMW
HStem: 39 21G<109 109> 425 20G<109 109>
LayerCount: 2
Fore
SplineSet
279 242 m 1,0,-1
 109 39 l 1,1,2
 104 44 104 44 94 52.5 c 128,-1,3
 84 61 84 61 79 66.5 c 0,4,5
 64 83 64 83 64 98 c 128,-1,6
 64 113 64 113 72 124 c 2,7,-1
 146 242 l 1,8,-1
 72 360 l 2,9,10
 64 373 64 373 64 385 c 128,-1,11
 64 397 64 397 70.5 406 c 128,-1,12
 77 415 77 415 90 426.5 c 128,-1,13
 103 438 103 438 109 445 c 1,14,-1
 279 242 l 1,0,-1
EndSplineSet
EndChar

StartChar: exclamdown
Encoding: 161 161 98
Width: 326
Flags: HMW
HStem: -240 21G<92 92 92 231> 349 141<137.5 186.5 137.5 200.5>
VStem: 85 156<401.5 448.5 400.5 450.5> 102 118
LayerCount: 2
Fore
SplineSet
92 -240 m 1,0,-1
 113 283 l 1,1,-1
 209 283 l 1,2,-1
 231 -240 l 1,3,-1
 92 -240 l 1,0,-1
241 424 m 0,4,5
 241 385 241 385 226.5 367 c 128,-1,6
 212 349 212 349 166 349 c 0,7,8
 120 349 120 349 102.5 367.5 c 128,-1,9
 85 386 85 386 85 423.5 c 0,10,11
 85 461 85 461 104 475.5 c 128,-1,12
 123 490 123 490 162 490 c 0,13,14
 241 490 241 490 241 424 c 0,4,5
EndSplineSet
EndChar

StartChar: dieresis
Encoding: 168 168 99
Width: 547
Flags: HMW
HStem: 567 131<142 188 357 403>
VStem: 95 141<606 649> 310 141<606 649>
LayerCount: 2
Fore
SplineSet
224 681.5 m 128,-1,1
 236 665 236 665 236 630.5 c 128,-1,2
 236 596 236 596 218.5 581.5 c 128,-1,3
 201 567 201 567 165 567 c 128,-1,4
 129 567 129 567 112 580 c 128,-1,5
 95 593 95 593 95 628.5 c 128,-1,6
 95 664 95 664 110.5 681 c 128,-1,7
 126 698 126 698 169 698 c 128,-1,0
 212 698 212 698 224 681.5 c 128,-1,1
439 681.5 m 128,-1,9
 451 665 451 665 451 630.5 c 128,-1,10
 451 596 451 596 433.5 581.5 c 128,-1,11
 416 567 416 567 380 567 c 128,-1,12
 344 567 344 567 327 580 c 128,-1,13
 310 593 310 593 310 628.5 c 128,-1,14
 310 664 310 664 325.5 681 c 128,-1,15
 341 698 341 698 384 698 c 128,-1,8
 427 698 427 698 439 681.5 c 128,-1,9
EndSplineSet
EndChar

StartChar: ordfeminine
Encoding: 170 170 100
Width: 331
Flags: HMW
HStem: 290 81<34 301 34 301> 427 65<118 122> 671 59<135.5 157.5>
VStem: 20 80<509 526 509 533.5> 192 78<530 562 562 562 613 642 642 648>
LayerCount: 2
Fore
SplineSet
34 290 m 1,0,-1
 34 371 l 1,1,-1
 301 371 l 1,2,-1
 301 290 l 1,3,-1
 34 290 l 1,0,-1
270 648 m 2,4,-1
 270 511 l 2,5,6
 270 499 270 499 272.5 494.5 c 128,-1,7
 275 490 275 490 284 489 c 2,8,-1
 311 485 l 1,9,-1
 311 433 l 1,10,-1
 200 433 l 1,11,-1
 196 475 l 1,12,13
 156 427 156 427 112.5 427 c 0,14,15
 69 427 69 427 44.5 449.5 c 128,-1,16
 20 472 20 472 20 509 c 128,-1,17
 20 546 20 546 44.5 569.5 c 128,-1,18
 69 593 69 593 113 599 c 1,19,-1
 192 613 l 1,20,-1
 192 642 l 2,21,22
 192 671 192 671 145 671 c 0,23,24
 126 671 126 671 94 663 c 1,25,-1
 86 625 l 1,26,-1
 39 625 l 1,27,-1
 31 709 l 1,28,29
 97 730 97 730 149.5 730 c 0,30,31
 202 730 202 730 236 710 c 128,-1,32
 270 690 270 690 270 648 c 2,4,-1
192 562 m 1,33,-1
 127 550 l 2,34,35
 100 545 100 545 100 518.5 c 0,36,37
 100 492 100 492 125.5 492 c 0,38,39
 151 492 151 492 192 530 c 1,40,-1
 192 562 l 1,33,-1
EndSplineSet
EndChar

StartChar: guillemotleft
Encoding: 171 171 101
Width: 536
Flags: HMW
HStem: 39 21G<209 209 427 427> 425 20G<209 209 427 427>
LayerCount: 2
Fore
SplineSet
209 39 m 1,0,-1
 39 242 l 1,1,-1
 209 445 l 1,2,3
 215 438 215 438 228 426.5 c 0,4,5
 254 403.5 254 403.5 254 388.25 c 128,-1,6
 254 373 254 373 246 360 c 2,7,-1
 172 242 l 1,8,-1
 246 124 l 2,9,10
 254 113 254 113 254 99.5 c 128,-1,11
 254 86 254 86 248.5 77.5 c 128,-1,12
 243 69 243 69 227 55 c 128,-1,13
 211 41 211 41 209 39 c 1,0,-1
427 39 m 1,14,-1
 257 242 l 1,15,-1
 427 445 l 1,16,17
 433 438 433 438 446 426.5 c 0,18,19
 472 403.5 472 403.5 472 388.25 c 128,-1,20
 472 373 472 373 464 360 c 2,21,-1
 390 242 l 1,22,-1
 464 124 l 2,23,24
 472 113 472 113 472 99.5 c 128,-1,25
 472 86 472 86 466.5 77.5 c 128,-1,26
 461 69 461 69 445 55 c 128,-1,27
 429 41 429 41 427 39 c 1,14,-1
EndSplineSet
EndChar

StartChar: acute
Encoding: 180 180 102
Width: 285
Flags: HMW
HStem: 564 21G<68 87> 747 20G<171 171>
LayerCount: 2
Fore
SplineSet
171 767 m 1,0,-1
 245 690 l 1,1,-1
 117 578 l 2,2,3
 102 564 102 564 78.5 564 c 0,4,5
 55 564 55 564 22 597 c 1,6,-1
 171 767 l 1,0,-1
EndSplineSet
EndChar

StartChar: periodcentered
Encoding: 183 183 103
Width: 251
Flags: HMW
HStem: 215 155<98 152>
VStem: 43 165<261 312>
LayerCount: 2
Fore
SplineSet
194 350.5 m 128,-1,1
 208 331 208 331 208 290 c 128,-1,2
 208 249 208 249 187.5 232 c 128,-1,3
 167 215 167 215 125 215 c 128,-1,4
 83 215 83 215 63 230.5 c 128,-1,5
 43 246 43 246 43 288 c 128,-1,6
 43 330 43 330 61 350 c 128,-1,7
 79 370 79 370 129.5 370 c 128,-1,0
 180 370 180 370 194 350.5 c 128,-1,1
EndSplineSet
EndChar

StartChar: cedilla
Encoding: 184 184 104
Width: 322
Flags: HMW
HStem: -235 56<138 158.5 138 182.5> -7 20G<121 121>
VStem: 184 88<-156 -131.5>
LayerCount: 2
Fore
SplineSet
121 13 m 1,0,-1
 191 1 l 1,1,-1
 191 -57 l 1,2,-1
 218 -66 l 2,3,4
 250 -77 250 -77 261 -92 c 128,-1,5
 272 -107 272 -107 272 -134 c 0,6,7
 272 -182 272 -182 236.5 -208.5 c 128,-1,8
 201 -235 201 -235 155 -235 c 128,-1,9
 109 -235 109 -235 61 -214 c 1,10,-1
 78 -165 l 1,11,12
 113 -179 113 -179 150 -179 c 0,13,14
 184 -179 184 -179 184 -141 c 0,15,16
 184 -118 184 -118 154 -110 c 1,17,-1
 97 -97 l 1,18,-1
 121 13 l 1,0,-1
EndSplineSet
EndChar

StartChar: guillemotright
Encoding: 187 187 105
Width: 536
Flags: HMW
HStem: 39 21G<109 109 327 327> 425 20G<109 109 327 327>
LayerCount: 2
Fore
SplineSet
497 242 m 1,0,-1
 327 39 l 1,1,2
 322 44 322 44 312 52.5 c 128,-1,3
 302 61 302 61 297 66.5 c 0,4,5
 282 83 282 83 282 98 c 128,-1,6
 282 113 282 113 290 124 c 2,7,-1
 364 242 l 1,8,-1
 290 360 l 2,9,10
 282 373 282 373 282 385 c 128,-1,11
 282 397 282 397 288.5 406 c 128,-1,12
 295 415 295 415 308 426.5 c 128,-1,13
 321 438 321 438 327 445 c 1,14,-1
 497 242 l 1,0,-1
279 242 m 1,15,-1
 109 39 l 1,16,17
 104 44 104 44 94 52.5 c 128,-1,18
 84 61 84 61 79 66.5 c 0,19,20
 64 83 64 83 64 98 c 128,-1,21
 64 113 64 113 72 124 c 2,22,-1
 146 242 l 1,23,-1
 72 360 l 2,24,25
 64 373 64 373 64 385 c 128,-1,26
 64 397 64 397 70.5 406 c 128,-1,27
 77 415 77 415 90 426.5 c 128,-1,28
 103 438 103 438 109 445 c 1,29,-1
 279 242 l 1,15,-1
EndSplineSet
EndChar

StartChar: questiondown
Encoding: 191 191 106
Width: 442
Flags: HMW
HStem: -250 84<175.5 229.5 175.5 253> 354 141<248.5 297.5 248.5 300>
VStem: 7 122<-110 -15 -110 14.5> 194 156<406.5 453.5> 223 111<120 216>
LayerCount: 2
Fore
SplineSet
129 -92 m 0,0,1
 129 -166 129 -166 210 -166 c 0,2,3
 254 -166 254 -166 301 -145 c 1,4,-1
 311 -81 l 1,5,-1
 395 -81 l 1,6,-1
 406 -218 l 1,7,8
 306 -250 306 -250 206.5 -250 c 128,-1,9
 107 -250 107 -250 57 -206 c 128,-1,10
 7 -162 7 -162 7 -97.5 c 128,-1,11
 7 -33 7 -33 28.5 10 c 128,-1,12
 50 53 50 53 81 76.5 c 128,-1,13
 112 100 112 100 143 119 c 128,-1,14
 174 138 174 138 197.5 161.5 c 128,-1,15
 221 185 221 185 223 216 c 2,16,-1
 228 281 l 1,17,-1
 324 288 l 2,18,19
 324 287 324 287 329 247.5 c 128,-1,20
 334 208 334 208 334 176 c 0,21,22
 334 125.565217391 334 125.565217391 281 91 c 0,23,24
 258 76 258 76 231.5 57.5 c 128,-1,25
 205 39 205 39 182 21 c 128,-1,26
 159 3 159 3 144 -26.5 c 128,-1,27
 129 -56 129 -56 129 -92 c 0,0,1
194 429 m 0,28,29
 194 495 194 495 273 495 c 0,30,31
 312 495 312 495 331 480.5 c 128,-1,32
 350 466 350 466 350 428.5 c 128,-1,33
 350 391 350 391 332.5 372.5 c 128,-1,34
 315 354 315 354 269 354 c 128,-1,35
 223 354 223 354 208.5 372 c 128,-1,36
 194 390 194 390 194 429 c 0,28,29
EndSplineSet
EndChar

StartChar: Aacute
Encoding: 193 193 107
Width: 705
Flags: HMW
HStem: 0 21G<2 275 2 2 414 703 414 414> 218 98<264 420 264 455 231 420> 720 34<325.5 343.5 325.5 409> 924 20G<448 448>
LayerCount: 2
Fore
SplineSet
82 132 m 2,0,-1
 290 720 l 1,1,-1
 409 720 l 1,2,-1
 621 132 l 2,3,4
 630 106 630 106 639 98 c 128,-1,5
 648 90 648 90 669 86 c 2,6,-1
 703 79 l 1,7,-1
 703 0 l 1,8,-1
 414 0 l 1,9,-1
 414 77 l 1,10,-1
 464 86 l 2,11,12
 491 90 491 90 491 107 c 0,13,14
 491 113 491 113 486 130 c 2,15,-1
 455 218 l 1,16,-1
 231 218 l 1,17,-1
 203 133 l 2,18,19
 198 118 198 118 198 110 c 0,20,21
 198 90 198 90 226 86 c 1,22,-1
 275 77 l 1,23,-1
 275 0 l 1,24,-1
 2 0 l 1,25,-1
 2 79 l 1,26,-1
 35 86 l 2,27,28
 55 90 55 90 64 98 c 128,-1,29
 73 106 73 106 82 132 c 2,0,-1
420 316 m 1,30,-1
 353 508 l 1,31,-1
 340 559 l 1,32,-1
 330 510 l 1,33,-1
 264 316 l 1,34,-1
 420 316 l 1,30,-1
448 944 m 1,35,-1
 511 858 l 1,36,-1
 369 764 l 2,37,38
 353 754 353 754 339 754 c 0,39,40
 306 754 306 754 277 796 c 1,41,-1
 448 944 l 1,35,-1
EndSplineSet
EndChar

StartChar: Acircumflex
Encoding: 194 194 108
Width: 705
Flags: HMW
HStem: 0 21G<2 275 2 2 414 703 414 414> 218 98<264 420 264 455 231 420> 700 20G<290 409 409 409> 898 20G<296 405 405 405>
LayerCount: 2
Fore
SplineSet
82 132 m 2,0,-1
 290 720 l 1,1,-1
 409 720 l 1,2,-1
 621 132 l 2,3,4
 630 106 630 106 639 98 c 128,-1,5
 648 90 648 90 669 86 c 2,6,-1
 703 79 l 1,7,-1
 703 0 l 1,8,-1
 414 0 l 1,9,-1
 414 77 l 1,10,-1
 464 86 l 2,11,12
 491 90 491 90 491 107 c 0,13,14
 491 113 491 113 486 130 c 2,15,-1
 455 218 l 1,16,-1
 231 218 l 1,17,-1
 203 133 l 2,18,19
 198 118 198 118 198 110 c 0,20,21
 198 90 198 90 226 86 c 1,22,-1
 275 77 l 1,23,-1
 275 0 l 1,24,-1
 2 0 l 1,25,-1
 2 79 l 1,26,-1
 35 86 l 2,27,28
 55 90 55 90 64 98 c 128,-1,29
 73 106 73 106 82 132 c 2,0,-1
420 316 m 1,30,-1
 353 508 l 1,31,-1
 340 559 l 1,32,-1
 330 510 l 1,33,-1
 264 316 l 1,34,-1
 420 316 l 1,30,-1
296 918 m 1,35,-1
 405 918 l 1,36,-1
 523 792 l 1,37,-1
 464 744 l 1,38,-1
 350 842 l 1,39,-1
 236 744 l 1,40,-1
 177 792 l 1,41,-1
 296 918 l 1,35,-1
EndSplineSet
EndChar

StartChar: Adieresis
Encoding: 196 196 110
Width: 705
Flags: HMW
HStem: 0 21G<2 275 2 2 414 703 414 414> 218 98<264 420 264 455 231 420> 700 20G<290 409 409 409> 757 131<217 263 432 478>
VStem: 170 141<796 839> 385 141<796 839>
LayerCount: 2
Fore
SplineSet
82 132 m 2,0,-1
 290 720 l 1,1,-1
 409 720 l 1,2,-1
 621 132 l 2,3,4
 630 106 630 106 639 98 c 128,-1,5
 648 90 648 90 669 86 c 2,6,-1
 703 79 l 1,7,-1
 703 0 l 1,8,-1
 414 0 l 1,9,-1
 414 77 l 1,10,-1
 464 86 l 2,11,12
 491 90 491 90 491 107 c 0,13,14
 491 113 491 113 486 130 c 2,15,-1
 455 218 l 1,16,-1
 231 218 l 1,17,-1
 203 133 l 2,18,19
 198 118 198 118 198 110 c 0,20,21
 198 90 198 90 226 86 c 1,22,-1
 275 77 l 1,23,-1
 275 0 l 1,24,-1
 2 0 l 1,25,-1
 2 79 l 1,26,-1
 35 86 l 2,27,28
 55 90 55 90 64 98 c 128,-1,29
 73 106 73 106 82 132 c 2,0,-1
420 316 m 1,30,-1
 353 508 l 1,31,-1
 340 559 l 1,32,-1
 330 510 l 1,33,-1
 264 316 l 1,34,-1
 420 316 l 1,30,-1
299 871.5 m 128,-1,36
 311 855 311 855 311 820.5 c 128,-1,37
 311 786 311 786 293.5 771.5 c 128,-1,38
 276 757 276 757 240 757 c 128,-1,39
 204 757 204 757 187 770 c 128,-1,40
 170 783 170 783 170 818.5 c 128,-1,41
 170 854 170 854 185.5 871 c 128,-1,42
 201 888 201 888 244 888 c 128,-1,35
 287 888 287 888 299 871.5 c 128,-1,36
514 871.5 m 128,-1,44
 526 855 526 855 526 820.5 c 128,-1,45
 526 786 526 786 508.5 771.5 c 128,-1,46
 491 757 491 757 455 757 c 128,-1,47
 419 757 419 757 402 770 c 128,-1,48
 385 783 385 783 385 818.5 c 128,-1,49
 385 854 385 854 400.5 871 c 128,-1,50
 416 888 416 888 459 888 c 128,-1,43
 502 888 502 888 514 871.5 c 128,-1,44
EndSplineSet
EndChar

StartChar: AE
Encoding: 198 198 112
Width: 946
Flags: HMW
HStem: 0 104<572 754 754 766 572 892> 0 208<798 885 798 892> 322 104<314 445 314 445 275 445 572 770> 522 198<777 866 777 777> 616 104<572 734 572 572>
VStem: 445 127<127 322 104 322 426 588 588 600.5> 774 95
LayerCount: 2
Fore
SplineSet
236 645 m 1,0,-1
 236 720 l 1,1,-1
 873 720 l 1,2,-1
 866 522 l 1,3,-1
 777 522 l 1,4,-1
 772 587 l 2,5,6
 771 605 771 605 762 610.5 c 128,-1,7
 753 616 753 616 734 616 c 2,8,-1
 572 616 l 1,9,-1
 572 426 l 1,10,-1
 770 426 l 1,11,-1
 770 322 l 1,12,-1
 572 322 l 1,13,-1
 572 104 l 1,14,-1
 754 104 l 2,15,16
 773 104 773 104 782 109.5 c 128,-1,17
 791 115 791 115 792 133 c 2,18,-1
 798 208 l 1,19,-1
 885 208 l 1,20,-1
 892 0 l 1,21,-1
 367 0 l 1,22,-1
 367 80 l 1,23,-1
 416 89 l 1,24,25
 434 91 434 91 439.5 99 c 128,-1,26
 445 107 445 107 445 127 c 2,27,-1
 445 322 l 1,28,-1
 275 322 l 1,29,-1
 204 133 l 2,30,31
 199 121 199 121 199 112 c 0,32,33
 199 91 199 91 227 86 c 2,34,-1
 276 77 l 1,35,-1
 276 0 l 1,36,-1
 2 0 l 1,37,-1
 2 79 l 1,38,-1
 39 86 l 2,39,40
 58 89 58 89 67 97.5 c 128,-1,41
 76 106 76 106 86 132 c 2,42,-1
 283 641 l 1,43,-1
 236 645 l 1,0,-1
445 426 m 1,44,-1
 445 588 l 2,45,46
 445 608 445 608 439.5 617.5 c 128,-1,47
 434 627 434 627 416 628 c 2,48,-1
 390 630 l 1,49,-1
 314 426 l 1,50,-1
 445 426 l 1,44,-1
EndSplineSet
EndChar

StartChar: Egrave
Encoding: 200 200 114
Width: 633
Flags: HMW
HStem: 0 104<252 440 440 452 252 579> 322 104<252 463 252 463> 522 198<484 568 484 484> 616 104<252 439 252 252> 720 35<343.5 361.5 343.5 575> 925 20G<239 239>
VStem: 125 127<127 322 426 598 598 610.5>
LayerCount: 2
Fore
SplineSet
579 0 m 1,0,-1
 48 0 l 1,1,-1
 48 80 l 1,2,-1
 96 89 l 2,3,4
 114 93 114 93 119.5 100.5 c 128,-1,5
 125 108 125 108 125 127 c 2,6,-1
 125 598 l 2,7,8
 125 618 125 618 119.5 627 c 128,-1,9
 114 636 114 636 96 638 c 2,10,-1
 48 644 l 1,11,-1
 48 720 l 1,12,-1
 575 720 l 1,13,-1
 568 522 l 1,14,-1
 484 522 l 1,15,-1
 477 587 l 2,16,17
 475 605 475 605 466.5 610.5 c 128,-1,18
 458 616 458 616 439 616 c 2,19,-1
 252 616 l 1,20,-1
 252 426 l 1,21,-1
 463 426 l 1,22,-1
 463 322 l 1,23,-1
 252 322 l 1,24,-1
 252 104 l 1,25,-1
 440 104 l 2,26,27
 459 104 459 104 468 109.5 c 128,-1,28
 477 115 477 115 478 133 c 2,29,-1
 485 203 l 1,30,-1
 572 203 l 1,31,-1
 579 0 l 1,0,-1
176 859 m 1,32,-1
 239 945 l 1,33,-1
 410 797 l 1,34,35
 381 755 381 755 348 755 c 0,36,37
 334 755 334 755 318 765 c 2,38,-1
 176 859 l 1,32,-1
EndSplineSet
EndChar

StartChar: Eacute
Encoding: 201 201 115
Width: 633
Flags: HMW
HStem: 0 104<252 440 440 452 252 579> 322 104<252 463 252 463> 522 198<484 568 484 484> 616 104<252 439 252 252> 720 34<315.5 333.5 315.5 575> 924 20G<438 438>
VStem: 125 127<127 322 426 598 598 610.5>
LayerCount: 2
Fore
SplineSet
579 0 m 1,0,-1
 48 0 l 1,1,-1
 48 80 l 1,2,-1
 96 89 l 2,3,4
 114 93 114 93 119.5 100.5 c 128,-1,5
 125 108 125 108 125 127 c 2,6,-1
 125 598 l 2,7,8
 125 618 125 618 119.5 627 c 128,-1,9
 114 636 114 636 96 638 c 2,10,-1
 48 644 l 1,11,-1
 48 720 l 1,12,-1
 575 720 l 1,13,-1
 568 522 l 1,14,-1
 484 522 l 1,15,-1
 477 587 l 2,16,17
 475 605 475 605 466.5 610.5 c 128,-1,18
 458 616 458 616 439 616 c 2,19,-1
 252 616 l 1,20,-1
 252 426 l 1,21,-1
 463 426 l 1,22,-1
 463 322 l 1,23,-1
 252 322 l 1,24,-1
 252 104 l 1,25,-1
 440 104 l 2,26,27
 459 104 459 104 468 109.5 c 128,-1,28
 477 115 477 115 478 133 c 2,29,-1
 485 203 l 1,30,-1
 572 203 l 1,31,-1
 579 0 l 1,0,-1
438 944 m 1,32,-1
 501 858 l 1,33,-1
 359 764 l 2,34,35
 343 754 343 754 329 754 c 0,36,37
 296 754 296 754 267 796 c 1,38,-1
 438 944 l 1,32,-1
EndSplineSet
EndChar

StartChar: Ecircumflex
Encoding: 202 202 116
Width: 633
Flags: HMW
HStem: 0 104<252 440 440 452 252 579> 0 203<485 572 485 579> 322 104<252 463 252 463> 522 198<484 568 484 484> 616 104<252 439 252 252> 898 20G<286 395 395 395>
VStem: 125 127<127 322 426 598 598 610.5>
LayerCount: 2
Fore
SplineSet
579 0 m 1,0,-1
 48 0 l 1,1,-1
 48 80 l 1,2,-1
 96 89 l 2,3,4
 114 93 114 93 119.5 100.5 c 128,-1,5
 125 108 125 108 125 127 c 2,6,-1
 125 598 l 2,7,8
 125 618 125 618 119.5 627 c 128,-1,9
 114 636 114 636 96 638 c 2,10,-1
 48 644 l 1,11,-1
 48 720 l 1,12,-1
 575 720 l 1,13,-1
 568 522 l 1,14,-1
 484 522 l 1,15,-1
 477 587 l 2,16,17
 475 605 475 605 466.5 610.5 c 128,-1,18
 458 616 458 616 439 616 c 2,19,-1
 252 616 l 1,20,-1
 252 426 l 1,21,-1
 463 426 l 1,22,-1
 463 322 l 1,23,-1
 252 322 l 1,24,-1
 252 104 l 1,25,-1
 440 104 l 2,26,27
 459 104 459 104 468 109.5 c 128,-1,28
 477 115 477 115 478 133 c 2,29,-1
 485 203 l 1,30,-1
 572 203 l 1,31,-1
 579 0 l 1,0,-1
286 918 m 1,32,-1
 395 918 l 1,33,-1
 513 792 l 1,34,-1
 454 744 l 1,35,-1
 340 842 l 1,36,-1
 226 744 l 1,37,-1
 167 792 l 1,38,-1
 286 918 l 1,32,-1
EndSplineSet
EndChar

StartChar: Edieresis
Encoding: 203 203 117
Width: 633
Flags: HMW
HStem: 0 104<252 440 440 452 252 579> 0 203<485 572 485 579> 322 104<252 463 252 463> 522 198<484 568 484 484> 616 104<252 439 252 252> 757 131<209 255 424 470>
VStem: 125 127<127 322 426 598 598 610.5> 162 141<796 839> 377 141<796 839> 377 198<720 839>
LayerCount: 2
Fore
SplineSet
579 0 m 1,0,-1
 48 0 l 1,1,-1
 48 80 l 1,2,-1
 96 89 l 2,3,4
 114 93 114 93 119.5 100.5 c 128,-1,5
 125 108 125 108 125 127 c 2,6,-1
 125 598 l 2,7,8
 125 618 125 618 119.5 627 c 128,-1,9
 114 636 114 636 96 638 c 2,10,-1
 48 644 l 1,11,-1
 48 720 l 1,12,-1
 575 720 l 1,13,-1
 568 522 l 1,14,-1
 484 522 l 1,15,-1
 477 587 l 2,16,17
 475 605 475 605 466.5 610.5 c 128,-1,18
 458 616 458 616 439 616 c 2,19,-1
 252 616 l 1,20,-1
 252 426 l 1,21,-1
 463 426 l 1,22,-1
 463 322 l 1,23,-1
 252 322 l 1,24,-1
 252 104 l 1,25,-1
 440 104 l 2,26,27
 459 104 459 104 468 109.5 c 128,-1,28
 477 115 477 115 478 133 c 2,29,-1
 485 203 l 1,30,-1
 572 203 l 1,31,-1
 579 0 l 1,0,-1
291 871.5 m 128,-1,33
 303 855 303 855 303 820.5 c 128,-1,34
 303 786 303 786 285.5 771.5 c 128,-1,35
 268 757 268 757 232 757 c 128,-1,36
 196 757 196 757 179 770 c 128,-1,37
 162 783 162 783 162 818.5 c 128,-1,38
 162 854 162 854 177.5 871 c 128,-1,39
 193 888 193 888 236 888 c 128,-1,32
 279 888 279 888 291 871.5 c 128,-1,33
506 871.5 m 128,-1,41
 518 855 518 855 518 820.5 c 128,-1,42
 518 786 518 786 500.5 771.5 c 128,-1,43
 483 757 483 757 447 757 c 128,-1,44
 411 757 411 757 394 770 c 128,-1,45
 377 783 377 783 377 818.5 c 128,-1,46
 377 854 377 854 392.5 871 c 128,-1,47
 408 888 408 888 451 888 c 128,-1,40
 494 888 494 888 506 871.5 c 128,-1,41
EndSplineSet
EndChar

StartChar: Igrave
Encoding: 204 204 118
Width: 377
Flags: HMW
HStem: 0 21G<48 329 48 48> 720 35<191.5 209.5 191.5 329> 925 20G<87 87>
VStem: 125 127<126 594>
LayerCount: 2
Fore
SplineSet
329 79 m 1,0,-1
 329 0 l 1,1,-1
 48 0 l 1,2,-1
 48 79 l 1,3,-1
 96 88 l 2,4,5
 114 92 114 92 119.5 99.5 c 128,-1,6
 125 107 125 107 125 126 c 2,7,-1
 125 594 l 2,8,9
 125 613 125 613 119.5 620.5 c 128,-1,10
 114 628 114 628 96 632 c 2,11,-1
 48 641 l 1,12,-1
 48 720 l 1,13,-1
 329 720 l 1,14,-1
 329 641 l 1,15,-1
 281 632 l 2,16,17
 263 628 263 628 257.5 620.5 c 128,-1,18
 252 613 252 613 252 594 c 2,19,-1
 252 126 l 2,20,21
 252 107 252 107 257.5 99.5 c 128,-1,22
 263 92 263 92 281 88 c 2,23,-1
 329 79 l 1,0,-1
24 859 m 1,24,-1
 87 945 l 1,25,-1
 258 797 l 1,26,27
 229 755 229 755 196 755 c 0,28,29
 182 755 182 755 166 765 c 2,30,-1
 24 859 l 1,24,-1
EndSplineSet
EndChar

StartChar: Iacute
Encoding: 205 205 119
Width: 377
Flags: HMW
HStem: 0 21G<48 329 48 48> 720 34<163.5 181.5 163.5 329> 924 20G<286 286>
VStem: 125 127<126 594>
LayerCount: 2
Fore
SplineSet
329 79 m 1,0,-1
 329 0 l 1,1,-1
 48 0 l 1,2,-1
 48 79 l 1,3,-1
 96 88 l 2,4,5
 114 92 114 92 119.5 99.5 c 128,-1,6
 125 107 125 107 125 126 c 2,7,-1
 125 594 l 2,8,9
 125 613 125 613 119.5 620.5 c 128,-1,10
 114 628 114 628 96 632 c 2,11,-1
 48 641 l 1,12,-1
 48 720 l 1,13,-1
 329 720 l 1,14,-1
 329 641 l 1,15,-1
 281 632 l 2,16,17
 263 628 263 628 257.5 620.5 c 128,-1,18
 252 613 252 613 252 594 c 2,19,-1
 252 126 l 2,20,21
 252 107 252 107 257.5 99.5 c 128,-1,22
 263 92 263 92 281 88 c 2,23,-1
 329 79 l 1,0,-1
286 944 m 1,24,-1
 349 858 l 1,25,-1
 207 764 l 2,26,27
 191 754 191 754 177 754 c 0,28,29
 144 754 144 754 115 796 c 1,30,-1
 286 944 l 1,24,-1
EndSplineSet
EndChar

StartChar: Icircumflex
Encoding: 206 206 120
Width: 377
Flags: HMW
HStem: 0 21G<48 329 48 48> 700 20G<48 329 329 329> 898 20G<134 243 243 243>
VStem: 125 127<126 594>
LayerCount: 2
Fore
SplineSet
329 79 m 1,0,-1
 329 0 l 1,1,-1
 48 0 l 1,2,-1
 48 79 l 1,3,-1
 96 88 l 2,4,5
 114 92 114 92 119.5 99.5 c 128,-1,6
 125 107 125 107 125 126 c 2,7,-1
 125 594 l 2,8,9
 125 613 125 613 119.5 620.5 c 128,-1,10
 114 628 114 628 96 632 c 2,11,-1
 48 641 l 1,12,-1
 48 720 l 1,13,-1
 329 720 l 1,14,-1
 329 641 l 1,15,-1
 281 632 l 2,16,17
 263 628 263 628 257.5 620.5 c 128,-1,18
 252 613 252 613 252 594 c 2,19,-1
 252 126 l 2,20,21
 252 107 252 107 257.5 99.5 c 128,-1,22
 263 92 263 92 281 88 c 2,23,-1
 329 79 l 1,0,-1
134 918 m 1,24,-1
 243 918 l 1,25,-1
 361 792 l 1,26,-1
 302 744 l 1,27,-1
 188 842 l 1,28,-1
 74 744 l 1,29,-1
 15 792 l 1,30,-1
 134 918 l 1,24,-1
EndSplineSet
EndChar

StartChar: Idieresis
Encoding: 207 207 121
Width: 377
Flags: HMW
HStem: 0 21G<48 329 48 48> 700 20G<48 329 329 329> 757 131<56 102 271 317>
VStem: 9 141<796 839> 48 102<641 840.5 720 840.5> 125 127<126 594> 224 105 224 141<796 839>
LayerCount: 2
Fore
SplineSet
329 79 m 1,0,-1
 329 0 l 1,1,-1
 48 0 l 1,2,-1
 48 79 l 1,3,-1
 96 88 l 2,4,5
 114 92 114 92 119.5 99.5 c 128,-1,6
 125 107 125 107 125 126 c 2,7,-1
 125 594 l 2,8,9
 125 613 125 613 119.5 620.5 c 128,-1,10
 114 628 114 628 96 632 c 2,11,-1
 48 641 l 1,12,-1
 48 720 l 1,13,-1
 329 720 l 1,14,-1
 329 641 l 1,15,-1
 281 632 l 2,16,17
 263 628 263 628 257.5 620.5 c 128,-1,18
 252 613 252 613 252 594 c 2,19,-1
 252 126 l 2,20,21
 252 107 252 107 257.5 99.5 c 128,-1,22
 263 92 263 92 281 88 c 2,23,-1
 329 79 l 1,0,-1
138 871.5 m 128,-1,25
 150 855 150 855 150 820.5 c 128,-1,26
 150 786 150 786 132.5 771.5 c 128,-1,27
 115 757 115 757 79 757 c 128,-1,28
 43 757 43 757 26 770 c 128,-1,29
 9 783 9 783 9 818.5 c 128,-1,30
 9 854 9 854 24.5 871 c 128,-1,31
 40 888 40 888 83 888 c 128,-1,24
 126 888 126 888 138 871.5 c 128,-1,25
353 871.5 m 128,-1,33
 365 855 365 855 365 820.5 c 128,-1,34
 365 786 365 786 347.5 771.5 c 128,-1,35
 330 757 330 757 294 757 c 128,-1,36
 258 757 258 757 241 770 c 128,-1,37
 224 783 224 783 224 818.5 c 128,-1,38
 224 854 224 854 239.5 871 c 128,-1,39
 255 888 255 888 298 888 c 128,-1,32
 341 888 341 888 353 871.5 c 128,-1,33
EndSplineSet
EndChar

StartChar: OE
Encoding: 338 338 123
Width: 1068
Flags: HMW
HStem: -10 114 -10 213 0 21G<560 1014 560 560> 322 104<687 898 687 898> 522 198<919 1003 919 919> 616 104<687 874 687 687> 710 20G<265.5 430>
VStem: 39 137<273 397 273 455> 560 127<0 322 73 322 104 378 426 455.5>
LayerCount: 2
Fore
SplineSet
1014 0 m 1,0,-1
 560 0 l 1,1,-1
 560 73 l 1,2,3
 482 -10 482 -10 347 -10 c 0,4,5
 187 -10 187 -10 113 89 c 128,-1,6
 39 188 39 188 39 360 c 0,7,8
 39 510.654320988 39 510.654320988 119.5 616 c 0,9,10
 160 669 160 669 230.5 699.5 c 128,-1,11
 301 730 301 730 399 730 c 128,-1,12
 497 730 497 730 560 670 c 1,13,-1
 560 720 l 1,14,-1
 1010 720 l 1,15,-1
 1003 522 l 1,16,-1
 919 522 l 1,17,-1
 912 587 l 2,18,19
 910 605 910 605 901.5 610.5 c 128,-1,20
 893 616 893 616 874 616 c 2,21,-1
 687 616 l 1,22,-1
 687 426 l 1,23,-1
 898 426 l 1,24,-1
 898 322 l 1,25,-1
 687 322 l 1,26,-1
 687 104 l 1,27,-1
 875 104 l 2,28,29
 894 104 894 104 903 109.5 c 128,-1,30
 912 115 912 115 913 133 c 2,31,-1
 920 203 l 1,32,-1
 1007 203 l 1,33,-1
 1014 0 l 1,0,-1
507 560.5 m 128,-1,35
 454 626 454 626 362.5 626 c 128,-1,36
 271 626 271 626 233 591 c 0,37,38
 206 566 206 566 191 495.5 c 128,-1,39
 176 425 176 425 176 354 c 0,40,41
 176 231 176 231 229.5 162.5 c 128,-1,42
 283 94 283 94 375.5 94 c 128,-1,43
 468 94 468 94 503 129 c 0,44,45
 528 153 528 153 543 218.5 c 128,-1,46
 558 284 558 284 560 353 c 1,47,-1
 560 378 l 2,48,34
 560 495 560 495 507 560.5 c 128,-1,35
EndSplineSet
EndChar

StartChar: Ograve
Encoding: 210 210 124
Width: 741
Flags: HMW
HStem: -10 104<315.5 410.5 315.5 475.5> 626 104<330.5 425.5> 730 25<374.5 392.5 374.5 506> 925 20G<270 270>
VStem: 39 137<273 397 273 455> 565 137<323 447>
LayerCount: 2
Fore
SplineSet
621.5 104 m 0,0,1
 581 51 581 51 510.5 20.5 c 128,-1,2
 440 -10 440 -10 347 -10 c 0,3,4
 187 -10 187 -10 113 89 c 128,-1,5
 39 188 39 188 39 360 c 0,6,7
 39 510.654320988 39 510.654320988 119.5 616 c 0,8,9
 160 669 160 669 230.5 699.5 c 128,-1,10
 301 730 301 730 394 730 c 0,11,12
 554 730 554 730 628 631 c 128,-1,13
 702 532 702 532 702 370.672839506 c 128,-1,14
 702 209.345679012 702 209.345679012 621.5 104 c 0,0,1
511.5 557.5 m 128,-1,16
 458 626 458 626 364.5 626 c 128,-1,17
 271 626 271 626 233 591 c 0,18,19
 206 566 206 566 191 495.5 c 128,-1,20
 176 425 176 425 176 354 c 0,21,22
 176 231 176 231 229.5 162.5 c 128,-1,23
 283 94 283 94 377.5 94 c 128,-1,24
 472 94 472 94 508 129 c 0,25,26
 534 154 534 154 549.5 225 c 128,-1,27
 565 296 565 296 565 366 c 0,28,15
 565 489 565 489 511.5 557.5 c 128,-1,16
207 859 m 1,29,-1
 270 945 l 1,30,-1
 441 797 l 1,31,32
 412 755 412 755 379 755 c 0,33,34
 365 755 365 755 349 765 c 2,35,-1
 207 859 l 1,29,-1
EndSplineSet
EndChar

StartChar: Oacute
Encoding: 211 211 125
Width: 741
Flags: HMW
HStem: -10 104<315.5 410.5 315.5 475.5> 626 104<330.5 425.5> 730 24<346.5 364.5 346.5 506> 924 20G<469 469>
VStem: 39 137<273 397 273 455> 565 137<323 447>
LayerCount: 2
Fore
SplineSet
621.5 104 m 0,0,1
 581 51 581 51 510.5 20.5 c 128,-1,2
 440 -10 440 -10 347 -10 c 0,3,4
 187 -10 187 -10 113 89 c 128,-1,5
 39 188 39 188 39 360 c 0,6,7
 39 510.654320988 39 510.654320988 119.5 616 c 0,8,9
 160 669 160 669 230.5 699.5 c 128,-1,10
 301 730 301 730 394 730 c 0,11,12
 554 730 554 730 628 631 c 128,-1,13
 702 532 702 532 702 370.672839506 c 128,-1,14
 702 209.345679012 702 209.345679012 621.5 104 c 0,0,1
511.5 557.5 m 128,-1,16
 458 626 458 626 364.5 626 c 128,-1,17
 271 626 271 626 233 591 c 0,18,19
 206 566 206 566 191 495.5 c 128,-1,20
 176 425 176 425 176 354 c 0,21,22
 176 231 176 231 229.5 162.5 c 128,-1,23
 283 94 283 94 377.5 94 c 128,-1,24
 472 94 472 94 508 129 c 0,25,26
 534 154 534 154 549.5 225 c 128,-1,27
 565 296 565 296 565 366 c 0,28,15
 565 489 565 489 511.5 557.5 c 128,-1,16
469 944 m 1,29,-1
 532 858 l 1,30,-1
 390 764 l 2,31,32
 374 754 374 754 360 754 c 0,33,34
 327 754 327 754 298 796 c 1,35,-1
 469 944 l 1,29,-1
EndSplineSet
EndChar

StartChar: Ocircumflex
Encoding: 212 212 126
Width: 741
Flags: HMW
HStem: -10 104<315.5 410.5 315.5 475.5> 626 104<330.5 425.5> 898 20G<317 426 426 426>
VStem: 39 137<273 397 273 455> 565 137<323 447>
LayerCount: 2
Fore
SplineSet
621.5 104 m 0,0,1
 581 51 581 51 510.5 20.5 c 128,-1,2
 440 -10 440 -10 347 -10 c 0,3,4
 187 -10 187 -10 113 89 c 128,-1,5
 39 188 39 188 39 360 c 0,6,7
 39 510.654320988 39 510.654320988 119.5 616 c 0,8,9
 160 669 160 669 230.5 699.5 c 128,-1,10
 301 730 301 730 394 730 c 0,11,12
 554 730 554 730 628 631 c 128,-1,13
 702 532 702 532 702 370.672839506 c 128,-1,14
 702 209.345679012 702 209.345679012 621.5 104 c 0,0,1
511.5 557.5 m 128,-1,16
 458 626 458 626 364.5 626 c 128,-1,17
 271 626 271 626 233 591 c 0,18,19
 206 566 206 566 191 495.5 c 128,-1,20
 176 425 176 425 176 354 c 0,21,22
 176 231 176 231 229.5 162.5 c 128,-1,23
 283 94 283 94 377.5 94 c 128,-1,24
 472 94 472 94 508 129 c 0,25,26
 534 154 534 154 549.5 225 c 128,-1,27
 565 296 565 296 565 366 c 0,28,15
 565 489 565 489 511.5 557.5 c 128,-1,16
317 918 m 1,29,-1
 426 918 l 1,30,-1
 544 792 l 1,31,-1
 485 744 l 1,32,-1
 371 842 l 1,33,-1
 257 744 l 1,34,-1
 198 792 l 1,35,-1
 317 918 l 1,29,-1
EndSplineSet
EndChar

StartChar: Otilde
Encoding: 213 213 127
Width: 741
Flags: HMW
HStem: -10 104<315.5 410.5 315.5 475.5> 626 104<330.5 425.5> 760 104<414.5 447 414.5 449> 797 67
VStem: 39 137<273 397 273 455> 565 137<323 447>
LayerCount: 2
Fore
SplineSet
621.5 104 m 0,0,1
 581 51 581 51 510.5 20.5 c 128,-1,2
 440 -10 440 -10 347 -10 c 0,3,4
 187 -10 187 -10 113 89 c 128,-1,5
 39 188 39 188 39 360 c 0,6,7
 39 510.654320988 39 510.654320988 119.5 616 c 0,8,9
 160 669 160 669 230.5 699.5 c 128,-1,10
 301 730 301 730 394 730 c 0,11,12
 554 730 554 730 628 631 c 128,-1,13
 702 532 702 532 702 370.672839506 c 128,-1,14
 702 209.345679012 702 209.345679012 621.5 104 c 0,0,1
511.5 557.5 m 128,-1,16
 458 626 458 626 364.5 626 c 128,-1,17
 271 626 271 626 233 591 c 0,18,19
 206 566 206 566 191 495.5 c 128,-1,20
 176 425 176 425 176 354 c 0,21,22
 176 231 176 231 229.5 162.5 c 128,-1,23
 283 94 283 94 377.5 94 c 128,-1,24
 472 94 472 94 508 129 c 0,25,26
 534 154 534 154 549.5 225 c 128,-1,27
 565 296 565 296 565 366 c 0,28,15
 565 489 565 489 511.5 557.5 c 128,-1,16
357.5 778.5 m 128,-1,30
 313 797 313 797 285.5 797 c 128,-1,31
 258 797 258 797 218 770 c 1,32,-1
 194 830 l 1,33,34
 240 899 240 899 298 899 c 0,35,36
 328 899 328 899 372 881.5 c 128,-1,37
 416 864 416 864 442 864 c 128,-1,38
 468 864 468 864 502 888 c 1,39,-1
 526 828 l 1,40,41
 483 760 483 760 429 760 c 0,42,29
 402 760 402 760 357.5 778.5 c 128,-1,30
EndSplineSet
EndChar

StartChar: multiply
Encoding: 215 215 129
Width: 496
Flags: HMW
HStem: 23 21G<109 109> 426 20G<112 112>
LayerCount: 2
Fore
SplineSet
109 23 m 1,0,-1
 39 103 l 1,1,-1
 174 236 l 1,2,-1
 39 373 l 1,3,-1
 112 446 l 1,4,-1
 247 308 l 1,5,-1
 384 443 l 1,6,-1
 457 371 l 1,7,-1
 320 234 l 1,8,-1
 453 99 l 1,9,-1
 381 26 l 1,10,-1
 247 161 l 1,11,-1
 109 23 l 1,0,-1
EndSplineSet
EndChar

StartChar: Ugrave
Encoding: 217 217 130
Width: 725
Flags: HMW
HStem: -10 105<342.5 399 342.5 417.5> 700 20G<18 299 299 299 430 707 707 707> 925 20G<262 262>
VStem: 95 127<232 248 248 594> 507 123<256 594>
LayerCount: 2
Fore
SplineSet
630 594 m 2,0,-1
 630 232 l 2,1,2
 630 181 630 181 613.5 139 c 128,-1,3
 597 97 597 97 570 70 c 128,-1,4
 543 43 543 43 506.5 24.5 c 0,5,6
 438.432432432 -10 438.432432432 -10 352 -10 c 0,7,8
 226 -10 226 -10 160.5 52.5 c 128,-1,9
 95 115 95 115 95 232 c 2,10,-1
 95 594 l 2,11,12
 95 614 95 614 89.5 621.5 c 128,-1,13
 84 629 84 629 66 632 c 2,14,-1
 18 641 l 1,15,-1
 18 720 l 1,16,-1
 299 720 l 1,17,-1
 299 641 l 1,18,-1
 251 632 l 1,19,20
 233 630 233 630 227.5 622 c 128,-1,21
 222 614 222 614 222 594 c 2,22,-1
 222 248 l 2,23,24
 222 165 222 165 267.5 130 c 128,-1,25
 313 95 313 95 380 95 c 128,-1,26
 447 95 447 95 477 119 c 128,-1,27
 507 143 507 143 507 256 c 2,28,-1
 507 594 l 2,29,30
 507 614 507 614 501.5 621.5 c 128,-1,31
 496 629 496 629 478 632 c 2,32,-1
 430 641 l 1,33,-1
 430 720 l 1,34,-1
 707 720 l 1,35,-1
 707 641 l 1,36,-1
 659 632 l 1,37,38
 641 630 641 630 635.5 622 c 128,-1,39
 630 614 630 614 630 594 c 2,0,-1
199 859 m 1,40,-1
 262 945 l 1,41,-1
 433 797 l 1,42,43
 404 755 404 755 371 755 c 0,44,45
 357 755 357 755 341 765 c 2,46,-1
 199 859 l 1,40,-1
EndSplineSet
EndChar

StartChar: Uacute
Encoding: 218 218 131
Width: 725
Flags: HMW
HStem: -10 105<342.5 399 342.5 417.5> 720 34 924 20G<461 461>
VStem: 95 127<232 248 248 594> 507 123<256 594>
LayerCount: 2
Fore
SplineSet
630 594 m 2,0,-1
 630 232 l 2,1,2
 630 181 630 181 613.5 139 c 128,-1,3
 597 97 597 97 570 70 c 128,-1,4
 543 43 543 43 506.5 24.5 c 0,5,6
 438.432432432 -10 438.432432432 -10 352 -10 c 0,7,8
 226 -10 226 -10 160.5 52.5 c 128,-1,9
 95 115 95 115 95 232 c 2,10,-1
 95 594 l 2,11,12
 95 614 95 614 89.5 621.5 c 128,-1,13
 84 629 84 629 66 632 c 2,14,-1
 18 641 l 1,15,-1
 18 720 l 1,16,-1
 299 720 l 1,17,-1
 299 641 l 1,18,-1
 251 632 l 1,19,20
 233 630 233 630 227.5 622 c 128,-1,21
 222 614 222 614 222 594 c 2,22,-1
 222 248 l 2,23,24
 222 165 222 165 267.5 130 c 128,-1,25
 313 95 313 95 380 95 c 128,-1,26
 447 95 447 95 477 119 c 128,-1,27
 507 143 507 143 507 256 c 2,28,-1
 507 594 l 2,29,30
 507 614 507 614 501.5 621.5 c 128,-1,31
 496 629 496 629 478 632 c 2,32,-1
 430 641 l 1,33,-1
 430 720 l 1,34,-1
 707 720 l 1,35,-1
 707 641 l 1,36,-1
 659 632 l 1,37,38
 641 630 641 630 635.5 622 c 128,-1,39
 630 614 630 614 630 594 c 2,0,-1
461 944 m 1,40,-1
 524 858 l 1,41,-1
 382 764 l 2,42,43
 366 754 366 754 352 754 c 0,44,45
 319 754 319 754 290 796 c 1,46,-1
 461 944 l 1,40,-1
EndSplineSet
EndChar

StartChar: Ucircumflex
Encoding: 219 219 132
Width: 725
Flags: HMW
HStem: -10 105<342.5 399 342.5 417.5> 700 20G<18 299 299 299 430 707 707 707> 898 20G<309 418 418 418>
VStem: 95 127<232 248 248 594> 507 123<256 594>
LayerCount: 2
Fore
SplineSet
630 594 m 2,0,-1
 630 232 l 2,1,2
 630 181 630 181 613.5 139 c 128,-1,3
 597 97 597 97 570 70 c 128,-1,4
 543 43 543 43 506.5 24.5 c 0,5,6
 438.432432432 -10 438.432432432 -10 352 -10 c 0,7,8
 226 -10 226 -10 160.5 52.5 c 128,-1,9
 95 115 95 115 95 232 c 2,10,-1
 95 594 l 2,11,12
 95 614 95 614 89.5 621.5 c 128,-1,13
 84 629 84 629 66 632 c 2,14,-1
 18 641 l 1,15,-1
 18 720 l 1,16,-1
 299 720 l 1,17,-1
 299 641 l 1,18,-1
 251 632 l 1,19,20
 233 630 233 630 227.5 622 c 128,-1,21
 222 614 222 614 222 594 c 2,22,-1
 222 248 l 2,23,24
 222 165 222 165 267.5 130 c 128,-1,25
 313 95 313 95 380 95 c 128,-1,26
 447 95 447 95 477 119 c 128,-1,27
 507 143 507 143 507 256 c 2,28,-1
 507 594 l 2,29,30
 507 614 507 614 501.5 621.5 c 128,-1,31
 496 629 496 629 478 632 c 2,32,-1
 430 641 l 1,33,-1
 430 720 l 1,34,-1
 707 720 l 1,35,-1
 707 641 l 1,36,-1
 659 632 l 1,37,38
 641 630 641 630 635.5 622 c 128,-1,39
 630 614 630 614 630 594 c 2,0,-1
309 918 m 1,40,-1
 418 918 l 1,41,-1
 536 792 l 1,42,-1
 477 744 l 1,43,-1
 363 842 l 1,44,-1
 249 744 l 1,45,-1
 190 792 l 1,46,-1
 309 918 l 1,40,-1
EndSplineSet
EndChar

StartChar: Udieresis
Encoding: 220 220 133
Width: 725
Flags: HMW
HStem: -10 105<342.5 399 342.5 417.5> 700 20G<18 299 299 299 430 707 707 707> 757 131<231 277 446 492>
VStem: 95 127<232 248 248 594> 184 115<641 839> 184 141<796 839> 399 141<796 839> 430 110<641 840.5 720 840.5> 507 123<256 594>
LayerCount: 2
Fore
SplineSet
630 594 m 2,0,-1
 630 232 l 2,1,2
 630 181 630 181 613.5 139 c 128,-1,3
 597 97 597 97 570 70 c 128,-1,4
 543 43 543 43 506.5 24.5 c 0,5,6
 438.432432432 -10 438.432432432 -10 352 -10 c 0,7,8
 226 -10 226 -10 160.5 52.5 c 128,-1,9
 95 115 95 115 95 232 c 2,10,-1
 95 594 l 2,11,12
 95 614 95 614 89.5 621.5 c 128,-1,13
 84 629 84 629 66 632 c 2,14,-1
 18 641 l 1,15,-1
 18 720 l 1,16,-1
 299 720 l 1,17,-1
 299 641 l 1,18,-1
 251 632 l 1,19,20
 233 630 233 630 227.5 622 c 128,-1,21
 222 614 222 614 222 594 c 2,22,-1
 222 248 l 2,23,24
 222 165 222 165 267.5 130 c 128,-1,25
 313 95 313 95 380 95 c 128,-1,26
 447 95 447 95 477 119 c 128,-1,27
 507 143 507 143 507 256 c 2,28,-1
 507 594 l 2,29,30
 507 614 507 614 501.5 621.5 c 128,-1,31
 496 629 496 629 478 632 c 2,32,-1
 430 641 l 1,33,-1
 430 720 l 1,34,-1
 707 720 l 1,35,-1
 707 641 l 1,36,-1
 659 632 l 1,37,38
 641 630 641 630 635.5 622 c 128,-1,39
 630 614 630 614 630 594 c 2,0,-1
313 871.5 m 128,-1,41
 325 855 325 855 325 820.5 c 128,-1,42
 325 786 325 786 307.5 771.5 c 128,-1,43
 290 757 290 757 254 757 c 128,-1,44
 218 757 218 757 201 770 c 128,-1,45
 184 783 184 783 184 818.5 c 128,-1,46
 184 854 184 854 199.5 871 c 128,-1,47
 215 888 215 888 258 888 c 128,-1,40
 301 888 301 888 313 871.5 c 128,-1,41
528 871.5 m 128,-1,49
 540 855 540 855 540 820.5 c 128,-1,50
 540 786 540 786 522.5 771.5 c 128,-1,51
 505 757 505 757 469 757 c 128,-1,52
 433 757 433 757 416 770 c 128,-1,53
 399 783 399 783 399 818.5 c 128,-1,54
 399 854 399 854 414.5 871 c 128,-1,55
 430 888 430 888 473 888 c 128,-1,48
 516 888 516 888 528 871.5 c 128,-1,49
EndSplineSet
EndChar

StartChar: Yacute
Encoding: 221 221 134
Width: 700
Flags: HMW
HStem: 0 21G<204 493 204 204> 720 34<2 344.5 299 344.5> 924 20G<449 449>
VStem: 285 127<126 238 113.5 248 113.5 248>
LayerCount: 2
Fore
SplineSet
604 594 m 2,0,-1
 412 238 l 1,1,-1
 412 126 l 2,2,3
 412 106 412 106 417.5 98.5 c 128,-1,4
 423 91 423 91 441 88 c 2,5,-1
 493 79 l 1,6,-1
 493 0 l 1,7,-1
 204 0 l 1,8,-1
 204 79 l 1,9,-1
 256 88 l 2,10,11
 274 91 274 91 279.5 98.5 c 128,-1,12
 285 106 285 106 285 126 c 2,13,-1
 285 248 l 1,14,-1
 96 594 l 2,15,16
 84 616 84 616 74 625 c 128,-1,17
 64 634 64 634 46 636 c 2,18,-1
 2 641 l 1,19,-1
 2 720 l 1,20,-1
 299 720 l 1,21,-1
 299 642 l 1,22,-1
 264 636 l 2,23,24
 231 631 231 631 231 617 c 0,25,26
 231 612 231 612 240 594 c 2,27,-1
 361 360 l 1,28,-1
 477 594 l 2,29,30
 484 607 484 607 484 615.5 c 0,31,32
 484 624 484 624 476.5 628 c 128,-1,33
 469 632 469 632 449 635 c 2,34,-1
 414 641 l 1,35,-1
 414 720 l 1,36,-1
 698 720 l 1,37,-1
 698 641 l 1,38,-1
 654 636 l 1,39,40
 633 632 633 632 625 624.5 c 128,-1,41
 617 617 617 617 604 594 c 2,0,-1
449 944 m 1,42,-1
 512 858 l 1,43,-1
 370 764 l 2,44,45
 354 754 354 754 340 754 c 0,46,47
 307 754 307 754 278 796 c 1,48,-1
 449 944 l 1,42,-1
EndSplineSet
EndChar

StartChar: germandbls
Encoding: 223 223 135
Width: 634
Flags: HMW
HStem: -10 21G<398.5 480.5> 0 71 0 149<34 346> 695 95<315.5 367>
VStem: 34 195<0 74 74 74> 109 120<118 403 403 403 490 550 550 606 0 631> 271 115<353.5 425 353.5 439> 430 124<535 645.5> 496 120<107.5 149>
LayerCount: 2
Fore
SplineSet
338 695 m 0,0,1
 280 695 280 695 254.5 675 c 128,-1,2
 229 655 229 655 229 606 c 2,3,-1
 229 0 l 1,4,-1
 34 0 l 1,5,-1
 34 74 l 1,6,-1
 86 80 l 2,7,8
 101 81 101 81 105 88.5 c 128,-1,9
 109 96 109 96 109 118 c 2,10,-1
 109 403 l 1,11,-1
 30 403 l 1,12,-1
 46 481 l 1,13,-1
 109 490 l 1,14,-1
 109 550 l 2,15,16
 109 669 109 669 176.5 729.5 c 128,-1,17
 244 790 244 790 366 790 c 0,18,19
 452 790 452 790 503 749.5 c 128,-1,20
 554 709 554 709 554 626 c 0,21,22
 554 575 554 575 536.5 539.5 c 128,-1,23
 519 504 519 504 494.5 486 c 128,-1,24
 470 468 470 468 445.5 454 c 0,25,26
 386 420 386 420 386 381 c 0,27,28
 386 355.090909091 386 355.090909091 393 345.545454545 c 128,-1,29
 400 336 400 336 403.5 331.5 c 128,-1,30
 407 327 407 327 418.5 320.5 c 128,-1,31
 430 314 430 314 435 312 c 128,-1,32
 440 310 440 310 457 302.5 c 128,-1,33
 474 295 474 295 481 292 c 0,34,35
 555 258 555 258 585.5 229 c 128,-1,36
 616 200 616 200 616 145 c 0,37,38
 616 74 616 74 562.5 32 c 128,-1,39
 509 -10 509 -10 429.5 -10 c 128,-1,40
 350 -10 350 -10 274 25 c 1,41,-1
 280 149 l 1,42,-1
 346 149 l 1,43,-1
 354 91 l 1,44,45
 392 71 392 71 424 71 c 0,46,47
 496 71 496 71 496 130 c 0,48,49
 496 156 496 156 474.5 172.5 c 128,-1,50
 453 189 453 189 393 212.5 c 128,-1,51
 333 236 333 236 302 271 c 128,-1,52
 271 306 271 306 271 356 c 128,-1,53
 271 406 271 406 287.5 431 c 128,-1,54
 304 456 304 456 327 469 c 128,-1,55
 350 482 350 482 373.5 496 c 128,-1,56
 397 510 397 510 413.5 540.5 c 128,-1,57
 430 571 430 571 430 619 c 0,58,59
 430 695 430 695 338 695 c 0,0,1
EndSplineSet
EndChar

StartChar: aacute
Encoding: 225 225 137
Width: 544
Flags: HMW
HStem: -10 90<201.5 217.5> 0 21G<343 522 343 343> 330 165<76 300 76 300> 412 83<229 267> 495 59<248 267 248 300> 737 20G<351 351>
VStem: 40 123<114 148.5 114 164> 329 120<134 212 212 212 291 349 349 351>
LayerCount: 2
Fore
SplineSet
449 351 m 2,0,-1
 449 109 l 2,1,2
 449 83 449 83 471 81 c 1,3,-1
 522 74 l 1,4,-1
 522 0 l 1,5,-1
 343 0 l 1,6,-1
 335 59 l 1,7,8
 266 -10 266 -10 189 -10 c 0,9,10
 112 -10 112 -10 76 26 c 128,-1,11
 40 62 40 62 40 123.5 c 0,12,13
 40 185 40 185 78.5 224 c 128,-1,14
 117 263 117 263 190 273 c 2,15,-1
 329 291 l 1,16,-1
 329 349 l 2,17,18
 329 412 329 412 242 412 c 0,19,20
 203 412 203 412 167 396 c 1,21,-1
 155 330 l 1,22,-1
 76 330 l 1,23,-1
 67 453 l 1,24,25
 137 478 137 478 171 486.5 c 128,-1,26
 205 495 205 495 248 495 c 0,27,28
 334 495 334 495 391.5 459.5 c 128,-1,29
 449 424 449 424 449 351 c 2,0,-1
329 212 m 1,30,-1
 219 194 l 2,31,32
 163 184 163 184 163 130 c 0,33,34
 163 80 163 80 219 80 c 0,35,36
 247 80 247 80 282 99.5 c 128,-1,37
 317 119 317 119 329 134 c 1,38,-1
 329 212 l 1,30,-1
351 757 m 1,39,-1
 425 680 l 1,40,-1
 297 568 l 2,41,42
 282 554 282 554 258.5 554 c 0,43,44
 235 554 235 554 202 587 c 1,45,-1
 351 757 l 1,39,-1
EndSplineSet
EndChar

StartChar: atilde
Encoding: 227 227 139
Width: 544
Flags: HMW
HStem: -10 90<201.5 217.5> 0 21G<343 522 343 343> 330 165<76 300 76 300> 412 83<229 267> 560 104<297.5 330 297.5 332> 597 67
VStem: 40 123<114 148.5 114 164> 329 120<134 212 212 212 291 349 349 351>
LayerCount: 2
Fore
SplineSet
449 351 m 2,0,-1
 449 109 l 2,1,2
 449 83 449 83 471 81 c 1,3,-1
 522 74 l 1,4,-1
 522 0 l 1,5,-1
 343 0 l 1,6,-1
 335 59 l 1,7,8
 266 -10 266 -10 189 -10 c 128,-1,9
 112 -10 112 -10 76 26 c 128,-1,10
 40 62 40 62 40 123.5 c 128,-1,11
 40 185 40 185 78.5 224 c 128,-1,12
 117 263 117 263 190 273 c 2,13,-1
 329 291 l 1,14,-1
 329 349 l 2,15,16
 329 412 329 412 242 412 c 0,17,18
 203 412 203 412 167 396 c 1,19,-1
 155 330 l 1,20,-1
 76 330 l 1,21,-1
 67 453 l 1,22,23
 137 478 137 478 171 486.5 c 128,-1,24
 205 495 205 495 248 495 c 0,25,26
 334 495 334 495 391.5 459.5 c 128,-1,27
 449 424 449 424 449 351 c 2,0,-1
329 212 m 1,28,-1
 219 194 l 2,29,30
 163 184 163 184 163 130 c 0,31,32
 163 80 163 80 219 80 c 0,33,34
 247 80 247 80 282 99.5 c 128,-1,35
 317 119 317 119 329 134 c 1,36,-1
 329 212 l 1,28,-1
240.5 578.5 m 128,-1,38
 196 597 196 597 169 597 c 128,-1,39
 142 597 142 597 101 570 c 1,40,-1
 77 630 l 1,41,42
 123 699 123 699 181 699 c 0,43,44
 211 699 211 699 255 681.5 c 128,-1,45
 299 664 299 664 325 664 c 128,-1,46
 351 664 351 664 385 688 c 1,47,-1
 409 628 l 1,48,49
 366 560 366 560 312 560 c 0,50,37
 285 560 285 560 240.5 578.5 c 128,-1,38
EndSplineSet
EndChar

StartChar: aring
Encoding: 229 229 141
Width: 544
Flags: HMW
HStem: -10 90<201.5 217.5> 0 21G<343 522 343 343> 330 165<76 300 76 300> 412 83<229 267> 557 62<250 274.5 250 293> 697 63<246.5 271>
VStem: 40 123<114 148.5 114 164> 150 70<643 667.5 643 681.5> 301 70<648.5 673> 329 120<134 212 212 212 291 349 349 351>
LayerCount: 2
Fore
SplineSet
449 351 m 2,0,-1
 449 109 l 2,1,2
 449 83 449 83 471 81 c 1,3,-1
 522 74 l 1,4,-1
 522 0 l 1,5,-1
 343 0 l 1,6,-1
 335 59 l 1,7,8
 266 -10 266 -10 189 -10 c 0,9,10
 112 -10 112 -10 76 26 c 128,-1,11
 40 62 40 62 40 123.5 c 0,12,13
 40 185 40 185 78.5 224 c 128,-1,14
 117 263 117 263 190 273 c 2,15,-1
 329 291 l 1,16,-1
 329 349 l 2,17,18
 329 412 329 412 242 412 c 0,19,20
 203 412 203 412 167 396 c 1,21,-1
 155 330 l 1,22,-1
 76 330 l 1,23,-1
 67 453 l 1,24,25
 137 478 137 478 171 486.5 c 128,-1,26
 205 495 205 495 248 495 c 0,27,28
 334 495 334 495 391.5 459.5 c 128,-1,29
 449 424 449 424 449 351 c 2,0,-1
329 212 m 1,30,-1
 219 194 l 2,31,32
 163 184 163 184 163 130 c 0,33,34
 163 80 163 80 219 80 c 0,35,36
 247 80 247 80 282 99.5 c 128,-1,37
 317 119 317 119 329 134 c 1,38,-1
 329 212 l 1,30,-1
371 660 m 128,-1,40
 371 620 371 620 339.5 588.5 c 128,-1,41
 308 557 308 557 257.5 557 c 0,42,43
 207 557 207 557 178.5 587 c 128,-1,44
 150 617 150 617 150 657 c 128,-1,45
 150 697 150 697 181.5 728.5 c 128,-1,46
 213 760 213 760 263.5 760 c 0,47,48
 314 760 314 760 342.5 730 c 128,-1,39
 371 700 371 700 371 660 c 128,-1,40
301 662 m 0,49,50
 301 678 301 678 289 687.5 c 128,-1,51
 277 697 277 697 260 697 c 0,52,53
 220 697 220 697 220 654 c 0,54,55
 220 638 220 638 232 628.5 c 128,-1,56
 244 619 244 619 261 619 c 0,57,58
 301 619 301 619 301 662 c 0,49,50
EndSplineSet
EndChar

StartChar: ae
Encoding: 230 230 142
Width: 796
Flags: HMW
HStem: -10 90<201.5 214> 330 165<76 298.5 76 298.5> 406 89<520.5 591.5>
VStem: 40 123<114 148.5 114 164> 329 115<134 212 212 212 291 349 349 351 101 372> 642 117<307 307>
LayerCount: 2
Fore
SplineSet
183 -10 m 0,0,1
 112 -10 112 -10 76 26 c 128,-1,2
 40 62 40 62 40 123.5 c 0,3,4
 40 185 40 185 78.5 224 c 128,-1,5
 117 263 117 263 190 273 c 2,6,-1
 329 291 l 1,7,-1
 329 349 l 2,8,9
 329 412 329 412 242 412 c 0,10,11
 203 412 203 412 167 396 c 1,12,-1
 155 330 l 1,13,-1
 76 330 l 1,14,-1
 67 453 l 1,15,16
 137 478 137 478 171 486.5 c 128,-1,17
 205 495 205 495 248 495 c 0,18,19
 332 495 332 495 388 459.5 c 128,-1,20
 444 424 444 424 444 351 c 2,21,-1
 444 101 l 1,22,-1
 366 88 l 1,23,24
 339 50 339 50 284 20 c 128,-1,25
 229 -10 229 -10 183 -10 c 0,0,1
329 212 m 1,26,-1
 219 194 l 2,27,28
 163 184 163 184 163 130 c 0,29,30
 163 80 163 80 219 80 c 0,31,32
 247 80 247 80 282 99.5 c 128,-1,33
 317 119 317 119 329 134 c 1,34,-1
 329 212 l 1,26,-1
759 234 m 1,35,-1
 451 212 l 1,36,37
 459 79 459 79 573 79 c 0,38,39
 636 79 636 79 738 108 c 1,40,-1
 757 36 l 1,41,42
 639 -10 639 -10 545 -10 c 0,43,44
 405 -10 405 -10 352 95 c 1,45,-1
 376 404 l 1,46,47
 439 495 439 495 558 495 c 0,48,49
 677 495 677 495 718 430.5 c 128,-1,50
 759 366 759 366 759 234 c 1,35,-1
449 291 m 1,51,-1
 642 307 l 1,52,53
 640 406 640 406 557 406 c 0,54,55
 497 406 497 406 477.5 383.5 c 128,-1,56
 458 361 458 361 449 291 c 1,51,-1
EndSplineSet
EndChar

StartChar: eacute
Encoding: 233 233 145
Width: 507
Flags: HMW
VStem: 16 157 336 151
LayerCount: 2
Fore
SplineSet
470 234 m 1,0,-1
 162 212 l 1,1,2
 170 79 170 79 284 79 c 0,3,4
 348 79 348 79 449 108 c 1,5,-1
 468 36 l 1,6,7
 350 -10 350 -10 247 -10 c 0,8,9
 144 -10 144 -10 89 56 c 128,-1,10
 34 122 34 122 34 237 c 128,-1,11
 34 352 34 352 97 423.5 c 128,-1,12
 160 495 160 495 274 495 c 128,-1,13
 388 495 388 495 429 430.5 c 128,-1,14
 470 366 470 366 470 234 c 1,0,-1
160 291 m 1,15,-1
 353 307 l 1,16,17
 351 406 351 406 268 406 c 0,18,19
 208 406 208 406 188.5 383.5 c 128,-1,20
 169 361 169 361 160 291 c 1,15,-1
349 757 m 1,21,-1
 423 680 l 1,22,-1
 295 568 l 2,23,24
 280 554 280 554 256.5 554 c 0,25,26
 233 554 233 554 200 587 c 1,27,-1
 349 757 l 1,21,-1
EndSplineSet
EndChar

StartChar: edieresis
Encoding: 235 235 147
Width: 507
Flags: HMW
VStem: 16 157 336 151
LayerCount: 2
Fore
SplineSet
470 234 m 1,0,-1
 162 212 l 1,1,2
 170 79 170 79 284 79 c 0,3,4
 348 79 348 79 449 108 c 1,5,-1
 468 36 l 1,6,7
 350 -10 350 -10 247 -10 c 128,-1,8
 144 -10 144 -10 89 56 c 128,-1,9
 34 122 34 122 34 237 c 128,-1,10
 34 352 34 352 97 423.5 c 128,-1,11
 160 495 160 495 274 495 c 128,-1,12
 388 495 388 495 429 430.5 c 128,-1,13
 470 366 470 366 470 234 c 1,0,-1
160 291 m 1,14,-1
 353 307 l 1,15,16
 351 406 351 406 268 406 c 0,17,18
 208 406 208 406 188.5 383.5 c 128,-1,19
 169 361 169 361 160 291 c 1,14,-1
203 671.5 m 128,-1,21
 215 655 215 655 215 620.5 c 128,-1,22
 215 586 215 586 197.5 571.5 c 128,-1,23
 180 557 180 557 144 557 c 128,-1,24
 108 557 108 557 91 570 c 128,-1,25
 74 583 74 583 74 618.5 c 128,-1,26
 74 654 74 654 89.5 671 c 128,-1,27
 105 688 105 688 148 688 c 128,-1,20
 191 688 191 688 203 671.5 c 128,-1,21
418 671.5 m 128,-1,29
 430 655 430 655 430 620.5 c 128,-1,30
 430 586 430 586 412.5 571.5 c 128,-1,31
 395 557 395 557 359 557 c 128,-1,32
 323 557 323 557 306 570 c 128,-1,33
 289 583 289 583 289 618.5 c 128,-1,34
 289 654 289 654 304.5 671 c 128,-1,35
 320 688 320 688 363 688 c 128,-1,28
 406 688 406 688 418 671.5 c 128,-1,29
EndSplineSet
EndChar

StartChar: igrave
Encoding: 236 236 148
Width: 321
Flags: HMW
HStem: 572 142
VStem: 90 141
LayerCount: 2
Fore
SplineSet
223 109 m 2,0,1
 223 83 223 83 245 81 c 1,2,-1
 296 74 l 1,3,-1
 296 0 l 1,4,-1
 30 0 l 1,5,-1
 30 74 l 1,6,-1
 81 81 l 1,7,8
 103 83 103 83 103 109 c 2,9,-1
 103 377 l 2,10,11
 103 403 103 403 81 405 c 2,12,-1
 30 411 l 1,13,-1
 30 485 l 1,14,-1
 223 485 l 1,15,-1
 223 109 l 2,0,1
-14 680 m 1,16,-1
 60 757 l 1,17,-1
 209 587 l 1,18,19
 176 554 176 554 152.5 554 c 128,-1,20
 129 554 129 554 114 568 c 2,21,-1
 -14 680 l 1,16,-1
EndSplineSet
EndChar

StartChar: iacute
Encoding: 237 237 149
Width: 321
Flags: HMW
HStem: 572 142
VStem: 90 141
LayerCount: 2
Fore
SplineSet
223 109 m 2,0,1
 223 83 223 83 245 81 c 1,2,-1
 296 74 l 1,3,-1
 296 0 l 1,4,-1
 30 0 l 1,5,-1
 30 74 l 1,6,-1
 81 81 l 1,7,8
 103 83 103 83 103 109 c 2,9,-1
 103 377 l 2,10,11
 103 403 103 403 81 405 c 2,12,-1
 30 411 l 1,13,-1
 30 485 l 1,14,-1
 223 485 l 1,15,-1
 223 109 l 2,0,1
217 757 m 1,16,-1
 291 680 l 1,17,-1
 163 568 l 2,18,19
 148 554 148 554 124.5 554 c 128,-1,20
 101 554 101 554 68 587 c 1,21,-1
 217 757 l 1,16,-1
EndSplineSet
EndChar

StartChar: idieresis
Encoding: 239 239 150
Width: 321
Flags: HMW
HStem: 572 142
VStem: 90 141
LayerCount: 2
Fore
SplineSet
223 109 m 2,0,1
 223 83 223 83 245 81 c 1,2,-1
 296 74 l 1,3,-1
 296 0 l 1,4,-1
 30 0 l 1,5,-1
 30 74 l 1,6,-1
 81 81 l 1,7,8
 103 83 103 83 103 109 c 2,9,-1
 103 377 l 2,10,11
 103 403 103 403 81 405 c 2,12,-1
 30 411 l 1,13,-1
 30 485 l 1,14,-1
 223 485 l 1,15,-1
 223 109 l 2,0,1
90 671.5 m 128,-1,17
 102 655 102 655 102 620.5 c 128,-1,18
 102 586 102 586 84.5 571.5 c 128,-1,19
 67 557 67 557 31 557 c 128,-1,20
 -5 557 -5 557 -22 570 c 128,-1,21
 -39 583 -39 583 -39 618.5 c 128,-1,22
 -39 654 -39 654 -23.5 671 c 128,-1,23
 -8 688 -8 688 35 688 c 128,-1,16
 78 688 78 688 90 671.5 c 128,-1,17
305 671.5 m 128,-1,25
 317 655 317 655 317 620.5 c 128,-1,26
 317 586 317 586 299.5 571.5 c 128,-1,27
 282 557 282 557 246 557 c 128,-1,28
 210 557 210 557 193 570 c 128,-1,29
 176 583 176 583 176 618.5 c 128,-1,30
 176 654 176 654 191.5 671 c 128,-1,31
 207 688 207 688 250 688 c 128,-1,24
 293 688 293 688 305 671.5 c 128,-1,25
EndSplineSet
EndChar

StartChar: ntilde
Encoding: 241 241 151
Width: 628
Flags: HMW
HStem: 0 21G<30 296 30 30 412 605 412 412> 398 97<330.5 356> 465 20G<30 199 199 199> 570 104<365.5 398 365.5 400> 607 67
VStem: 103 120<109 351> 412 120<100 109 109 318 318 344> 412 193<0 74 0 318>
LayerCount: 2
Fore
SplineSet
605 0 m 1,0,-1
 412 0 l 1,1,-1
 412 318 l 2,2,3
 412 357 412 357 390.5 377.5 c 128,-1,4
 369 398 369 398 331 398 c 0,5,6
 270 398 270 398 223 351 c 1,7,-1
 223 109 l 2,8,9
 223 83 223 83 245 81 c 1,10,-1
 296 74 l 1,11,-1
 296 0 l 1,12,-1
 30 0 l 1,13,-1
 30 74 l 1,14,-1
 81 81 l 1,15,16
 103 83 103 83 103 109 c 2,17,-1
 103 376 l 2,18,19
 103 402 103 402 81 404 c 1,20,-1
 30 411 l 1,21,-1
 30 485 l 1,22,-1
 199 485 l 1,23,-1
 207 418 l 1,24,25
 236 450 236 450 277 472.5 c 128,-1,26
 318 495 318 495 362 495 c 0,27,28
 450 495 450 495 491 452 c 128,-1,29
 532 409 532 409 532 346 c 2,30,-1
 532 109 l 2,31,32
 532 83 532 83 554 81 c 1,33,-1
 605 74 l 1,34,-1
 605 0 l 1,0,-1
308.5 588.5 m 128,-1,36
 264 607 264 607 237 607 c 128,-1,37
 210 607 210 607 169 580 c 1,38,-1
 145 640 l 1,39,40
 191 709 191 709 249 709 c 0,41,42
 279 709 279 709 323 691.5 c 128,-1,43
 367 674 367 674 393 674 c 128,-1,44
 419 674 419 674 453 698 c 1,45,-1
 477 638 l 1,46,47
 434 570 434 570 380 570 c 0,48,35
 353 570 353 570 308.5 588.5 c 128,-1,36
EndSplineSet
EndChar

StartChar: oacute
Encoding: 243 243 153
Width: 563
Flags: HMW
HStem: -10 89<248 307 248 360.5> 406 89<255.5 314> 495 59<276 295 276 380.5> 737 20G<379 379>
VStem: 34 128<188.5 263 188.5 300.5> 401 128<222 296>
LayerCount: 2
Fore
SplineSet
529 242 m 0,0,1
 529 147.5 529 147.5 469 72.5 c 0,2,3
 439 35 439 35 386 12.5 c 128,-1,4
 333 -10 333 -10 265 -10 c 0,5,6
 146 -10 146 -10 90 58 c 128,-1,7
 34 126 34 126 34 242 c 0,8,9
 34 336 34 336 94 412 c 0,10,11
 124 450 124 450 176.5 472.5 c 128,-1,12
 229 495 229 495 297 495 c 0,13,14
 417 495 417 495 473 427 c 128,-1,15
 529 359 529 359 529 242 c 0,0,1
367.5 363.5 m 128,-1,17
 334 406 334 406 277 406 c 128,-1,18
 220 406 220 406 196 382 c 0,19,20
 179 366 179 366 170.5 323.5 c 128,-1,21
 162 281 162 281 162 238 c 0,22,23
 162 163 162 163 195 121 c 128,-1,24
 228 79 228 79 285 79 c 128,-1,25
 342 79 342 79 366 103 c 0,26,27
 383 119 383 119 392 161.5 c 128,-1,28
 401 204 401 204 401 247 c 0,29,16
 401 321 401 321 367.5 363.5 c 128,-1,17
379 757 m 1,30,-1
 453 680 l 1,31,-1
 325 568 l 2,32,33
 310 554 310 554 286.5 554 c 128,-1,34
 263 554 263 554 230 587 c 1,35,-1
 379 757 l 1,30,-1
EndSplineSet
EndChar

StartChar: otilde
Encoding: 245 245 155
Width: 563
Flags: HMW
HStem: -10 89<248 307 248 360.5> 406 89<255.5 314> 560 104<334.5 367 334.5 369> 597 67
VStem: 34 128<188.5 263 188.5 300.5> 401 128<222 296>
LayerCount: 2
Fore
SplineSet
529 242 m 0,0,1
 529 147.5 529 147.5 469 72.5 c 0,2,3
 439 35 439 35 386 12.5 c 128,-1,4
 333 -10 333 -10 265 -10 c 0,5,6
 146 -10 146 -10 90 58 c 128,-1,7
 34 126 34 126 34 242 c 0,8,9
 34 336 34 336 94 412 c 0,10,11
 124 450 124 450 176.5 472.5 c 128,-1,12
 229 495 229 495 297 495 c 0,13,14
 417 495 417 495 473 427 c 128,-1,15
 529 359 529 359 529 242 c 0,0,1
367.5 363.5 m 128,-1,17
 334 406 334 406 277 406 c 128,-1,18
 220 406 220 406 196 382 c 0,19,20
 179 366 179 366 170.5 323.5 c 128,-1,21
 162 281 162 281 162 238 c 0,22,23
 162 163 162 163 195 121 c 128,-1,24
 228 79 228 79 285 79 c 128,-1,25
 342 79 342 79 366 103 c 0,26,27
 383 119 383 119 392 161.5 c 128,-1,28
 401 204 401 204 401 247 c 0,29,16
 401 321 401 321 367.5 363.5 c 128,-1,17
277.5 578.5 m 128,-1,31
 233 597 233 597 205.5 597 c 128,-1,32
 178 597 178 597 138 570 c 1,33,-1
 114 630 l 1,34,35
 160 699 160 699 218 699 c 0,36,37
 248 699 248 699 292 681.5 c 128,-1,38
 336 664 336 664 362 664 c 128,-1,39
 388 664 388 664 422 688 c 1,40,-1
 446 628 l 1,41,42
 403 560 403 560 349 560 c 0,43,30
 322 560 322 560 277.5 578.5 c 128,-1,31
EndSplineSet
EndChar

StartChar: divide
Encoding: 247 247 157
Width: 522
Flags: HMW
HStem: 0 137<234.5 281.5> 194 97<40 482 40 482> 348 137<234.5 281.5>
VStem: 185 148<40.5 85.5 388.5 433.5>
CounterMasks: 1 e0
LayerCount: 2
Fore
SplineSet
333 412 m 0,0,1
 333 348 333 348 258 348 c 0,2,3
 221 348 221 348 203 362 c 128,-1,4
 185 376 185 376 185 412.5 c 0,5,6
 185 449 185 449 201.5 467 c 128,-1,7
 218 485 218 485 262.5 485 c 0,8,9
 307 485 307 485 320 467.5 c 128,-1,10
 333 450 333 450 333 412 c 0,0,1
333 64 m 0,11,12
 333 0 333 0 258 0 c 0,13,14
 221 0 221 0 203 14 c 128,-1,15
 185 28 185 28 185 64.5 c 0,16,17
 185 101 185 101 201.5 119 c 128,-1,18
 218 137 218 137 262.5 137 c 0,19,20
 307 137 307 137 320 119.5 c 128,-1,21
 333 102 333 102 333 64 c 0,11,12
40 194 m 1,22,-1
 40 291 l 1,23,-1
 482 291 l 1,24,-1
 482 194 l 1,25,-1
 40 194 l 1,22,-1
EndSplineSet
EndChar

StartChar: ugrave
Encoding: 249 249 158
Width: 606
Flags: HMW
VStem: 72 143 372 143
LayerCount: 2
Fore
SplineSet
388 143 m 1,0,-1
 388 376 l 2,1,2
 388 402 388 402 366 404 c 1,3,-1
 315 411 l 1,4,-1
 315 485 l 1,5,-1
 508 485 l 1,6,-1
 508 109 l 2,7,8
 508 83 508 83 530 81 c 1,9,-1
 581 74 l 1,10,-1
 581 0 l 1,11,-1
 412 0 l 1,12,-1
 404 67 l 1,13,14
 379 38 379 38 339 14 c 128,-1,15
 299 -10 299 -10 255 -10 c 0,16,17
 173 -10 173 -10 129 28.5 c 128,-1,18
 85 67 85 67 85 138 c 2,19,-1
 85 376 l 2,20,21
 85 402 85 402 63 404 c 1,22,-1
 12 411 l 1,23,-1
 12 485 l 1,24,-1
 205 485 l 1,25,-1
 205 168 l 2,26,27
 205 84 205 84 278 84 c 0,28,29
 315 84 315 84 349 107 c 128,-1,30
 383 130 383 130 388 143 c 1,0,-1
101 680 m 1,31,-1
 175 757 l 1,32,-1
 324 587 l 1,33,34
 291 554 291 554 267.5 554 c 0,35,36
 244 554 244 554 229 568 c 2,37,-1
 101 680 l 1,31,-1
EndSplineSet
EndChar

StartChar: ucircumflex
Encoding: 251 251 160
Width: 607
Flags: HMW
VStem: 73 143 373 143
LayerCount: 2
Fore
SplineSet
389 143 m 1,0,-1
 389 376 l 2,1,2
 389 402 389 402 367 404 c 1,3,-1
 316 411 l 1,4,-1
 316 485 l 1,5,-1
 509 485 l 1,6,-1
 509 109 l 2,7,8
 509 83 509 83 531 81 c 1,9,-1
 582 74 l 1,10,-1
 582 0 l 1,11,-1
 413 0 l 1,12,-1
 405 67 l 1,13,14
 380 38 380 38 340 14 c 128,-1,15
 300 -10 300 -10 256 -10 c 0,16,17
 174 -10 174 -10 130 28.5 c 128,-1,18
 86 67 86 67 86 138 c 2,19,-1
 86 376 l 2,20,21
 86 402 86 402 64 404 c 1,22,-1
 13 411 l 1,23,-1
 13 485 l 1,24,-1
 206 485 l 1,25,-1
 206 168 l 2,26,27
 206 84 206 84 279 84 c 0,28,29
 316 84 316 84 350 107 c 128,-1,30
 384 130 384 130 389 143 c 1,0,-1
239 748 m 1,31,-1
 348 748 l 1,32,-1
 451 602 l 1,33,-1
 392 554 l 1,34,-1
 293 672 l 1,35,-1
 194 554 l 1,36,-1
 135 602 l 1,37,-1
 239 748 l 1,31,-1
EndSplineSet
EndChar

StartChar: ydieresis
Encoding: 255 255 163
Width: 564
Flags: HMW
HStem: -250 93<115.5 130.5 88.5 172> 465 20G<2 249 249 249 328 562 562 562> 557 131<138 184 353 399>
VStem: 91 141<596 639> 306 141<596 639>
LayerCount: 2
Fore
SplineSet
486 368 m 2,0,-1
 299 -120 l 2,1,2
 249 -250 249 -250 133 -250 c 0,3,4
 71 -250 71 -250 28 -234 c 1,5,-1
 15 -146 l 1,6,7
 62 -157 62 -157 106 -157 c 0,8,9
 177 -157 177 -157 209 -70 c 1,10,-1
 226 -21 l 1,11,-1
 77 368 l 2,12,13
 69.0353982301 390.300884956 69.0353982301 390.300884956 61.017699115 397.650442478 c 128,-1,14
 53 405 53 405 43 406 c 2,15,-1
 2 412 l 1,16,-1
 2 485 l 1,17,-1
 249 485 l 1,18,-1
 249 412 l 1,19,-1
 205 406 l 1,20,21
 191 403 191 403 191 393 c 0,22,23
 191 386 191 386 198 368 c 2,24,-1
 290 115 l 1,25,-1
 378 368 l 2,26,27
 385 387 385 387 385 396 c 128,-1,28
 385 405 385 405 372 406 c 2,29,-1
 328 412 l 1,30,-1
 328 485 l 1,31,-1
 562 485 l 1,32,-1
 562 412 l 1,33,-1
 521 406 l 2,34,35
 507 404 507 404 500.5 395.5 c 128,-1,36
 494 387 494 387 486 368 c 2,0,-1
220 671.5 m 128,-1,38
 232 655 232 655 232 620.5 c 128,-1,39
 232 586 232 586 214.5 571.5 c 128,-1,40
 197 557 197 557 161 557 c 128,-1,41
 125 557 125 557 108 570 c 128,-1,42
 91 583 91 583 91 618.5 c 128,-1,43
 91 654 91 654 106.5 671 c 128,-1,44
 122 688 122 688 165 688 c 128,-1,37
 208 688 208 688 220 671.5 c 128,-1,38
435 671.5 m 128,-1,46
 447 655 447 655 447 620.5 c 128,-1,47
 447 586 447 586 429.5 571.5 c 128,-1,48
 412 557 412 557 376 557 c 128,-1,49
 340 557 340 557 323 570 c 128,-1,50
 306 583 306 583 306 618.5 c 128,-1,51
 306 654 306 654 321.5 671 c 128,-1,52
 337 688 337 688 380 688 c 128,-1,45
 423 688 423 688 435 671.5 c 128,-1,46
EndSplineSet
EndChar

StartChar: ring
Encoding: 730 730 164
Width: 311
Flags: HMW
HStem: 557 62<145 169.5 145 188> 697 63<141.5 166>
VStem: 45 70<643 667.5 643 681.5> 196 70<648.5 673>
LayerCount: 2
Fore
SplineSet
266 660 m 128,-1,1
 266 620 266 620 234.5 588.5 c 128,-1,2
 203 557 203 557 152.5 557 c 0,3,4
 102 557 102 557 73.5 587 c 128,-1,5
 45 617 45 617 45 657 c 128,-1,6
 45 697 45 697 76.5 728.5 c 128,-1,7
 108 760 108 760 158.5 760 c 0,8,9
 209 760 209 760 237.5 730 c 128,-1,0
 266 700 266 700 266 660 c 128,-1,1
196 662 m 0,10,11
 196 678 196 678 184 687.5 c 128,-1,12
 172 697 172 697 155 697 c 0,13,14
 115 697 115 697 115 654 c 0,15,16
 115 638 115 638 127 628.5 c 128,-1,17
 139 619 139 619 156 619 c 0,18,19
 196 619 196 619 196 662 c 0,10,11
EndSplineSet
EndChar

StartChar: ellipsis
Encoding: 8230 8230 165
Width: 747
Flags: HMW
HStem: -10 159<99 155 345 401 591 647>
VStem: 43 169<37 89.5> 289 169<37 89.5> 535 169<37 89.5>
CounterMasks: 1 70
LayerCount: 2
Fore
SplineSet
443.5 129 m 128,-1,1
 458 109 458 109 458 66.5 c 128,-1,2
 458 24 458 24 437 7 c 128,-1,3
 416 -10 416 -10 372.5 -10 c 128,-1,4
 329 -10 329 -10 309 6 c 128,-1,5
 289 22 289 22 289 65 c 128,-1,6
 289 108 289 108 307.5 128.5 c 128,-1,7
 326 149 326 149 377.5 149 c 128,-1,0
 429 149 429 149 443.5 129 c 128,-1,1
197.5 129 m 128,-1,9
 212 109 212 109 212 66.5 c 128,-1,10
 212 24 212 24 191 7 c 128,-1,11
 170 -10 170 -10 126.5 -10 c 128,-1,12
 83 -10 83 -10 63 6 c 128,-1,13
 43 22 43 22 43 65 c 128,-1,14
 43 108 43 108 61.5 128.5 c 128,-1,15
 80 149 80 149 131.5 149 c 128,-1,8
 183 149 183 149 197.5 129 c 128,-1,9
689.5 129 m 128,-1,17
 704 109 704 109 704 66.5 c 128,-1,18
 704 24 704 24 683 7 c 128,-1,19
 662 -10 662 -10 618.5 -10 c 128,-1,20
 575 -10 575 -10 555 6 c 128,-1,21
 535 22 535 22 535 65 c 128,-1,22
 535 108 535 108 553.5 128.5 c 128,-1,23
 572 149 572 149 623.5 149 c 128,-1,16
 675 149 675 149 689.5 129 c 128,-1,17
EndSplineSet
EndChar

StartChar: minus
Encoding: 8722 8722 166
Width: 526
Flags: HMW
HStem: 182 106<42 484 42 484>
LayerCount: 2
Fore
SplineSet
42 182 m 1,0,-1
 42 288 l 1,1,-1
 484 288 l 1,2,-1
 484 182 l 1,3,-1
 42 182 l 1,0,-1
EndSplineSet
EndChar

StartChar: fi
Encoding: 64257 64257 167
Width: 629
Flags: HMW
HStem: 0 21G<30 309 30 30 346 607 346 346> 404 81<223 343 223 534> 592 198<256.5 516 256.5 408> 698 92<270 310.5>
VStem: 103 120<118 404 485 590 590 643> 414 120<118 362 362 376>
LayerCount: 2
Fore
SplineSet
103 483 m 1,0,-1
 103 590 l 2,1,2
 103 685 103 685 163.5 737.5 c 128,-1,3
 224 790 224 790 310 790 c 0,4,5
 439 790 439 790 532 749 c 1,6,-1
 516 592 l 1,7,-1
 408 592 l 1,8,-1
 392 682 l 1,9,10
 338 698 338 698 294 698 c 0,11,12
 223 698 223 698 223 643 c 2,13,-1
 223 485 l 1,14,-1
 534 485 l 1,15,-1
 534 118 l 2,16,17
 534 96 534 96 538 89.5 c 128,-1,18
 542 83 542 83 557 81 c 2,19,-1
 607 74 l 1,20,-1
 607 0 l 1,21,-1
 346 0 l 1,22,-1
 346 74 l 1,23,-1
 391 81 l 2,24,25
 406 83 406 83 410 89.5 c 128,-1,26
 414 96 414 96 414 118 c 2,27,-1
 414 362 l 2,28,29
 414 384 414 384 410 391.5 c 128,-1,30
 406 399 406 399 391 400 c 2,31,-1
 343 404 l 1,32,-1
 223 404 l 1,33,-1
 223 109 l 2,34,35
 223 83 223 83 245 81 c 2,36,-1
 309 74 l 1,37,-1
 309 0 l 1,38,-1
 30 0 l 1,39,-1
 30 74 l 1,40,-1
 80 81 l 2,41,42
 95 83 95 83 99 90 c 128,-1,43
 103 97 103 97 103 118 c 2,44,-1
 103 404 l 1,45,-1
 35 404 l 1,46,-1
 35 475 l 1,47,-1
 103 483 l 1,0,-1
EndSplineSet
EndChar

StartChar: fl
Encoding: 64258 64258 168
Width: 632
Flags: HMW
HStem: 0 21G<30 309 30 30 346 607 346 346> 698 92<267 312>
VStem: 103 120<109 404 487 590 590 643> 103 239<109 497 404 497 483 497 404 590 404 653> 414 120<109 673 673 673>
LayerCount: 2
Fore
SplineSet
534 750 m 1,0,-1
 534 109 l 2,1,2
 534 83 534 83 556 81 c 1,3,-1
 607 74 l 1,4,-1
 607 0 l 1,5,-1
 346 0 l 1,6,-1
 346 74 l 1,7,-1
 392 81 l 2,8,9
 405 83 405 83 409.5 89 c 128,-1,10
 414 95 414 95 414 109 c 2,11,-1
 414 673 l 1,12,13
 352 698 352 698 287.5 698 c 0,14,15
 223 698 223 698 223 643 c 2,16,-1
 223 487 l 1,17,-1
 342 497 l 1,18,-1
 342 404 l 1,19,-1
 223 404 l 1,20,-1
 223 109 l 2,21,22
 223 83 223 83 245 81 c 2,23,-1
 309 74 l 1,24,-1
 309 0 l 1,25,-1
 30 0 l 1,26,-1
 30 74 l 1,27,-1
 80 81 l 2,28,29
 93 83 93 83 98 89 c 128,-1,30
 103 95 103 95 103 109 c 2,31,-1
 103 404 l 1,32,-1
 35 404 l 1,33,-1
 35 475 l 1,34,-1
 103 483 l 1,35,-1
 103 590 l 2,36,37
 103 683 103 683 162 736.5 c 128,-1,38
 221 790 221 790 317 790 c 0,39,40
 446 790 446 790 534 750 c 1,0,-1
EndSplineSet
EndChar

StartChar: utilde
Encoding: 361 361 170
Width: 607
Flags: HMW
VStem: 73 143 373 143
LayerCount: 2
Fore
SplineSet
389 143 m 1,0,-1
 389 376 l 2,1,2
 389 402 389 402 367 404 c 1,3,-1
 316 411 l 1,4,-1
 316 485 l 1,5,-1
 509 485 l 1,6,-1
 509 109 l 2,7,8
 509 83 509 83 531 81 c 1,9,-1
 582 74 l 1,10,-1
 582 0 l 1,11,-1
 413 0 l 1,12,-1
 405 67 l 1,13,14
 380 38 380 38 340 14 c 128,-1,15
 300 -10 300 -10 256 -10 c 0,16,17
 174 -10 174 -10 130 28.5 c 128,-1,18
 86 67 86 67 86 138 c 2,19,-1
 86 376 l 2,20,21
 86 402 86 402 64 404 c 1,22,-1
 13 411 l 1,23,-1
 13 485 l 1,24,-1
 206 485 l 1,25,-1
 206 168 l 2,26,27
 206 84 206 84 279 84 c 0,28,29
 316 84 316 84 350 107 c 128,-1,30
 384 130 384 130 389 143 c 1,0,-1
281.5 578.5 m 128,-1,32
 237 597 237 597 209.5 597 c 128,-1,33
 182 597 182 597 142 570 c 1,34,-1
 118 630 l 1,35,36
 164 699 164 699 222 699 c 0,37,38
 252 699 252 699 296 681.5 c 128,-1,39
 340 664 340 664 366 664 c 128,-1,40
 392 664 392 664 426 688 c 1,41,-1
 450 628 l 1,42,43
 407 560 407 560 353 560 c 0,44,31
 326 560 326 560 281.5 578.5 c 128,-1,32
EndSplineSet
EndChar

StartChar: AEacute
Encoding: 508 508 171
Width: 946
Flags: HMW
HStem: 0 104<572 754 572 892> 0 208<798 885 798 892 798 892> 322 104<314 445 314 445 314 445 572 770> 522 198<777 866 866 866> 616 104<572 734 734 746> 924 20G<605 605>
VStem: 445 127<114.5 127 127 322 104 426 426 588> 774 95
LayerCount: 2
Fore
SplineSet
236 720 m 1,0,-1
 873 720 l 1,1,-1
 866 522 l 1,2,-1
 777 522 l 1,3,-1
 772 587 l 2,4,5
 771 605 771 605 762 610.5 c 128,-1,6
 753 616 753 616 734 616 c 2,7,-1
 572 616 l 1,8,-1
 572 426 l 1,9,-1
 770 426 l 1,10,-1
 770 322 l 1,11,-1
 572 322 l 1,12,-1
 572 104 l 1,13,-1
 754 104 l 2,14,15
 773 104 773 104 782 109.5 c 128,-1,16
 791 115 791 115 792 133 c 2,17,-1
 798 208 l 1,18,-1
 885 208 l 1,19,-1
 892 0 l 1,20,-1
 367 0 l 1,21,-1
 367 80 l 1,22,-1
 416 89 l 1,23,24
 434 91 434 91 439.5 99 c 128,-1,25
 445 107 445 107 445 127 c 2,26,-1
 445 322 l 1,27,-1
 275 322 l 1,28,-1
 204 133 l 2,29,30
 199 121 199 121 199 112 c 0,31,32
 199 91 199 91 227 86 c 2,33,-1
 276 77 l 1,34,-1
 276 0 l 1,35,-1
 2 0 l 1,36,-1
 2 79 l 1,37,-1
 39 86 l 2,38,39
 58 89 58 89 67 97.5 c 128,-1,40
 76 106 76 106 86 132 c 2,41,-1
 283 641 l 1,42,-1
 236 645 l 1,43,-1
 236 720 l 1,0,-1
445 588 m 2,44,45
 445 608 445 608 439.5 617.5 c 128,-1,46
 434 627 434 627 416 628 c 2,47,-1
 390 630 l 1,48,-1
 314 426 l 1,49,-1
 445 426 l 1,50,-1
 445 588 l 2,44,45
605 944 m 1,51,-1
 668 858 l 1,52,-1
 526 764 l 2,53,54
 510 754 510 754 496 754 c 0,55,56
 463 754 463 754 434 796 c 1,57,-1
 605 944 l 1,51,-1
EndSplineSet
EndChar

StartChar: aeacute
Encoding: 509 509 172
Width: 804
Flags: HMW
HStem: -10 90<205.5 218> 80 250<80 243.5> 330 165<80 302.5 80 302.5> 406 89<524.5 595.5> 495 69<221.5 387> 747 20G<471 471>
VStem: 44 123<114 148.5 114 164> 333 115<134 212 212 212 291 349 349 351 101 372> 646 117<307 307>
LayerCount: 2
Fore
SplineSet
187 -10 m 0,0,1
 116 -10 116 -10 80 26 c 128,-1,2
 44 62 44 62 44 123.5 c 0,3,4
 44 185 44 185 82.5 224 c 128,-1,5
 121 263 121 263 194 273 c 2,6,-1
 333 291 l 1,7,-1
 333 349 l 2,8,9
 333 412 333 412 246 412 c 0,10,11
 207 412 207 412 171 396 c 1,12,-1
 159 330 l 1,13,-1
 80 330 l 1,14,-1
 71 453 l 1,15,16
 141 478 141 478 175 486.5 c 128,-1,17
 209 495 209 495 252 495 c 0,18,19
 336 495 336 495 392 459.5 c 128,-1,20
 448 424 448 424 448 351 c 2,21,-1
 448 101 l 1,22,-1
 370 88 l 1,23,24
 343 50 343 50 288 20 c 128,-1,25
 233 -10 233 -10 187 -10 c 0,0,1
333 212 m 1,26,-1
 223 194 l 2,27,28
 167 184 167 184 167 130 c 0,29,30
 167 80 167 80 223 80 c 0,31,32
 251 80 251 80 286 99.5 c 128,-1,33
 321 119 321 119 333 134 c 1,34,-1
 333 212 l 1,26,-1
763 234 m 1,35,-1
 455 212 l 1,36,37
 463 79 463 79 577 79 c 0,38,39
 640 79 640 79 742 108 c 1,40,-1
 761 36 l 1,41,42
 643 -10 643 -10 549 -10 c 0,43,44
 409 -10 409 -10 356 95 c 1,45,-1
 380 404 l 1,46,47
 443 495 443 495 562 495 c 0,48,49
 681 495 681 495 722 430.5 c 128,-1,50
 763 366 763 366 763 234 c 1,35,-1
453 291 m 1,51,-1
 646 307 l 1,52,53
 644 406 644 406 561 406 c 0,54,55
 501 406 501 406 481.5 383.5 c 128,-1,56
 462 361 462 361 453 291 c 1,51,-1
471 767 m 1,57,-1
 545 690 l 1,58,-1
 417 578 l 2,59,60
 402 564 402 564 378.5 564 c 0,61,62
 355 564 355 564 322 597 c 1,63,-1
 471 767 l 1,57,-1
EndSplineSet
EndChar

StartChar: caron
Encoding: 711 711 173
Width: 353
Flags: HMW
HStem: 560 21G<123 232 123 123> 734 20G<78 78 276 276>
LayerCount: 2
Fore
SplineSet
232 560 m 1,0,-1
 123 560 l 1,1,-1
 19 706 l 1,2,-1
 78 754 l 1,3,-1
 177 636 l 1,4,-1
 276 754 l 1,5,-1
 335 706 l 1,6,-1
 232 560 l 1,0,-1
EndSplineSet
EndChar

StartChar: Cacute
Encoding: 262 262 174
Width: 663
Flags: HMW
HStem: -10 108<307 415> 500 230<259.5 598 259.5 501> 625 105<318.5 380.5> 730 24<305.5 323.5 305.5 412.5> 924 20G<428 428>
VStem: 39 137<279.5 393.5 279.5 457>
LayerCount: 2
Fore
SplineSet
592 140 m 1,0,-1
 619 51 l 1,1,2
 589 36 589 36 525 18 c 0,3,4
 425.444444444 -10 425.444444444 -10 354 -10 c 0,5,6
 39 -10 39 -10 39 352 c 0,7,8
 39 514.5 39 514.5 119 619.5 c 0,9,10
 159 672 159 672 225.5 701 c 128,-1,11
 292 730 292 730 366.5 730 c 128,-1,12
 441 730 441 730 493.5 719.5 c 128,-1,13
 546 709 546 709 614 673 c 1,14,-1
 598 500 l 1,15,-1
 501 500 l 1,16,-1
 480 605 l 1,17,18
 417 625 417 625 345 625 c 128,-1,19
 273 625 273 625 232 591 c 0,20,21
 207 570 207 570 191.5 495.5 c 128,-1,22
 176 421 176 421 176 359 c 0,23,24
 176 237 176 237 226 167.5 c 128,-1,25
 276 98 276 98 375 98 c 128,-1,26
 474 98 474 98 592 140 c 1,0,-1
428 944 m 1,27,-1
 491 858 l 1,28,-1
 349 764 l 2,29,30
 333 754 333 754 319 754 c 0,31,32
 286 754 286 754 257 796 c 1,33,-1
 428 944 l 1,27,-1
EndSplineSet
EndChar

StartChar: Ccircumflex
Encoding: 264 264 175
Width: 663
Flags: HMW
HStem: -10 108<307 415> 500 230<259.5 598 259.5 501> 625 105<318.5 380.5> 898 20G<297 406 406 406>
VStem: 39 137<279.5 393.5 279.5 457>
LayerCount: 2
Fore
SplineSet
592 140 m 1,0,-1
 619 51 l 1,1,2
 589 36 589 36 525 18 c 0,3,4
 425.444444444 -10 425.444444444 -10 354 -10 c 0,5,6
 39 -10 39 -10 39 352 c 0,7,8
 39 514.5 39 514.5 119 619.5 c 0,9,10
 159 672 159 672 225.5 701 c 128,-1,11
 292 730 292 730 366.5 730 c 128,-1,12
 441 730 441 730 493.5 719.5 c 128,-1,13
 546 709 546 709 614 673 c 1,14,-1
 598 500 l 1,15,-1
 501 500 l 1,16,-1
 480 605 l 1,17,18
 417 625 417 625 345 625 c 128,-1,19
 273 625 273 625 232 591 c 0,20,21
 207 570 207 570 191.5 495.5 c 128,-1,22
 176 421 176 421 176 359 c 0,23,24
 176 237 176 237 226 167.5 c 128,-1,25
 276 98 276 98 375 98 c 128,-1,26
 474 98 474 98 592 140 c 1,0,-1
297 918 m 1,27,-1
 406 918 l 1,28,-1
 524 792 l 1,29,-1
 465 744 l 1,30,-1
 351 842 l 1,31,-1
 237 744 l 1,32,-1
 178 792 l 1,33,-1
 297 918 l 1,27,-1
EndSplineSet
EndChar

StartChar: ccircumflex
Encoding: 265 265 178
Width: 489
Flags: HMW
VStem: 18 156
LayerCount: 2
Fore
SplineSet
434 109 m 1,0,-1
 450 35 l 1,1,2
 361.451612903 -0.41935483871 361.451612903 -0.41935483871 324.725806452 -5.20967741935 c 128,-1,3
 288 -10 288 -10 264 -10 c 0,4,5
 151 -10 151 -10 92.5 50.5 c 128,-1,6
 34 111 34 111 34 229 c 128,-1,7
 34 347 34 347 99.5 421 c 128,-1,8
 165 495 165 495 277 495 c 0,9,10
 325 495 325 495 371 482.5 c 128,-1,11
 417 470 417 470 443 453 c 1,12,-1
 434 320 l 1,13,-1
 355 320 l 1,14,-1
 338 393 l 1,15,16
 312 406 312 406 260 406 c 128,-1,17
 208 406 208 406 191 382 c 0,18,19
 162 340 162 340 162 233 c 0,20,21
 162 164 162 164 191.5 121.5 c 128,-1,22
 221 79 221 79 273.5 79 c 128,-1,23
 326 79 326 79 434 109 c 1,0,-1
198 743 m 1,24,-1
 307 743 l 1,25,-1
 410 597 l 1,26,-1
 351 549 l 1,27,-1
 252 667 l 1,28,-1
 153 549 l 1,29,-1
 94 597 l 1,30,-1
 198 743 l 1,24,-1
EndSplineSet
EndChar

StartChar: ytilde
Encoding: 7929 7929 180
Width: 564
Flags: HMW
HStem: -250 93<115.5 130.5 88.5 172> 465 20G<2 249 249 249 328 562 562 562> 575 104<339.5 372 339.5 374> 612 67
LayerCount: 2
Fore
SplineSet
486 368 m 2,0,-1
 299 -120 l 2,1,2
 249 -250 249 -250 133 -250 c 0,3,4
 71 -250 71 -250 28 -234 c 1,5,-1
 15 -146 l 1,6,7
 62 -157 62 -157 106 -157 c 0,8,9
 177 -157 177 -157 209 -70 c 1,10,-1
 226 -21 l 1,11,-1
 77 368 l 2,12,13
 69.0353982301 390.300884956 69.0353982301 390.300884956 61.017699115 397.650442478 c 128,-1,14
 53 405 53 405 43 406 c 2,15,-1
 2 412 l 1,16,-1
 2 485 l 1,17,-1
 249 485 l 1,18,-1
 249 412 l 1,19,-1
 205 406 l 1,20,21
 191 403 191 403 191 393 c 0,22,23
 191 386 191 386 198 368 c 2,24,-1
 290 115 l 1,25,-1
 378 368 l 2,26,27
 385 387 385 387 385 396 c 128,-1,28
 385 405 385 405 372 406 c 2,29,-1
 328 412 l 1,30,-1
 328 485 l 1,31,-1
 562 485 l 1,32,-1
 562 412 l 1,33,-1
 521 406 l 2,34,35
 507 404 507 404 500.5 395.5 c 128,-1,36
 494 387 494 387 486 368 c 2,0,-1
282.5 593.5 m 128,-1,38
 238 612 238 612 211 612 c 128,-1,39
 184 612 184 612 143 585 c 1,40,-1
 119 645 l 1,41,42
 165 714 165 714 223 714 c 0,43,44
 253 714 253 714 297 696.5 c 128,-1,45
 341 679 341 679 367 679 c 128,-1,46
 393 679 393 679 427 703 c 1,47,-1
 451 643 l 1,48,49
 408 575 408 575 354 575 c 0,50,37
 327 575 327 575 282.5 593.5 c 128,-1,38
EndSplineSet
EndChar

StartChar: Ygrave
Encoding: 7922 7922 181
Width: 700
Flags: HMW
HStem: 0 21G<204 493 204 204> 720 35 925 20G<250 250>
VStem: 285 127<126 238 113.5 248 113.5 248>
LayerCount: 2
Fore
SplineSet
604 594 m 2,0,-1
 412 238 l 1,1,-1
 412 126 l 2,2,3
 412 106 412 106 417.5 98.5 c 128,-1,4
 423 91 423 91 441 88 c 2,5,-1
 493 79 l 1,6,-1
 493 0 l 1,7,-1
 204 0 l 1,8,-1
 204 79 l 1,9,-1
 256 88 l 2,10,11
 274 91 274 91 279.5 98.5 c 128,-1,12
 285 106 285 106 285 126 c 2,13,-1
 285 248 l 1,14,-1
 96 594 l 2,15,16
 84 616 84 616 74 625 c 128,-1,17
 64 634 64 634 46 636 c 2,18,-1
 2 641 l 1,19,-1
 2 720 l 1,20,-1
 299 720 l 1,21,-1
 299 642 l 1,22,-1
 264 636 l 2,23,24
 231 631 231 631 231 617 c 0,25,26
 231 612 231 612 240 594 c 2,27,-1
 361 360 l 1,28,-1
 477 594 l 2,29,30
 484 607 484 607 484 615.5 c 0,31,32
 484 624 484 624 476.5 628 c 128,-1,33
 469 632 469 632 449 635 c 2,34,-1
 414 641 l 1,35,-1
 414 720 l 1,36,-1
 698 720 l 1,37,-1
 698 641 l 1,38,-1
 654 636 l 1,39,40
 633 632 633 632 625 624.5 c 128,-1,41
 617 617 617 617 604 594 c 2,0,-1
187 859 m 1,42,-1
 250 945 l 1,43,-1
 421 797 l 1,44,45
 392 755 392 755 359 755 c 0,46,47
 345 755 345 755 329 765 c 2,48,-1
 187 859 l 1,42,-1
EndSplineSet
EndChar

StartChar: Uring
Encoding: 366 366 183
Width: 725
Flags: HMW
HStem: -10 105<342.5 399 342.5 417.5> 700 20G<18 299 299 299 430 707 707 707> 747 62<352 376.5 352 395> 887 63<348.5 373>
VStem: 95 127<232 248 248 594> 252 70<833 857.5 833 871.5> 403 70<838.5 863> 507 123<256 594>
LayerCount: 2
Fore
SplineSet
630 594 m 2,0,-1
 630 232 l 2,1,2
 630 181 630 181 613.5 139 c 128,-1,3
 597 97 597 97 570 70 c 128,-1,4
 543 43 543 43 506.5 24.5 c 0,5,6
 438.432432432 -10 438.432432432 -10 352 -10 c 0,7,8
 226 -10 226 -10 160.5 52.5 c 128,-1,9
 95 115 95 115 95 232 c 2,10,-1
 95 594 l 2,11,12
 95 614 95 614 89.5 621.5 c 128,-1,13
 84 629 84 629 66 632 c 2,14,-1
 18 641 l 1,15,-1
 18 720 l 1,16,-1
 299 720 l 1,17,-1
 299 641 l 1,18,-1
 251 632 l 1,19,20
 233 630 233 630 227.5 622 c 128,-1,21
 222 614 222 614 222 594 c 2,22,-1
 222 248 l 2,23,24
 222 165 222 165 267.5 130 c 128,-1,25
 313 95 313 95 380 95 c 128,-1,26
 447 95 447 95 477 119 c 128,-1,27
 507 143 507 143 507 256 c 2,28,-1
 507 594 l 2,29,30
 507 614 507 614 501.5 621.5 c 128,-1,31
 496 629 496 629 478 632 c 2,32,-1
 430 641 l 1,33,-1
 430 720 l 1,34,-1
 707 720 l 1,35,-1
 707 641 l 1,36,-1
 659 632 l 1,37,38
 641 630 641 630 635.5 622 c 128,-1,39
 630 614 630 614 630 594 c 2,0,-1
473 850 m 128,-1,41
 473 810 473 810 441.5 778.5 c 128,-1,42
 410 747 410 747 359.5 747 c 128,-1,43
 309 747 309 747 280.5 777 c 128,-1,44
 252 807 252 807 252 847 c 128,-1,45
 252 887 252 887 283.5 918.5 c 128,-1,46
 315 950 315 950 365.5 950 c 128,-1,47
 416 950 416 950 444.5 920 c 128,-1,40
 473 890 473 890 473 850 c 128,-1,41
403 852 m 0,48,49
 403 868 403 868 391 877.5 c 128,-1,50
 379 887 379 887 362 887 c 0,51,52
 322 887 322 887 322 844 c 0,53,54
 322 828 322 828 334 818.5 c 128,-1,55
 346 809 346 809 363 809 c 0,56,57
 403 809 403 809 403 852 c 0,48,49
EndSplineSet
EndChar

StartChar: Ytilde
Encoding: 7928 7928 184
Width: 700
Flags: HMW
HStem: 0 21G<204 493 204 204> 700 20G<2 299 299 299 414 698 698 698> 760 104<402.5 435 402.5 437> 797 67
VStem: 285 127<126 238 113.5 248 113.5 248>
LayerCount: 2
Fore
SplineSet
604 594 m 2,0,-1
 412 238 l 1,1,-1
 412 126 l 2,2,3
 412 106 412 106 417.5 98.5 c 128,-1,4
 423 91 423 91 441 88 c 2,5,-1
 493 79 l 1,6,-1
 493 0 l 1,7,-1
 204 0 l 1,8,-1
 204 79 l 1,9,-1
 256 88 l 2,10,11
 274 91 274 91 279.5 98.5 c 128,-1,12
 285 106 285 106 285 126 c 2,13,-1
 285 248 l 1,14,-1
 96 594 l 2,15,16
 84 616 84 616 74 625 c 128,-1,17
 64 634 64 634 46 636 c 2,18,-1
 2 641 l 1,19,-1
 2 720 l 1,20,-1
 299 720 l 1,21,-1
 299 642 l 1,22,-1
 264 636 l 2,23,24
 231 631 231 631 231 617 c 0,25,26
 231 612 231 612 240 594 c 2,27,-1
 361 360 l 1,28,-1
 477 594 l 2,29,30
 484 607 484 607 484 615.5 c 128,-1,31
 484 624 484 624 476.5 628 c 128,-1,32
 469 632 469 632 449 635 c 2,33,-1
 414 641 l 1,34,-1
 414 720 l 1,35,-1
 698 720 l 1,36,-1
 698 641 l 1,37,-1
 654 636 l 1,38,39
 633 632 633 632 625 624.5 c 128,-1,40
 617 617 617 617 604 594 c 2,0,-1
345.5 778.5 m 128,-1,42
 301 797 301 797 273.5 797 c 128,-1,43
 246 797 246 797 206 770 c 1,44,-1
 182 830 l 1,45,46
 228 899 228 899 286 899 c 0,47,48
 316 899 316 899 360 881.5 c 128,-1,49
 404 864 404 864 430 864 c 128,-1,50
 456 864 456 864 490 888 c 1,51,-1
 514 828 l 1,52,53
 471 760 471 760 417 760 c 0,54,41
 390 760 390 760 345.5 778.5 c 128,-1,42
EndSplineSet
EndChar

StartChar: Zacute
Encoding: 377 377 185
Width: 619
Flags: HMW
HStem: 0 104<202 441 441 453 202 580> 520 200<66 153 66 66> 619 101<186 198 198 401> 720 34<286.5 304.5 286.5 560> 924 20G<409 409>
LayerCount: 2
Fore
SplineSet
401 619 m 1,0,-1
 198 619 l 2,1,2
 179 619 179 619 170 613.5 c 128,-1,3
 161 608 161 608 160 590 c 2,4,-1
 153 520 l 1,5,-1
 66 520 l 1,6,-1
 59 720 l 1,7,-1
 560 720 l 1,8,-1
 560 624 l 1,9,-1
 202 104 l 1,10,-1
 441 104 l 2,11,12
 460 104 460 104 469 109.5 c 128,-1,13
 478 115 478 115 479 133 c 2,14,-1
 486 203 l 1,15,-1
 573 203 l 1,16,-1
 580 0 l 1,17,-1
 43 0 l 1,18,-1
 43 99 l 1,19,-1
 401 619 l 1,0,-1
409 944 m 1,20,-1
 472 858 l 1,21,-1
 330 764 l 2,22,23
 314 754 314 754 300 754 c 0,24,25
 267 754 267 754 238 796 c 1,26,-1
 409 944 l 1,20,-1
EndSplineSet
EndChar

StartChar: dotaccent
Encoding: 729 729 186
Width: 251
Flags: HMW
HStem: 555 155<98 152>
VStem: 43 165<601 652>
LayerCount: 2
Fore
SplineSet
194 690.5 m 128,-1,1
 208 671 208 671 208 630 c 128,-1,2
 208 589 208 589 187.5 572 c 128,-1,3
 167 555 167 555 125 555 c 128,-1,4
 83 555 83 555 63 570.5 c 128,-1,5
 43 586 43 586 43 628 c 128,-1,6
 43 670 43 670 61 690 c 128,-1,7
 79 710 79 710 129.5 710 c 128,-1,0
 180 710 180 710 194 690.5 c 128,-1,1
EndSplineSet
EndChar

StartChar: zdotaccent
Encoding: 380 380 189
Width: 513
Flags: HMW
HStem: 0 90 401 89
LayerCount: 2
Fore
SplineSet
316 401 m 1,0,-1
 152 401 l 2,1,2
 126 401 126 401 124 379 c 1,3,-1
 116 321 l 1,4,-1
 42 321 l 1,5,-1
 35 485 l 1,6,-1
 469 485 l 1,7,-1
 469 419 l 1,8,-1
 181 86 l 1,9,-1
 364 86 l 2,10,11
 390 86 390 86 392 108 c 2,12,-1
 400 170 l 1,13,-1
 474 170 l 1,14,-1
 481 0 l 1,15,-1
 28 0 l 1,16,-1
 28 68 l 1,17,-1
 316 401 l 1,0,-1
320 692.5 m 128,-1,19
 334 673 334 673 334 632 c 128,-1,20
 334 591 334 591 313.5 574 c 128,-1,21
 293 557 293 557 251 557 c 128,-1,22
 209 557 209 557 189 572.5 c 128,-1,23
 169 588 169 588 169 630 c 128,-1,24
 169 672 169 672 187 692 c 128,-1,25
 205 712 205 712 255.5 712 c 128,-1,18
 306 712 306 712 320 692.5 c 128,-1,19
EndSplineSet
EndChar

StartChar: zero
Encoding: 48 48 191
Width: 624
Flags: HMW
HStem: -10 91<275.5 368 275.5 392.5> 429 91<256 348>
VStem: 39 132<198.5 301.5 198.5 314> 453 132<208.5 311.5>
LayerCount: 2
Fore
SplineSet
515.5 449 m 128,-1,1
 585 378 585 378 585 265.5 c 128,-1,2
 585 153 585 153 508.5 71.5 c 128,-1,3
 432 -10 432 -10 305 -10 c 128,-1,4
 178 -10 178 -10 108.5 61 c 128,-1,5
 39 132 39 132 39 244 c 128,-1,6
 39 356 39 356 115.5 438 c 128,-1,7
 192 520 192 520 319 520 c 128,-1,0
 446 520 446 520 515.5 449 c 128,-1,1
420.5 130 m 128,-1,9
 453 179 453 179 453 258.5 c 128,-1,10
 453 338 453 338 412 383.5 c 128,-1,11
 371 429 371 429 303.5 429 c 128,-1,12
 236 429 236 429 203.5 380 c 128,-1,13
 171 331 171 331 171 251.5 c 128,-1,14
 171 172 171 172 211.5 126.5 c 128,-1,15
 252 81 252 81 320 81 c 128,-1,8
 388 81 388 81 420.5 130 c 128,-1,9
EndSplineSet
EndChar

StartChar: one
Encoding: 49 49 192
Width: 366
Flags: HMW
HStem: 0 21G<34 347 34 34> 490 20G<160 253 253 253>
VStem: 33 220<346 445 445 445>
LayerCount: 2
Fore
SplineSet
253 510 m 1,0,-1
 253 125 l 2,1,2
 253 103 253 103 257.5 95 c 128,-1,3
 262 87 262 87 277 86 c 2,4,-1
 347 79 l 1,5,-1
 347 0 l 1,6,-1
 34 0 l 1,7,-1
 34 79 l 1,8,-1
 109 86 l 2,9,10
 124 87 124 87 128.5 95 c 128,-1,11
 133 103 133 103 133 125 c 2,12,-1
 133 391 l 1,13,-1
 33 346 l 1,14,-1
 33 445 l 1,15,-1
 160 510 l 1,16,-1
 253 510 l 1,0,-1
EndSplineSet
EndChar

StartChar: two
Encoding: 50 50 193
Width: 448
Flags: HMW
HStem: 0 100<167 411 167 411> 348 172<43 290 43 290> 431 89<200 238.5>
VStem: 286 128<316.5 380.5>
LayerCount: 2
Fore
SplineSet
411 100 m 1,0,-1
 411 0 l 1,1,-1
 17 0 l 1,2,-1
 17 21 l 2,3,4
 17 82 17 82 33.5 116.5 c 128,-1,5
 50 151 50 151 77.5 174 c 0,6,7
 105 197 105 197 164.5 230 c 128,-1,8
 224 263 224 263 255 292 c 128,-1,9
 286 321 286 321 286 356 c 0,10,11
 286 391 286 391 267.5 411 c 128,-1,12
 249 431 249 431 217.5 431 c 0,13,14
 186 431 186 431 138 419 c 1,15,-1
 123 348 l 1,16,-1
 43 348 l 1,17,-1
 31 489 l 1,18,19
 136 520 136 520 227.5 520 c 0,20,21
 319 520 319 520 366.5 478.5 c 128,-1,22
 414 437 414 437 414 367.5 c 0,23,24
 414 298 414 298 367.5 252 c 128,-1,25
 321 206 321 206 245.5 171.5 c 0,26,27
 170 137 170 137 167 100 c 1,28,-1
 411 100 l 1,0,-1
EndSplineSet
EndChar

StartChar: three
Encoding: 51 51 194
Width: 448
Flags: HMW
HStem: -174 94<165 223 165 265> 364 156<32 284 32 284> 441 79<186.5 227>
VStem: 273 127<331 391.5> 296 127<8 60.5>
LayerCount: 2
Fore
SplineSet
107 140 m 1,0,-1
 102 224 l 1,1,2
 175.540897098 237.788918206 175.540897098 237.788918206 225.5 277.5 c 0,3,4
 245 293 245 293 259 318.5 c 128,-1,5
 273 344 273 344 273 373 c 128,-1,6
 273 402 273 402 255 421.5 c 128,-1,7
 237 441 237 441 201.5 441 c 128,-1,8
 166 441 166 441 124 431 c 1,9,-1
 112 364 l 1,10,-1
 32 364 l 1,11,-1
 24 497 l 1,12,13
 144 520 144 520 227 520 c 128,-1,14
 310 520 310 520 355 477.5 c 128,-1,15
 400 435 400 435 400 372 c 0,16,17
 400 262 400 262 268 206 c 1,18,19
 345 187 345 187 384 148.5 c 128,-1,20
 423 110 423 110 423 37 c 0,21,22
 423 -53 423 -53 360 -113.5 c 128,-1,23
 297 -174 297 -174 198.5 -174 c 128,-1,24
 100 -174 100 -174 5 -129 c 1,25,-1
 28 -52 l 1,26,27
 47 -59 47 -59 102 -69.5 c 128,-1,28
 157 -80 157 -80 184 -80 c 0,29,30
 237 -80 237 -80 266.5 -44.5 c 128,-1,31
 296 -9 296 -9 296 33 c 128,-1,32
 296 75 296 75 270 100.5 c 128,-1,33
 244 126 244 126 197 131 c 2,34,-1
 107 140 l 1,0,-1
EndSplineSet
EndChar

StartChar: four
Encoding: 52 52 195
Width: 527
Flags: HMW
HStem: -164 21G<318 438 318 318> 0 100<153 318 9 64 438 509> 510 20G<300 300>
VStem: 318 120<-164 0 -164 0 100 250>
LayerCount: 2
Fore
SplineSet
509 100 m 1,0,-1
 509 0 l 1,1,-1
 438 0 l 1,2,-1
 438 -164 l 1,3,-1
 318 -164 l 1,4,-1
 318 0 l 1,5,-1
 64 0 l 1,6,-1
 9 100 l 1,7,-1
 300 530 l 1,8,-1
 378 449 l 1,9,-1
 153 100 l 1,10,-1
 318 100 l 1,11,-1
 318 250 l 1,12,-1
 438 250 l 1,13,-1
 438 100 l 1,14,-1
 509 100 l 1,0,-1
EndSplineSet
EndChar

StartChar: five
Encoding: 53 53 196
Width: 458
Flags: HMW
HStem: -174 94<158.5 213.5 158.5 259.5> 411 99<186 407 186 186>
VStem: 296 132<11 79>
LayerCount: 2
Fore
SplineSet
407 510 m 1,0,-1
 407 411 l 1,1,-1
 186 411 l 1,2,-1
 171 260 l 1,3,-1
 251 249 l 2,4,5
 428 225 428 225 428 57 c 0,6,7
 428 -48 428 -48 361 -111 c 128,-1,8
 294 -174 294 -174 196.5 -174 c 0,9,10
 99 -174 99 -174 6 -129 c 1,11,-1
 26 -52 l 1,12,13
 47 -59 47 -59 99.5 -69.5 c 128,-1,14
 152 -80 152 -80 175 -80 c 0,15,16
 232 -80 232 -80 264 -44.5 c 128,-1,17
 296 -9 296 -9 296 43.5 c 0,18,19
 296 96 296 96 269 121.5 c 128,-1,20
 242 147 242 147 178 157 c 2,21,-1
 52 176 l 1,22,-1
 78 510 l 1,23,-1
 407 510 l 1,0,-1
EndSplineSet
EndChar

StartChar: six
Encoding: 54 54 197
Width: 548
Flags: HMW
HStem: -10 93<252 323.5 252 344.5> 335 99<278.5 326.5> 645 85<349.5 467>
VStem: 39 135<216 236 216 406> 388 128<180 244>
LayerCount: 2
Fore
SplineSet
516 211 m 128,-1,1
 516 109 516 109 449 49.5 c 128,-1,2
 382 -10 382 -10 266.5 -10 c 0,3,4
 151 -10 151 -10 95 66.5 c 128,-1,5
 39 143 39 143 39 267 c 0,6,7
 39 471 39 471 163 600.5 c 128,-1,8
 287 730 287 730 467 730 c 1,9,-1
 467 645 l 1,10,11
 356 640 356 640 275.5 564 c 128,-1,12
 195 488 195 488 178 390 c 1,13,14
 222 434 222 434 303 434 c 0,15,16
 405 434 405 434 460.5 373.5 c 128,-1,0
 516 313 516 313 516 211 c 128,-1,1
388 213 m 0,17,18
 388 335 388 335 284 335 c 0,19,20
 253 335 253 335 228 323.5 c 128,-1,21
 203 312 203 312 193 297 c 0,22,23
 174 267 174 267 174.5 209.5 c 0,24,25
 175 152 175 152 204.5 117.5 c 128,-1,26
 234 83 234 83 286 83 c 0,27,28
 338 83 338 83 363 121 c 128,-1,29
 388 159 388 159 388 213 c 0,17,18
EndSplineSet
EndChar

StartChar: seven
Encoding: 55 55 198
Width: 451
Flags: HMW
HStem: -182 21G<147 147> 318 186<22 105 22 22> 402 102<136.5 149 149 309>
LayerCount: 2
Fore
SplineSet
147 -182 m 1,0,-1
 40 -117 l 1,1,2
 114 10 114 10 204.5 179 c 128,-1,3
 295 348 295 348 309 402 c 1,4,-1
 149 402 l 2,5,6
 128 402 128 402 120 397.5 c 128,-1,7
 112 393 112 393 111 375 c 2,8,-1
 105 318 l 1,9,-1
 22 318 l 1,10,-1
 13 504 l 1,11,-1
 449 504 l 1,12,-1
 449 477 l 2,13,14
 449 431 449 431 421 373 c 2,15,-1
 147 -182 l 1,0,-1
EndSplineSet
EndChar

StartChar: eight
Encoding: 56 56 199
Width: 514
Flags: HMW
HStem: -10 90<237.5 301.5 237.5 316> 642 88<223 271>
VStem: 30 125<151.5 224 151.5 225.5> 55 121<530.5 592 530.5 611> 341 118<530 595> 358 101 358 126<143 207.5>
LayerCount: 2
Fore
SplineSet
183 379 m 1,0,-1
 271 345 l 1,1,2
 238 322 238 322 224 311.5 c 128,-1,3
 210 301 210 301 190 280 c 0,4,5
 155 243.25 155 243.25 155 181 c 0,6,7
 155 137 155 137 188 108.5 c 128,-1,8
 221 80 221 80 271 80 c 0,9,10
 358 80 358 80 358 170 c 0,11,12
 358 223 358 223 330.5 256 c 128,-1,13
 303 289 303 289 222.5 338.5 c 128,-1,14
 142 388 142 388 98.5 434 c 128,-1,15
 55 480 55 480 55 545 c 0,16,17
 55 639 55 639 114 684.5 c 128,-1,18
 173 730 173 730 263.5 730 c 128,-1,19
 354 730 354 730 406.5 686.5 c 128,-1,20
 459 643 459 643 459 567 c 0,21,22
 459 519.705882353 459 519.705882353 448 498.352941176 c 128,-1,23
 437 477 437 477 432 467 c 128,-1,24
 427 457 427 457 411 440.5 c 128,-1,25
 395 424 395 424 389.5 418.5 c 128,-1,26
 384 413 384 413 361.5 394.5 c 128,-1,27
 339 376 339 376 333 371 c 1,28,-1
 243 403 l 1,29,30
 282 440 282 440 297 456 c 128,-1,31
 312 472 312 472 326.5 502 c 128,-1,32
 341 532 341 532 341 569 c 128,-1,33
 341 606 341 606 314 624 c 128,-1,34
 287 642 287 642 248.5 642 c 128,-1,35
 210 642 210 642 193 623.5 c 128,-1,36
 176 605 176 605 176 568.5 c 128,-1,37
 176 532 176 532 196 502.5 c 128,-1,38
 216 473 216 473 242.5 452.5 c 128,-1,39
 269 432 269 432 328 393 c 1,40,41
 418 337 418 337 451 296.5 c 128,-1,42
 484 256 484 256 484 173.5 c 128,-1,43
 484 91 484 91 418 40.5 c 128,-1,44
 352 -10 352 -10 250 -10 c 128,-1,45
 148 -10 148 -10 89 35 c 128,-1,46
 30 80 30 80 30 175 c 0,47,48
 30 227.636363636 30 227.636363636 60 274 c 0,49,50
 85.08 312.76 85.08 312.76 183 379 c 1,0,-1
EndSplineSet
EndChar

StartChar: nine
Encoding: 57 57 200
Width: 530
Flags: HMW
HStem: -250 90<82 134 67 203> 65 101<215.5 266.5> 426 94<213.5 291>
VStem: 27 127<254.5 319.5 254.5 366> 367 133<268.5 328>
LayerCount: 2
Fore
SplineSet
85 127 m 128,-1,1
 27 189 27 189 27 295 c 128,-1,2
 27 401 27 401 90 460.5 c 128,-1,3
 153 520 153 520 264.5 520 c 128,-1,4
 376 520 376 520 438 447 c 128,-1,5
 500 374 500 374 500 244.5 c 128,-1,6
 500 115 500 115 446.5 1 c 128,-1,7
 393 -113 393 -113 296.5 -181.5 c 128,-1,8
 200 -250 200 -250 82 -250 c 1,9,-1
 67 -160 l 1,10,11
 169 -160 169 -160 258.5 -79 c 128,-1,12
 348 2 348 2 363 114 c 1,13,14
 321 65 321 65 241 65 c 0,15,0
 143 65 143 65 85 127 c 128,-1,1
154 282 m 0,16,17
 154 166 154 166 259 166 c 0,18,19
 292 166 292 166 318.5 178 c 128,-1,20
 345 190 345 190 354 204 c 1,21,22
 367 228 367 228 367 289.5 c 128,-1,23
 367 351 367 351 338 388.5 c 128,-1,24
 309 426 309 426 254 426 c 0,25,26
 154 426 154 426 154 282 c 0,16,17
EndSplineSet
EndChar

StartChar: comma
Encoding: 44 44 201
Width: 255
Flags: HMW
HStem: -147 21G<84 84> -10 145<95.5 103>
VStem: 43 169<-104 76.5 36.5 76.5 12 87>
LayerCount: 2
Fore
SplineSet
212 48 m 0,0,1
 212 -6 212 -6 176 -61.5 c 128,-1,2
 140 -117 140 -117 84 -147 c 1,3,-1
 43 -104 l 1,4,5
 113 -62 113 -62 120 -6 c 1,6,7
 112 -10 112 -10 94 -10 c 0,8,9
 76 -10 76 -10 59.5 8.5 c 128,-1,10
 43 27 43 27 43 59 c 0,11,12
 43 135 43 135 119 135 c 0,13,14
 212 135 212 135 212 48 c 0,0,1
EndSplineSet
EndChar

StartChar: backslash
Encoding: 92 92 202
Width: 435
Flags: HMW
HStem: -144 21G<317 433 317 317> 700 20G<13 129 129 129>
LayerCount: 2
Fore
SplineSet
13 720 m 1,0,-1
 129 720 l 1,1,-1
 433 -144 l 1,2,-1
 317 -144 l 1,3,-1
 13 720 l 1,0,-1
EndSplineSet
EndChar

StartChar: brokenbar
Encoding: 166 166 203
Width: 300
Flags: HMW
HStem: -240 21G<93 207 93 93> 770 20G<93 207 207 207>
VStem: 93 114<-240 147 -240 147 403 790>
LayerCount: 2
Fore
SplineSet
93 790 m 1,0,-1
 207 790 l 1,1,-1
 207 403 l 1,2,-1
 93 403 l 1,3,-1
 93 790 l 1,0,-1
93 147 m 1,4,-1
 207 147 l 1,5,-1
 207 -240 l 1,6,-1
 93 -240 l 1,7,-1
 93 147 l 1,4,-1
EndSplineSet
EndChar

StartChar: bullet
Encoding: 8226 8226 204
Width: 428
Flags: HMW
HStem: 208 21G<154 256> 446 20G<165.5 281>
LayerCount: 2
Fore
SplineSet
328 433.5 m 128,-1,1
 353 401 353 401 353 329.5 c 128,-1,2
 353 258 353 258 319.5 233 c 128,-1,3
 286 208 286 208 209.5 208 c 128,-1,4
 133 208 133 208 104 236.5 c 128,-1,5
 75 265 75 265 75 332 c 128,-1,6
 75 399 75 399 107 432.5 c 128,-1,7
 139 466 139 466 221 466 c 128,-1,0
 303 466 303 466 328 433.5 c 128,-1,1
EndSplineSet
EndChar

StartChar: endash
Encoding: 8211 8211 205
Width: 462
Flags: HMW
HStem: 210 92<0 462 0 462>
LayerCount: 2
Fore
SplineSet
0 210 m 1,0,-1
 0 302 l 1,1,-1
 462 302 l 1,2,-1
 462 210 l 1,3,-1
 0 210 l 1,0,-1
EndSplineSet
EndChar

StartChar: logicalnot
Encoding: 172 172 206
Width: 533
Flags: HMW
HStem: 121 243<406 495 406 406> 265 99<38 406 38 495>
VStem: 406 89<121 265 265 265>
LayerCount: 2
Fore
SplineSet
495 121 m 1,0,-1
 406 121 l 1,1,-1
 406 265 l 1,2,-1
 38 265 l 1,3,-1
 38 364 l 1,4,-1
 495 364 l 1,5,-1
 495 121 l 1,0,-1
EndSplineSet
EndChar

StartChar: plusminus
Encoding: 177 177 207
Width: 528
Flags: HMW
HStem: 0 104<43 485 43 485> 305 104<43 207 43 207 315 485> 537 20G<207 315 315 315>
VStem: 207 108<154 305 409 557>
LayerCount: 2
Fore
SplineSet
43 0 m 1,0,-1
 43 104 l 1,1,-1
 485 104 l 1,2,-1
 485 0 l 1,3,-1
 43 0 l 1,0,-1
315 154 m 1,4,-1
 207 154 l 1,5,-1
 207 305 l 1,6,-1
 43 305 l 1,7,-1
 43 409 l 1,8,-1
 207 409 l 1,9,-1
 207 557 l 1,10,-1
 315 557 l 1,11,-1
 315 409 l 1,12,-1
 485 409 l 1,13,-1
 485 305 l 1,14,-1
 315 305 l 1,15,-1
 315 154 l 1,4,-1
EndSplineSet
EndChar

StartChar: degree
Encoding: 176 176 208
Width: 326
Flags: HMW
HStem: 437 73<141 185 141 208.5> 662 73<141 185>
VStem: 6 88<562.5 609.5 562.5 630> 232 88<562.5 609.5>
LayerCount: 2
Fore
SplineSet
320 586 m 128,-1,1
 320 520 320 520 276 478.5 c 128,-1,2
 232 437 232 437 163 437 c 128,-1,3
 94 437 94 437 50 478.5 c 128,-1,4
 6 520 6 520 6 586 c 128,-1,5
 6 652 6 652 50 693.5 c 128,-1,6
 94 735 94 735 163 735 c 128,-1,7
 232 735 232 735 276 693.5 c 128,-1,0
 320 652 320 652 320 586 c 128,-1,1
232 586 m 128,-1,9
 232 622 232 622 214 642 c 128,-1,10
 196 662 196 662 163 662 c 128,-1,11
 130 662 130 662 112 642 c 128,-1,12
 94 622 94 622 94 586 c 128,-1,13
 94 550 94 550 112 530 c 128,-1,14
 130 510 130 510 163 510 c 128,-1,15
 196 510 196 510 214 530 c 128,-1,8
 232 550 232 550 232 586 c 128,-1,9
EndSplineSet
EndChar

StartChar: ordmasculine
Encoding: 186 186 209
Width: 347
Flags: HMW
HStem: 290 81<40 307 40 307> 417 70<154.5 189.5 154.5 224> 660 70<157.5 192.5>
VStem: 18 88<545 582.5 545 609> 241 88<564.5 601.5>
LayerCount: 2
Fore
SplineSet
40 290 m 1,0,-1
 40 371 l 1,1,-1
 307 371 l 1,2,-1
 307 290 l 1,3,-1
 40 290 l 1,0,-1
329 573 m 0,4,5
 329 511 329 511 288 464 c 128,-1,6
 247 417 247 417 163 417 c 0,7,8
 18 417 18 417 18 573 c 0,9,10
 18 636 18 636 59 683 c 128,-1,11
 100 730 100 730 184 730 c 0,12,13
 329 730 329 730 329 573 c 0,4,5
168 660 m 0,14,15
 136 660 136 660 124 644 c 1,16,17
 106 626 106 626 106 571 c 0,18,19
 106 487 106 487 179 487 c 0,20,21
 211 487 211 487 223 502 c 1,22,23
 241 519 241 519 241 575 c 0,24,25
 241 660 241 660 168 660 c 0,14,15
EndSplineSet
EndChar

StartChar: fraction
Encoding: 8260 8260 210
Width: 163
Flags: HMW
HStem: 0 21G<-178 -80 -178 -178> 710 20G<243 341 341 341>
LayerCount: 2
Fore
SplineSet
243 730 m 1,0,-1
 341 730 l 1,1,-1
 -80 0 l 1,2,-1
 -178 0 l 1,3,-1
 243 730 l 1,0,-1
EndSplineSet
EndChar

StartChar: kgreenlandic
Encoding: 312 312 211
Width: 576
Flags: HMW
HStem: -10 21G<460.5 497.5> 0 87 404 76 465 20G<489 546 546 546>
VStem: 106 120<118 238 265 362>
LayerCount: 2
Fore
SplineSet
226 362 m 2,0,-1
 226 265 l 1,1,-1
 375 432 l 1,2,3
 407 464 407 464 430 474.5 c 128,-1,4
 453 485 453 485 489 485 c 2,5,-1
 546 485 l 1,6,-1
 546 404 l 1,7,-1
 522 404 l 2,8,9
 496 404 496 404 481 396 c 128,-1,10
 466 388 466 388 446 367 c 2,11,-1
 348 263 l 1,12,-1
 348 256 l 1,13,-1
 449 141 l 2,14,15
 496 87 496 87 524 87 c 128,-1,16
 552 87 552 87 569 94 c 1,17,-1
 553 6 l 1,18,19
 522 -10 522 -10 484 -10 c 0,20,21
 423 -10 423 -10 368 59 c 2,22,-1
 226 238 l 1,23,-1
 226 118 l 2,24,25
 226 97 226 97 230 89.5 c 128,-1,26
 234 82 234 82 249 80 c 2,27,-1
 299 73 l 1,28,-1
 299 0 l 1,29,-1
 33 0 l 1,30,-1
 33 74 l 1,31,-1
 83 80 l 2,32,33
 98 81 98 81 102 88.5 c 128,-1,34
 106 96 106 96 106 118 c 2,35,-1
 106 362 l 2,36,37
 106 384 106 384 102 391.5 c 128,-1,38
 98 399 98 399 83 400 c 2,39,-1
 33 406 l 1,40,-1
 33 480 l 1,41,-1
 299 480 l 1,42,-1
 299 407 l 1,43,-1
 249 400 l 2,44,45
 234 398 234 398 230 391 c 128,-1,46
 226 384 226 384 226 362 c 2,0,-1
EndSplineSet
EndChar

StartChar: cent
Encoding: 162 162 212
Width: 489
Flags: HMW
HStem: -38 217<237.5 297 237.5 309 198 297> 410 174<300 434 300 355> 496 88<245 300> 496 215<245 272>
VStem: 34 128<285.5 357 285.5 386> 198 108
LayerCount: 2
Fore
SplineSet
434 209 m 1,0,-1
 450 135 l 1,1,2
 446 134 446 134 422.5 124.5 c 128,-1,3
 399 115 399 115 386.5 110.5 c 0,4,5
 345.337579618 95.6815286624 345.337579618 95.6815286624 303 92 c 1,6,-1
 309 -38 l 1,7,-1
 198 -38 l 1,8,-1
 204 95 l 1,9,10
 34 124 34 124 34 324 c 0,11,12
 34 418 34 418 78.5 485 c 128,-1,13
 123 552 123 552 201 574 c 1,14,-1
 195 711 l 1,15,-1
 306 711 l 1,16,-1
 300 584 l 1,17,18
 385 578 385 578 443 543 c 1,19,-1
 434 410 l 1,20,-1
 355 410 l 1,21,-1
 338 483 l 1,22,23
 312 496 312 496 260 496 c 128,-1,24
 208 496 208 496 191 472 c 0,25,26
 162 431 162 431 162 328 c 0,27,28
 162 262 162 262 191.5 220.5 c 128,-1,29
 221 179 221 179 273.5 179 c 128,-1,30
 326 179 326 179 434 209 c 1,0,-1
EndSplineSet
EndChar

StartChar: currency
Encoding: 164 164 213
Width: 547
Flags: HMW
HStem: 54 21G<113 113 434 434> 136 92<244.5 299.5> 420 92<244.5 299.5> 572 20G<113 113 434 434>
VStem: 74 111<294.5 353.5 294.5 379.5> 359 111<294.5 353.5>
LayerCount: 2
Fore
SplineSet
427 418 m 1,0,-1
 520 520 l 1,1,-1
 434 592 l 1,2,-1
 349 483 l 1,3,-1
 427 418 l 1,0,-1
470 324 m 128,-1,5
 470 241 470 241 414.5 188.5 c 128,-1,6
 359 136 359 136 272 136 c 128,-1,7
 185 136 185 136 129.5 188.5 c 128,-1,8
 74 241 74 241 74 324 c 128,-1,9
 74 407 74 407 129.5 459.5 c 128,-1,10
 185 512 185 512 272 512 c 128,-1,11
 359 512 359 512 414.5 459.5 c 128,-1,4
 470 407 470 407 470 324 c 128,-1,5
359 324 m 128,-1,13
 359 369 359 369 336 394.5 c 128,-1,14
 313 420 313 420 272 420 c 128,-1,15
 231 420 231 420 208 394.5 c 128,-1,16
 185 369 185 369 185 324 c 128,-1,17
 185 279 185 279 208 253.5 c 128,-1,18
 231 228 231 228 272 228 c 128,-1,19
 313 228 313 228 336 253.5 c 128,-1,12
 359 279 359 279 359 324 c 128,-1,13
198 483 m 1,20,-1
 113 592 l 1,21,-1
 27 520 l 1,22,-1
 120 418 l 1,23,-1
 198 483 l 1,20,-1
349 163 m 1,24,-1
 427 228 l 1,25,-1
 520 126 l 1,26,-1
 434 54 l 1,27,-1
 349 163 l 1,24,-1
120 228 m 1,28,-1
 198 163 l 1,29,-1
 113 54 l 1,30,-1
 27 126 l 1,31,-1
 120 228 l 1,28,-1
EndSplineSet
EndChar

StartChar: section
Encoding: 167 167 214
Width: 518
Flags: HMW
HStem: -162 91<222 273.5 222 304.5> -162 193<44 304.5> 565 165<192.5 438 192.5 353> 643 87<227 266.5>
VStem: 51 126<557 601.5 557 616> 341 126<-23 16.5> 363 126<256.5 288.5>
LayerCount: 2
Fore
SplineSet
131 31 m 1,0,-1
 140 -47 l 1,1,2
 203 -71 203 -71 245.5 -71 c 128,-1,3
 288 -71 288 -71 314.5 -52 c 128,-1,4
 341 -33 341 -33 341 -3.5 c 128,-1,5
 341 26 341 26 326 44.5 c 128,-1,6
 311 63 311 63 271 79 c 2,7,-1
 169 122 l 2,8,9
 105 150 105 150 74.5 187 c 128,-1,10
 44 224 44 224 44 277.5 c 128,-1,11
 44 331 44 331 59 355 c 128,-1,12
 74 379 74 379 121 419 c 1,13,14
 51 473 51 473 51 569 c 0,15,16
 51 642 51 642 105.5 686 c 128,-1,17
 160 730 160 730 254.5 730 c 128,-1,18
 349 730 349 730 451 707 c 1,19,-1
 438 565 l 1,20,-1
 353 565 l 1,21,-1
 341 632 l 1,22,23
 300 643 300 643 251 643 c 0,24,25
 177 643 177 643 177 579 c 0,26,27
 177 545 177 545 193 524 c 128,-1,28
 209 503 209 503 249 488 c 2,29,-1
 334 456 l 2,30,31
 361 445 361 445 376 439 c 128,-1,32
 391 433 391 433 416 417.5 c 128,-1,33
 441 402 441 402 454 386.5 c 0,34,35
 489 344.769230769 489 344.769230769 489 293.384615385 c 128,-1,36
 489 242 489 242 471 211 c 128,-1,37
 453 180 453 180 406 144 c 1,38,39
 467 98 467 98 467 6 c 0,40,41
 467 -69 467 -69 402.5 -115.5 c 128,-1,42
 338 -162 338 -162 230.5 -162 c 128,-1,43
 123 -162 123 -162 29 -116 c 1,44,-1
 44 31 l 1,45,-1
 131 31 l 1,0,-1
203 377 m 1,46,47
 170 343 170 343 170 309 c 128,-1,48
 170 275 170 275 184.5 256 c 128,-1,49
 199 237 199 237 235 223 c 2,50,-1
 307 194 l 1,51,-1
 323 187 l 1,52,53
 363 224 363 224 363 270 c 0,54,55
 363 297 363 297 346 313.5 c 128,-1,56
 329 330 329 330 289 345 c 2,57,-1
 203 377 l 1,46,47
EndSplineSet
EndChar

StartChar: sterling
Encoding: 163 163 215
Width: 606
Flags: HMW
HStem: -14 21G<91 91> -10 103<409.5 429 394 463> -10 179<456 463> 9 84 9 103<191.5 300> 272 85<59 134 59 134 59 140 269 269 269 393> 588 109<328 360.5>
VStem: 129 129<495 538 495 560.5> 146 124<153 216> 456 92
LayerCount: 2
Fore
SplineSet
269 272 m 1,0,-1
 270 205 l 1,1,2
 270 134 270 134 212 86 c 1,3,4
 248 112 248 112 273.5 112 c 128,-1,5
 299 112 299 112 346 102.5 c 128,-1,6
 393 93 393 93 414 93 c 128,-1,7
 435 93 435 93 445.5 102 c 128,-1,8
 456 111 456 111 456 125 c 2,9,-1
 456 169 l 1,10,-1
 542 169 l 1,11,-1
 554 4 l 1,12,13
 531 -10 531 -10 443 -10 c 0,14,15
 410 -10 410 -10 331 -0.5 c 128,-1,16
 252 9 252 9 207 9 c 128,-1,17
 162 9 162 9 91 -14 c 1,18,-1
 50 74 l 1,19,20
 76 78 76 78 112 102 c 1,21,22
 146 116 146 116 146 168 c 0,23,24
 146 192 146 192 140 272 c 1,25,-1
 59 272 l 1,26,-1
 59 357 l 1,27,-1
 134 357 l 1,28,29
 129 420 129 420 129 467 c 128,-1,30
 129 514 129 514 147 560.5 c 128,-1,31
 165 607 165 607 190.5 632 c 128,-1,32
 216 657 216 657 250.5 672.5 c 0,33,34
 305.032258065 697 305.032258065 697 365 697 c 0,35,36
 461 697 461 697 518 653 c 1,37,-1
 465 540 l 1,38,39
 401 588 401 588 331 588 c 0,40,41
 295 588 295 588 276.5 568.5 c 128,-1,42
 258 549 258 549 258 519 c 0,43,44
 258 460 258 460 265 357 c 1,45,-1
 418 357 l 1,46,-1
 393 272 l 1,47,-1
 269 272 l 1,0,-1
EndSplineSet
EndChar

StartChar: lira
Encoding: 8356 8356 216
Width: 606
Flags: HMW
HStem: -14 21G<91 91> -10 103<409.5 429 394 463> -10 179<456 463> 9 84 9 103<191.5 300> 225 77<61 138 61 144 61 138 270 373 270 270> 344 77<61 130 61 130 61 135 266 266 266 406> 588 109<328 360.5>
VStem: 129 129<504 538 504 560.5> 129 141 456 92
LayerCount: 2
Fore
SplineSet
61 344 m 1,0,-1
 61 421 l 1,1,-1
 130 421 l 1,2,3
 129 433 129 433 129 453 c 0,4,5
 129 514 129 514 147 560.5 c 128,-1,6
 165 607 165 607 190.5 632 c 128,-1,7
 216 657 216 657 250.5 672.5 c 0,8,9
 305.032258065 697 305.032258065 697 365 697 c 0,10,11
 461 697 461 697 518 653 c 1,12,-1
 465 540 l 1,13,14
 401 588 401 588 331 588 c 0,15,16
 295 588 295 588 276.5 568.5 c 128,-1,17
 258 549 258 549 258 511.5 c 128,-1,18
 258 474 258 474 261 421 c 1,19,-1
 431 421 l 1,20,-1
 406 344 l 1,21,-1
 266 344 l 1,22,23
 266 330 266 330 268 302 c 1,24,-1
 398 302 l 1,25,-1
 373 225 l 1,26,-1
 270 225 l 1,27,-1
 270 205 l 2,28,29
 270 134 270 134 212 86 c 1,30,31
 248 112 248 112 273.5 112 c 128,-1,32
 299 112 299 112 346 102.5 c 128,-1,33
 393 93 393 93 414 93 c 128,-1,34
 435 93 435 93 445.5 102 c 128,-1,35
 456 111 456 111 456 125 c 2,36,-1
 456 169 l 1,37,-1
 542 169 l 1,38,-1
 554 4 l 1,39,40
 531 -10 531 -10 443 -10 c 0,41,42
 410 -10 410 -10 331 -0.5 c 128,-1,43
 252 9 252 9 207 9 c 128,-1,44
 162 9 162 9 91 -14 c 1,45,-1
 50 74 l 1,46,47
 76 78 76 78 112 102 c 1,48,49
 146 116 146 116 146 168 c 0,50,51
 146 179 146 179 144 225 c 1,52,-1
 61 225 l 1,53,-1
 61 302 l 1,54,-1
 138 302 l 1,55,-1
 135 344 l 1,56,-1
 61 344 l 1,0,-1
EndSplineSet
EndChar

StartChar: yen
Encoding: 165 165 217
Width: 700
Flags: HMW
HStem: 0 245<204 285 412 493 204 204> 155 90<193 285 193 285 178 285 412 504> 660 20G<2 299 299 299 414 698 698 698>
VStem: 285 127<126 155 113.5 155 245 268>
LayerCount: 2
Fore
SplineSet
604 554 m 1,0,-1
 412 268 l 1,1,-1
 412 245 l 1,2,-1
 519 245 l 1,3,-1
 504 155 l 1,4,-1
 412 155 l 1,5,-1
 412 126 l 2,6,7
 412 106 412 106 417.5 98.5 c 128,-1,8
 423 91 423 91 441 88 c 2,9,-1
 493 79 l 1,10,-1
 493 0 l 1,11,-1
 204 0 l 1,12,-1
 204 79 l 1,13,-1
 256 88 l 2,14,15
 274 91 274 91 279.5 98.5 c 128,-1,16
 285 106 285 106 285 126 c 2,17,-1
 285 155 l 1,18,-1
 178 155 l 1,19,-1
 193 245 l 1,20,-1
 285 245 l 1,21,-1
 285 268 l 1,22,-1
 96 554 l 1,23,24
 84 577 84 577 74 585.5 c 128,-1,25
 64 594 64 594 46 596 c 2,26,-1
 2 601 l 1,27,-1
 2 680 l 1,28,-1
 299 680 l 1,29,-1
 299 602 l 1,30,-1
 264 596 l 2,31,32
 231 591 231 591 231 577 c 0,33,34
 231 572 231 572 240 554 c 1,35,-1
 356 380 l 1,36,-1
 477 554 l 1,37,38
 484 567 484 567 484 575.5 c 0,39,40
 484 584 484 584 476.5 588 c 128,-1,41
 469 592 469 592 449 595 c 2,42,-1
 414 601 l 1,43,-1
 414 680 l 1,44,-1
 698 680 l 1,45,-1
 698 601 l 1,46,-1
 654 596 l 1,47,48
 633 592 633 592 625 584.5 c 128,-1,49
 617 577 617 577 604 554 c 1,0,-1
EndSplineSet
EndChar

StartChar: copyright
Encoding: 169 169 218
Width: 832
Flags: HMW
HStem: -10 70<334 497 334 520.5> 152 80<393.5 441 393.5 448> 428 148<361 557 361 490> 496 80<398.5 420.5> 680 70<334 497>
VStem: 36 80<281 447 281 467.5> 221 113<320.5 381.5 320.5 417> 716 80<281 447>
LayerCount: 2
Fore
SplineSet
147.5 99.5 m 128,-1,1
 36 209 36 209 36 365 c 128,-1,2
 36 521 36 521 147.5 635.5 c 128,-1,3
 259 750 259 750 416 750 c 128,-1,4
 573 750 573 750 684.5 635.5 c 128,-1,5
 796 521 796 521 796 365 c 128,-1,6
 796 209 796 209 684.5 99.5 c 128,-1,7
 573 -10 573 -10 416 -10 c 128,-1,0
 259 -10 259 -10 147.5 99.5 c 128,-1,1
205 585 m 128,-1,9
 116 490 116 490 116 365 c 128,-1,10
 116 240 116 240 205 150 c 128,-1,11
 294 60 294 60 416 60 c 128,-1,12
 538 60 538 60 627 150 c 128,-1,13
 716 240 716 240 716 365 c 128,-1,14
 716 490 716 490 626.5 585 c 128,-1,15
 537 680 537 680 415.5 680 c 128,-1,8
 294 680 294 680 205 585 c 128,-1,9
565 190 m 1,16,17
 489 152 489 152 404 152 c 128,-1,18
 319 152 319 152 270 203 c 128,-1,19
 221 254 221 254 221 352.5 c 128,-1,20
 221 451 221 451 276 513.5 c 128,-1,21
 331 576 331 576 420 576 c 128,-1,22
 509 576 509 576 564 540 c 1,23,-1
 557 428 l 1,24,-1
 490 428 l 1,25,-1
 477 486 l 1,26,27
 450 496 450 496 410 496 c 128,-1,28
 370 496 370 496 358 481 c 1,29,30
 334 447 334 447 334 356 c 0,31,32
 334 301 334 301 357 266.5 c 128,-1,33
 380 232 380 232 422 232 c 128,-1,34
 464 232 464 232 552 257 c 1,35,-1
 565 190 l 1,16,17
EndSplineSet
EndChar

StartChar: registered
Encoding: 174 174 219
Width: 515
Flags: HMW
HStem: 359 42<213.5 301 213.5 315> 451 132<232 254 254 258 162 254> 451 230<162 256 256 258 162 256> 728 42<213.5 301>
VStem: 52 48<519 609.5 519 622> 187 45<493 549 583 639 639 643.5> 284 48<606 631> 416 47<519 609.5>
LayerCount: 2
Fore
SplineSet
232 648 m 1,0,-1
 232 583 l 1,1,-1
 254 583 l 2,2,3
 270 583 270 583 277 591 c 128,-1,4
 284 599 284 599 284 620 c 0,5,6
 284 648 284 648 250 648 c 2,7,-1
 232 648 l 1,0,-1
232 549 m 1,8,-1
 232 493 l 2,9,10
 232 486 232 486 233 484 c 128,-1,11
 234 482 234 482 241 481 c 2,12,-1
 258 479 l 1,13,-1
 258 451 l 1,14,-1
 162 451 l 1,15,-1
 162 479 l 1,16,-1
 178 481 l 2,17,18
 187 482 187 482 187 493 c 2,19,-1
 187 639 l 2,20,21
 187 648 187 648 178 651 c 1,22,-1
 162 654 l 1,23,-1
 162 681 l 1,24,-1
 256 681 l 2,25,26
 332 681 332 681 332 624 c 0,27,28
 332 590 332 590 316 574.5 c 128,-1,29
 300 559 300 559 282 557 c 1,30,31
 293 554 293 554 298 546 c 2,32,-1
 326 500 l 2,33,34
 336 482 336 482 350 482 c 0,35,36
 352 482 352 482 358 482.5 c 128,-1,37
 364 483 364 483 365 483 c 2,38,-1
 362 455 l 1,39,40
 352 448 352 448 328.5 448 c 128,-1,41
 305 448 305 448 287 475 c 1,42,-1
 250 539 l 2,43,44
 244 549 244 549 236 549 c 2,45,-1
 232 549 l 1,8,-1
111.5 418.5 m 128,-1,47
 52 478 52 478 52 564.5 c 128,-1,48
 52 651 52 651 111.5 710.5 c 128,-1,49
 171 770 171 770 257.5 770 c 128,-1,50
 344 770 344 770 403.5 710.5 c 128,-1,51
 463 651 463 651 463 564.5 c 128,-1,52
 463 478 463 478 403.5 418.5 c 128,-1,53
 344 359 344 359 257.5 359 c 128,-1,46
 171 359 171 359 111.5 418.5 c 128,-1,47
100 564 m 128,-1,55
 100 496 100 496 146 448.5 c 128,-1,56
 192 401 192 401 257.5 401 c 128,-1,57
 323 401 323 401 369.5 448.5 c 128,-1,58
 416 496 416 496 416 564 c 128,-1,59
 416 632 416 632 369.5 680 c 128,-1,60
 323 728 323 728 257.5 728 c 128,-1,61
 192 728 192 728 146 680 c 128,-1,54
 100 632 100 632 100 564 c 128,-1,55
EndSplineSet
EndChar

StartChar: mu
Encoding: 181 181 220
AltUni2: 0003bc.ffffffff.0
Width: 590
Flags: HMW
HStem: -250 21G<89 89> -10 104<237 272> 460 20G<69 189 189 189 372 492 492 492>
VStem: 69 120<177 480> 372 120<144 480>
LayerCount: 2
Fore
SplineSet
70 12 m 1,0,-1
 69 177 l 1,1,-1
 69 480 l 1,2,-1
 189 480 l 1,3,-1
 189 160 l 2,4,5
 189 94 189 94 262 94 c 0,6,7
 299 94 299 94 330 112 c 128,-1,8
 361 130 361 130 372 144 c 1,9,-1
 372 480 l 1,10,-1
 492 480 l 1,11,-1
 492 120 l 2,12,13
 492 75 492 75 534 75 c 0,14,15
 564 75 564 75 573 81 c 1,16,-1
 560 5 l 1,17,18
 528 -10 528 -10 486 -10 c 128,-1,19
 444 -10 444 -10 412.5 9.5 c 128,-1,20
 381 29 381 29 378 71 c 1,21,22
 317 -10 317 -10 239 -10 c 0,23,24
 199 -10 199 -10 166 4 c 1,25,26
 174 -96 174 -96 215 -227 c 1,27,-1
 89 -250 l 1,28,29
 70 -165 70 -165 70 12 c 1,0,-1
EndSplineSet
EndChar

StartChar: Thorn
Encoding: 222 222 221
Width: 571
Flags: HMW
HStem: 0 21G<48 329 48 48> 180 93<252 300 300 303 252 300> 500 91<252 315 252 324> 500 220<252 315 252 252>
VStem: 127 125<126 180 273 500 591 594> 426 133<377.5 446.5>
LayerCount: 2
Fore
SplineSet
329 79 m 1,0,-1
 329 0 l 1,1,-1
 48 0 l 1,2,-1
 48 79 l 1,3,-1
 98 88 l 1,4,5
 116 90 116 90 121.5 98 c 128,-1,6
 127 106 127 106 127 126 c 2,7,-1
 127 594 l 2,8,9
 127 614 127 614 121.5 621.5 c 128,-1,10
 116 629 116 629 98 632 c 2,11,-1
 48 641 l 1,12,-1
 48 720 l 1,13,-1
 329 720 l 1,14,-1
 329 641 l 1,15,-1
 281 632 l 1,16,17
 263 630 263 630 257.5 622 c 128,-1,18
 252 614 252 614 252 594 c 2,19,-1
 252 591 l 1,20,-1
 324 591 l 2,21,22
 438 591 438 591 498.5 552 c 128,-1,23
 559 513 559 513 559 410.5 c 0,24,25
 559 308 559 308 481.5 244 c 128,-1,26
 404 180 404 180 303 180 c 2,27,-1
 252 180 l 1,28,-1
 252 126 l 2,29,30
 252 106 252 106 257.5 98.5 c 128,-1,31
 263 91 263 91 281 88 c 2,32,-1
 329 79 l 1,0,-1
252 273 m 1,33,-1
 300 273 l 2,34,35
 369 273 369 273 394 292 c 0,36,37
 426 315 426 315 426 409 c 0,38,39
 426 500 426 500 315 500 c 2,40,-1
 252 500 l 1,41,-1
 252 273 l 1,33,-1
EndSplineSet
EndChar

StartChar: thorn
Encoding: 254 254 222
Width: 557
Flags: HMW
HStem: -240 21G<-2 275 -2 -2> -10 89<266 296.5 266 343> 406 89<289.5 326> 760 20G<-2 191 191 191>
VStem: -2 193<-240 -131 -166 -131 706 780> 71 120<-131 7 111 348 431 672 672 681> 395 128<217.5 300.5>
LayerCount: 2
Fore
SplineSet
191 780 m 1,0,-1
 191 431 l 1,1,2
 255 495 255 495 320 495 c 0,3,4
 415 495 415 495 469 429 c 128,-1,5
 523 363 523 363 523 250 c 0,6,7
 523 137 523 137 451.5 63.5 c 128,-1,8
 380 -10 380 -10 271 -10 c 0,9,10
 229 -10 229 -10 191 7 c 1,11,-1
 191 -131 l 2,12,13
 191 -157 191 -157 213 -159 c 2,14,-1
 275 -166 l 1,15,-1
 275 -240 l 1,16,-1
 -2 -240 l 1,17,-1
 -2 -166 l 1,18,-1
 49 -159 l 1,19,20
 71 -157 71 -157 71 -131 c 2,21,-1
 71 672 l 2,22,23
 71 698 71 698 49 700 c 2,24,-1
 -2 706 l 1,25,-1
 -2 780 l 1,26,-1
 191 780 l 1,0,-1
191 348 m 1,27,-1
 191 111 l 1,28,29
 204 101 204 101 232 90 c 128,-1,30
 260 79 260 79 284 79 c 0,31,32
 337 79 337 79 362 105 c 0,33,34
 395 140 395 140 395 249 c 0,35,36
 395 406 395 406 291 406 c 0,37,38
 266 406 266 406 234 386 c 128,-1,39
 202 366 202 366 191 348 c 1,27,-1
EndSplineSet
EndChar

StartChar: peseta
Encoding: 8359 8359 223
Width: 1230
Flags: HMW
VStem: 643 143 951 148 1216 151
LayerCount: 2
Fore
SplineSet
250 583 m 1,0,-1
 250 355 l 1,1,-1
 301 355 l 2,2,3
 366 355 366 355 389 375 c 1,4,5
 416 402 416 402 416 490 c 0,6,7
 416 583 416 583 307 583 c 2,8,-1
 250 583 l 1,0,-1
125 123 m 2,9,-1
 125 552 l 2,10,11
 125 570 125 570 120 577 c 128,-1,12
 115 584 115 584 97 588 c 2,13,-1
 52 596 l 1,14,-1
 52 680 l 1,15,-1
 316 680 l 2,16,17
 431 680 431 680 490.5 641.5 c 128,-1,18
 550 603 550 603 550 498 c 128,-1,19
 550 393 550 393 476 325.5 c 128,-1,20
 402 258 402 258 304 258 c 2,21,-1
 250 258 l 1,22,-1
 250 123 l 2,23,24
 250 104 250 104 255.5 96.5 c 128,-1,25
 261 89 261 89 278 87 c 2,26,-1
 340 79 l 1,27,-1
 340 -1 l 1,28,-1
 52 -1 l 1,29,-1
 52 78 l 1,30,-1
 97 87 l 2,31,32
 114 90 114 90 119.5 97 c 128,-1,33
 125 104 125 104 125 123 c 2,9,-1
707 458 m 1,34,-1
 820 469 l 1,35,-1
 820 381 l 1,36,-1
 707 381 l 1,37,-1
 707 187 l 2,38,39
 707 127 707 127 718.5 99 c 128,-1,40
 730 71 730 71 768.5 71 c 128,-1,41
 807 71 807 71 846 85 c 1,42,-1
 840 24 l 1,43,44
 823 9 823 9 787 -0.5 c 128,-1,45
 751 -10 751 -10 718 -10 c 0,46,47
 635 -10 635 -10 612 31.5 c 128,-1,48
 589 73 589 73 589 173 c 2,49,-1
 589 381 l 1,50,-1
 484 381 l 1,51,-1
 507 442 l 1,52,-1
 589 454 l 1,53,-1
 589 529 l 1,54,-1
 707 554 l 1,55,-1
 707 458 l 1,34,-1
1015 465 m 0,56,57
 1064 465 1064 465 1178 435 c 1,58,-1
 1172 316 l 1,59,-1
 1098 316 l 1,60,-1
 1086 372 l 1,61,62
 1056 386 1056 386 1004.5 386 c 128,-1,63
 953 386 953 386 953 346 c 0,64,65
 953 323 953 323 975 309 c 128,-1,66
 997 295 997 295 1060.5 273.5 c 128,-1,67
 1124 252 1124 252 1159.5 221.5 c 128,-1,68
 1195 191 1195 191 1195 130 c 128,-1,69
 1195 69 1195 69 1139.5 29.5 c 128,-1,70
 1084 -10 1084 -10 1001 -10 c 128,-1,71
 918 -10 918 -10 835 24 c 1,72,-1
 843 146 l 1,73,-1
 919 146 l 1,74,-1
 928 85 l 1,75,76
 959 72 959 72 995.5 72 c 128,-1,77
 1032 72 1032 72 1054.5 85 c 128,-1,78
 1077 98 1077 98 1077 118 c 128,-1,79
 1077 138 1077 138 1063 150 c 128,-1,80
 1049 162 1049 162 1033.5 168.5 c 128,-1,81
 1018 175 1018 175 985 186 c 0,82,83
 902 215 902 215 869.5 248 c 128,-1,84
 837 281 837 281 837 341.5 c 128,-1,85
 837 402 837 402 887.5 433.5 c 128,-1,86
 938 465 938 465 1015 465 c 0,56,57
EndSplineSet
EndChar

StartChar: florin
Encoding: 402 402 224
Width: 355
Flags: HMW
HStem: -222 21G<22 22> 660 95<251.5 293>
VStem: 103 120<59 334 418 555 555 611>
LayerCount: 2
Fore
SplineSet
33 405 m 1,0,-1
 103 413 l 1,1,-1
 103 555 l 2,2,3
 103 653 103 653 155.5 704 c 128,-1,4
 208 755 208 755 299 755 c 0,5,6
 363 755 363 755 417 726 c 1,7,-1
 373 632 l 1,8,9
 311 660 311 660 267 660 c 128,-1,10
 223 660 223 660 223 611 c 2,11,-1
 223 418 l 1,12,-1
 351 430 l 1,13,-1
 341 334 l 1,14,-1
 223 334 l 1,15,-1
 223 11 l 2,16,17
 223 -96 223 -96 183.5 -141 c 128,-1,18
 144 -186 144 -186 22 -222 c 1,19,-1
 -31 -156 l 1,20,21
 35.1151832461 -131.958115183 35.1151832461 -131.958115183 56.057591623 -112.979057592 c 128,-1,22
 77 -94 77 -94 84.5 -81.5 c 128,-1,23
 92 -69 92 -69 96.5 -45.5 c 0,24,25
 103 -11.5555555556 103 -11.5555555556 103 59 c 2,26,-1
 103 334 l 1,27,-1
 33 334 l 1,28,-1
 33 405 l 1,0,-1
EndSplineSet
EndChar

StartChar: twosuperior
Encoding: 178 178 225
Width: 365
Flags: HMW
HStem: 279 80<140 342 140 342> 584 146<35 244.5 35 244.5> 658 72<164.5 200.5>
VStem: 243 99<571 621>
LayerCount: 2
Fore
SplineSet
342 359 m 1,0,-1
 342 279 l 1,1,-1
 23 279 l 1,2,-1
 23 293 l 2,3,4
 23 366 23 366 50 404.5 c 0,5,6
 80.8307405103 448.462352209 80.8307405103 448.462352209 156.5 495.5 c 0,7,8
 208.975476839 528.119891008 208.975476839 528.119891008 225.5 551 c 0,9,10
 243 575.230769231 243 575.230769231 243 600 c 0,11,12
 243 658 243 658 181 658 c 0,13,14
 145 658 145 658 110 644 c 1,15,-1
 96 584 l 1,16,-1
 35 584 l 1,17,-1
 29 698 l 1,18,19
 117 730 117 730 192 730 c 128,-1,20
 267 730 267 730 304.5 696.5 c 128,-1,21
 342 663 342 663 342 607 c 0,22,23
 342 546 342 546 302 506 c 0,24,25
 261.666666667 465.666666667 261.666666667 465.666666667 194.5 424.5 c 0,26,27
 150.771764706 397.698823529 150.771764706 397.698823529 143.5 379 c 0,28,29
 140 370 140 370 140 359 c 1,30,-1
 342 359 l 1,0,-1
EndSplineSet
EndChar

StartChar: threesuperior
Encoding: 179 179 226
Width: 370
Flags: HMW
HStem: 266 70<141.5 184 141.5 220> 607 123<43 239.5 43 239.5> 660 70<162.5 190>
VStem: 236 89 236 104<386.5 422>
LayerCount: 2
Fore
SplineSet
103 473 m 1,0,-1
 99 530 l 1,1,2
 226 555 226 555 226 622 c 0,3,4
 226 639 226 639 212 649.5 c 128,-1,5
 198 660 198 660 168.5 660 c 0,6,7
 139 660 139 660 113 652 c 1,8,-1
 104 607 l 1,9,-1
 43 607 l 1,10,-1
 37 710 l 1,11,12
 124 730 124 730 191.5 730 c 0,13,14
 259 730 259 730 292 702 c 128,-1,15
 325 674 325 674 325 635 c 0,16,17
 325 550 325 550 223 514 c 1,18,19
 283 503 283 503 311.5 480 c 128,-1,20
 340 457 340 457 340 402 c 0,21,22
 340 347 340 347 292 306.5 c 128,-1,23
 244 266 244 266 168.5 266 c 0,24,25
 93 266 93 266 18 298 c 1,26,-1
 37 361 l 1,27,28
 112 336 112 336 153.5 336 c 0,29,30
 195 336 195 336 215.5 356 c 128,-1,31
 236 376 236 376 236 402 c 0,32,33
 236 459 236 459 169 467 c 1,34,-1
 103 473 l 1,0,-1
EndSplineSet
EndChar

StartChar: onesuperior
Encoding: 185 185 227
Width: 327
Flags: HMW
HStem: 275 21G<49 293 49 49> 704 20G<147 217 217 217>
VStem: 43 174<593 673 673 673> 43 250 124 93<379 627 627 627>
LayerCount: 2
Fore
SplineSet
217 724 m 1,0,-1
 217 379 l 2,1,2
 217 360 217 360 221 352.5 c 128,-1,3
 225 345 225 345 238 344 c 2,4,-1
 293 338 l 1,5,-1
 293 275 l 1,6,-1
 49 275 l 1,7,-1
 49 338 l 1,8,-1
 102 344 l 2,9,10
 116 345 116 345 120 352.5 c 128,-1,11
 124 360 124 360 124 379 c 2,12,-1
 124 627 l 1,13,-1
 43 593 l 1,14,-1
 43 673 l 1,15,-1
 147 724 l 1,16,-1
 217 724 l 1,0,-1
EndSplineSet
EndChar

StartChar: zerosuperior
Encoding: 8304 8304 228
Width: 505
Flags: HMW
HStem: 266 78<221 300.5 221 318.5> 652 78<203.5 283>
VStem: 32 99<450 540.5 450 552> 374 99<458 548.5>
LayerCount: 2
Fore
SplineSet
417.5 668 m 128,-1,1
 473 606 473 606 473 507.5 c 128,-1,2
 473 409 473 409 412 337.5 c 128,-1,3
 351 266 351 266 247 266 c 128,-1,4
 143 266 143 266 87.5 329 c 128,-1,5
 32 392 32 392 32 490.5 c 128,-1,6
 32 589 32 589 93 659.5 c 128,-1,7
 154 730 154 730 258 730 c 128,-1,0
 362 730 362 730 417.5 668 c 128,-1,1
346 388 m 128,-1,9
 374 432 374 432 374 501.5 c 128,-1,10
 374 571 374 571 338.5 611.5 c 128,-1,11
 303 652 303 652 244.5 652 c 128,-1,12
 186 652 186 652 158.5 609.5 c 128,-1,13
 131 567 131 567 131 496.5 c 128,-1,14
 131 426 131 426 166 385 c 128,-1,15
 201 344 201 344 259.5 344 c 128,-1,8
 318 344 318 344 346 388 c 128,-1,9
EndSplineSet
EndChar

StartChar: foursuperior
Encoding: 8308 8308 229
Width: 442
Flags: HMW
HStem: 276 21G<253 346 253 253> 376 75<143 253 143 253 346 412> 710 20G<237 237>
VStem: 253 93<276 376 276 376 451 558>
LayerCount: 2
Fore
SplineSet
412 451 m 1,0,-1
 412 376 l 1,1,-1
 346 376 l 1,2,-1
 346 276 l 1,3,-1
 253 276 l 1,4,-1
 253 376 l 1,5,-1
 46 376 l 1,6,-1
 19 430 l 1,7,-1
 237 730 l 1,8,-1
 299 681 l 1,9,-1
 143 451 l 1,10,-1
 253 451 l 1,11,-1
 253 558 l 1,12,-1
 346 558 l 1,13,-1
 346 451 l 1,14,-1
 412 451 l 1,0,-1
EndSplineSet
EndChar

StartChar: fivesuperior
Encoding: 8309 8309 230
Width: 340
Flags: HMW
HStem: 266 73<133 174 133 198.5> 645 80<149 307 149 149>
VStem: 225 99<387.5 425>
LayerCount: 2
Fore
SplineSet
307 725 m 1,0,-1
 307 645 l 1,1,-1
 149 645 l 1,2,-1
 138 555 l 1,3,-1
 199 549 l 2,4,5
 324 537 324 537 324 414 c 0,6,7
 324 347 324 347 274.5 306.5 c 128,-1,8
 225 266 225 266 152.5 266 c 0,9,10
 80 266 80 266 10 296 c 1,11,-1
 28 356 l 1,12,13
 99 339 99 339 142 339 c 0,14,15
 185 339 185 339 205 358 c 128,-1,16
 225 377 225 377 225 403 c 0,17,18
 225 470 225 470 158 476 c 2,19,-1
 46 486 l 1,20,-1
 63 725 l 1,21,-1
 307 725 l 1,0,-1
EndSplineSet
EndChar

StartChar: sixsuperior
Encoding: 8310 8310 231
Width: 399
Flags: HMW
HStem: 266 73<185.5 237 185.5 257> 500 72<211.5 238.5> 663 67<292.5 331 292.5 331>
VStem: 32 98<400.5 437.5 396.5 488> 284 97<397.5 443>
LayerCount: 2
Fore
SplineSet
340.5 533 m 128,-1,1
 381 494 381 494 381 423 c 128,-1,2
 381 352 381 352 333 309 c 128,-1,3
 285 266 285 266 198.5 266 c 128,-1,4
 112 266 112 266 72 317.5 c 128,-1,5
 32 369 32 369 32 443 c 0,6,7
 32 569 32 569 106 649.5 c 128,-1,8
 180 730 180 730 331 730 c 1,9,-1
 331 663 l 1,10,11
 250 663 250 663 200 626 c 128,-1,12
 150 589 150 589 134 521 c 1,13,14
 166 572 166 572 233 572 c 128,-1,0
 300 572 300 572 340.5 533 c 128,-1,1
209 500 m 0,15,16
 130 500 130 500 130 423 c 0,17,18
 130 383 130 383 151 361 c 128,-1,19
 172 339 172 339 210 339 c 128,-1,20
 248 339 248 339 266 361.5 c 128,-1,21
 284 384 284 384 284 421 c 0,22,23
 284 500 284 500 209 500 c 0,15,16
EndSplineSet
EndChar

StartChar: sevensuperior
Encoding: 8311 8311 232
Width: 348
Flags: HMW
HStem: 252 21G<135 135> 588 137<31 98 31 31> 647 78<119.5 128 128 234>
LayerCount: 2
Fore
SplineSet
135 252 m 1,0,-1
 42 291 l 1,1,2
 87 363 87 363 156 487 c 128,-1,3
 225 611 225 611 234 647 c 1,4,-1
 128 647 l 2,5,6
 114 647 114 647 108.5 644 c 128,-1,7
 103 641 103 641 102 629 c 2,8,-1
 98 588 l 1,9,-1
 31 588 l 1,10,-1
 24 725 l 1,11,-1
 346 725 l 1,12,-1
 346 704 l 2,13,14
 346 666 346 666 325 624 c 2,15,-1
 135 252 l 1,0,-1
EndSplineSet
EndChar

StartChar: eightsuperior
Encoding: 8312 8312 233
Width: 386
Flags: HMW
HStem: 266 67<178.5 223.5 178.5 233.5> 659 67<169.5 201>
VStem: 21 97<369.5 414.5 369.5 415> 43 93<606 638.5 606 654> 255 90<597 634.5> 268 97<368 400.5>
LayerCount: 2
Fore
SplineSet
142 513 m 1,0,-1
 202 488 l 1,1,2
 197 484 197 484 181 474 c 128,-1,3
 165 464 165 464 160 460 c 128,-1,4
 155 456 155 456 144 446.5 c 128,-1,5
 133 437 133 437 129 430 c 0,6,7
 118 410.75 118 410.75 118 389 c 0,8,9
 118 333 118 333 203 333 c 0,10,11
 233 333 233 333 250.5 346.5 c 128,-1,12
 268 360 268 360 268 383 c 0,13,14
 268 398 268 398 257.5 408.5 c 128,-1,15
 247 419 247 419 240 425 c 128,-1,16
 233 431 233 431 221 438.5 c 2,17,18
 201 451 l 2,19,20
 182.333333333 462.666666667 182.333333333 462.666666667 167.166666667 471.333333333 c 128,-1,21
 152 480 152 480 132 492.5 c 128,-1,22
 112 505 112 505 104 510.5 c 128,-1,23
 96 516 96 516 81.5 528.5 c 128,-1,24
 67 541 67 541 60.5 552 c 0,25,26
 43 581.615384615 43 581.615384615 43 616 c 0,27,28
 43 670 43 670 87 698 c 128,-1,29
 131 726 131 726 199 726 c 128,-1,30
 267 726 267 726 306 700 c 128,-1,31
 345 674 345 674 345 628 c 0,32,33
 345 574.818181818 345 574.818181818 298.5 541 c 0,34,35
 287.5 533 287.5 533 247 506 c 1,36,-1
 181 527 l 1,37,38
 184 530 184 530 197.5 539 c 128,-1,39
 211 548 211 548 215.5 552 c 128,-1,40
 220 556 220 556 230 565 c 128,-1,41
 240 574 240 574 244 581 c 0,42,43
 255 600.25 255 600.25 255 620.125 c 128,-1,44
 255 640 255 640 234 649.5 c 128,-1,45
 213 659 213 659 183 659 c 0,46,47
 136 659 136 659 136 628 c 128,-1,48
 136 597 136 597 161 576 c 128,-1,49
 186 555 186 555 249 525 c 1,50,51
 308 492 308 492 336.5 463 c 128,-1,52
 365 434 365 434 365 383 c 128,-1,53
 365 332 365 332 313 299 c 128,-1,54
 261 266 261 266 184.5 266 c 128,-1,55
 108 266 108 266 64.5 294.5 c 128,-1,56
 21 323 21 323 21 379 c 0,57,58
 21 430.477272727 21 430.477272727 60 461.5 c 0,59,60
 87.0909090909 483.049586777 87.0909090909 483.049586777 142 513 c 1,0,-1
EndSplineSet
EndChar

StartChar: ninesuperior
Encoding: 8313 8313 234
Width: 399
Flags: HMW
HStem: 260 67<71 108> 419 72<160.5 187.5> 657 73<162 213.5>
VStem: 18 97<551.5 598.5 551.5 618.5> 269 98<557 595.5 507 599.5>
LayerCount: 2
Fore
SplineSet
58.5 459.5 m 128,-1,1
 18 500 18 500 18 572 c 128,-1,2
 18 644 18 644 66 687 c 128,-1,3
 114 730 114 730 200.5 730 c 128,-1,4
 287 730 287 730 327 678.5 c 128,-1,5
 367 627 367 627 367 553 c 0,6,7
 367 423 367 423 293 341.5 c 128,-1,8
 219 260 219 260 71 260 c 1,9,-1
 68 327 l 1,10,11
 148 327 148 327 198.5 364.5 c 128,-1,12
 249 402 249 402 265 470 c 1,13,14
 233 419 233 419 166 419 c 128,-1,0
 99 419 99 419 58.5 459.5 c 128,-1,1
190 491 m 0,15,16
 269 491 269 491 269 573 c 0,17,18
 269 613 269 613 248 635 c 128,-1,19
 227 657 227 657 189 657 c 128,-1,20
 151 657 151 657 133 634.5 c 128,-1,21
 115 612 115 612 115 575 c 0,22,23
 115 491 115 491 190 491 c 0,15,16
EndSplineSet
EndChar

